<svg xmlns="http://www.w3.org/2000/svg" width="27.805" height="36.418" viewBox="0 0 27.805 36.418">
  <path id="Candles" d="M63.758-70.944h0a13.916,13.916,0,0,0,13.9-13.9.624.624,0,0,0-.624-.624H74.341v-2.146l.031-.008c1.9-.436,3.287-2.758,3.287-5.522,0-3.032-3.454-6.695-3.489-6.732a.634.634,0,0,0-.453-.189h0a.637.637,0,0,0-.454.187c-.145.155-3.491,3.776-3.491,6.734,0,2.764,1.382,5.087,3.288,5.522l.031.008v2.148H64.378v-4.123l.033-.006c2.673-.48,4.613-3.786,4.613-7.861,0-4.195-4.606-9.483-4.8-9.706a.647.647,0,0,0-.912-.028.4.4,0,0,0-.029.029A28.32,28.32,0,0,0,60.8-103.8a12.8,12.8,0,0,0-2.325,6.348c0,4.076,1.94,7.382,4.614,7.861l.033.006v4.123h-8.7v-2.148l.031-.008c1.9-.436,3.287-2.758,3.287-5.522,0-3.032-3.454-6.695-3.489-6.732a.635.635,0,0,0-.453-.189h0a.637.637,0,0,0-.454.187c-.145.155-3.491,3.776-3.491,6.734,0,2.764,1.382,5.087,3.288,5.522l.031.008v2.148H50.481a.627.627,0,0,0-.624.622,13.808,13.808,0,0,0,4.074,9.828A13.806,13.806,0,0,0,63.758-70.944Zm11.323-8.279A12.653,12.653,0,0,1,70.42-74.1a12.646,12.646,0,0,1-6.661,1.9A12.731,12.731,0,0,1,62-72.323l-.058-.008,2.182-3.922h3.057a1.276,1.276,0,0,0,1.266-1.078l.471-2.823.039,0,6.145.877Zm-2.044-9.714c-1.169-.511-2.016-2.279-2.016-4.2h0c0-1.948,2.039-4.568,2.664-5.325l.031-.038.031.038c.624.755,2.663,3.372,2.663,5.325,0,1.926-.847,3.693-2.015,4.2l-.056.024v-3.193H73.093v3.193Zm-9.954-1.946c-1.908-.56-3.348-3.385-3.348-6.573,0-2.984,2.792-6.784,3.993-8.28l.031-.039.031.039c1.2,1.5,3.991,5.3,3.991,8.28,0,3.188-1.439,6.013-3.346,6.573l-.052.015v-5.221H63.135v5.221Zm-5.107,9.045,1.19-2.38H76.4v.042a12.557,12.557,0,0,1-.76,3.686l-.011.03-.032,0-6.45-.921a1.291,1.291,0,0,0-1.455,1.062l-.47,2.821H64.152a1.316,1.316,0,0,0-1.129.661l-2.361,4.252-.03-.008a12.553,12.553,0,0,1-3.746-1.629l-.015-.01,0-.017-.394-2.35.019-.014,2.3-1.729a1.249,1.249,0,0,0,.133-.115l.644-.643a1.289,1.289,0,0,0,0-1.821,1.273,1.273,0,0,0-.338-.243L57.958-81.8Zm-4.854-7.1c-1.169-.511-2.017-2.279-2.017-4.2,0-1.948,2.04-4.568,2.665-5.325L53.8-98.5l.031.038c.624.755,2.663,3.372,2.663,5.325,0,1.926-.848,3.693-2.016,4.2l-.055.024v-3.192H53.178v3.192Zm-2,4.718h6.649l-.028.058L56.863-82.4a1.291,1.291,0,0,0,.569,1.731l1.293.641-.039.04-.647.643L55.753-77.62a1.269,1.269,0,0,0-.508,1.244l.173,1.022-.085-.076a12.7,12.7,0,0,1-4.208-8.747Z" transform="translate(-49.854 107.363)" fill="#ff595c"/>
</svg>
