<svg xmlns="http://www.w3.org/2000/svg" width="615.922" height="640.641" viewBox="0 0 615.922 640.641">
  <g id="Group_1698" data-name="Group 1698" transform="translate(-412.038 -2153)">
    <path id="Path_384" data-name="Path 384" d="M1016.786,979.478c109.691,0,198.614-88.923,198.614-198.614s-88.923-198.612-198.614-198.612S818.172,671.172,818.172,780.864s88.923,198.614,198.614,198.614" transform="translate(-297.172 1570.748)" fill="#ff595c" opacity="0.534"/>
    <path id="Path_385" data-name="Path 385" d="M1068.905,1084.809c109.691,0,198.614-88.923,198.614-198.614S1178.6,687.583,1068.905,687.583,870.291,776.5,870.291,886.195s88.923,198.614,198.614,198.614" transform="translate(-239.559 1686.922)" fill="#ff595c" opacity="0.534"/>
    <path id="Path_386" data-name="Path 386" d="M964.912,1084.809c109.689,0,198.614-88.923,198.614-198.614S1074.6,687.583,964.912,687.583,766.3,776.5,766.3,886.195s88.925,198.614,198.616,198.614" transform="translate(-354.258 1686.922)" fill="#ff595c" opacity="0.534"/>
    <path id="Path_387" data-name="Path 387" d="M1347.676,757.734l-4.387,2.532c74.145,143.416,23.1,321.219-118.179,402.784a302.754,302.754,0,0,1-135.806,40.326v4.826l-10.782-10.782,10.782-10.782v5.234a291.292,291.292,0,0,0,130.063-38.772c135.778-78.391,184.949-249.173,113.967-387.088l-4.334,2.5,3.947-14.729ZM921.028,636.359a302.737,302.737,0,0,0-105.91,102.232l-3.974-2.292,3.947,14.729,14.729-3.947-4.73-2.732a291.251,291.251,0,0,1,101.681-98.041c135.785-78.4,308.278-35.58,392.221,94.861l-4.334,2.5,14.729,3.947,3.947-14.729-4.387,2.532c-87.125-135.934-266.64-180.632-407.919-99.063M801.135,763.644c-44.065,88.277-44.435,196.261,8.59,288.1,54.043,93.608,150.345,147.58,250.9,151.794v4.662l10.782-10.782-10.782-10.784v5.386c-96.582-4.206-189.029-56.1-240.946-146.019-50.9-88.159-50.664-191.775-8.569-276.6l4.372,2.524-3.947-14.729L796.8,761.141Z" transform="translate(-351.324 1585.438)" fill="#0e1b2c"/>
    <path id="Path_425" data-name="Path 425" d="M101.96,15l-2.288-4.7a2.945,2.945,0,0,0,1.888-2.96c0-2.24-1.584-3.376-4.128-3.376H93.48V15h2.24V10.664h1.792L99.5,15ZM95.72,8.776V5.864h1.5c1.328,0,2.1.32,2.1,1.472s-.768,1.44-2.1,1.44Zm7.952-4.816V15h6.88V13.112h-4.64v-2.88h4.16V8.344h-4.16V5.864h4.64V3.96Zm12.7,7.152c2.56,0,4.128-1.28,4.128-3.616,0-2.368-1.584-3.536-4.128-3.536h-3.952V15h2.24V11.112Zm-1.712-1.888V5.864h1.392c1.552,0,2.208.576,2.208,1.632,0,1.184-.656,1.728-2.208,1.728Zm16,5.776-2.288-4.7a2.945,2.945,0,0,0,1.888-2.96c0-2.24-1.584-3.376-4.128-3.376h-3.952V15h2.24V10.664h1.792L128.2,15Zm-6.24-6.224V5.864h1.5c1.328,0,2.1.32,2.1,1.472s-.768,1.44-2.1,1.44Zm7.952-4.816V15h6.88V13.112h-4.64v-2.88h4.16V8.344h-4.16V5.864h4.64V3.96Zm16.176,1.664a4.288,4.288,0,0,0-3.872-1.808c-2.624,0-3.776,1.36-3.776,3.1,0,1.824,1.088,2.864,3.264,3.44,1.792.464,2.256.9,2.256,1.664,0,.672-.432,1.232-1.712,1.232a2.758,2.758,0,0,1-2.4-1.1L140.6,13.336a4.864,4.864,0,0,0,4.256,1.808c2.592,0,3.808-1.408,3.808-3.216,0-1.952-1.04-2.816-3.344-3.392-1.472-.368-2.176-.752-2.176-1.616,0-.752.544-1.216,1.552-1.216a2.248,2.248,0,0,1,2.176,1.12Zm2.1-1.664V15h6.88V13.112h-4.64v-2.88h4.16V8.344h-4.16V5.864h4.64V3.96Zm14.928,0v6.928l-4.32-6.928H159.4V15h2.128V8.168l4.3,6.832H167.7V3.96Zm3.68,0v1.9h3.04V15h2.24V5.864h3.04V3.96ZM179.768,15l.672-2.1h3.7l.672,2.1h2.384l-3.84-11.04h-2.144L177.368,15Zm2.512-7.872,1.248,3.888h-2.5ZM187,3.96v1.9h3.04V15h2.24V5.864h3.04V3.96Zm12.256,0h-2.24V15h2.24Zm10.784,6.3V8.7c0-3.408-1.744-4.88-4.24-4.88-2.48,0-4.224,1.472-4.224,4.88v1.568c0,3.376,1.744,4.88,4.224,4.88C208.3,15.144,210.04,13.64,210.04,10.264ZM203.816,8.7c0-2.112.688-2.992,1.984-2.992s2,.88,2,2.992v1.568c0,2.112-.7,2.992-2,2.992s-1.984-.88-1.984-2.992Zm14.56-4.736v6.928l-4.32-6.928H212.2V15h2.128V8.168l4.3,6.832H220.5V3.96ZM79.536,27.424,82.048,36H83.44l2.688-11.04h-1.44l-2,8.72-2.48-8.72h-1.36l-2.432,8.672-2-8.672h-1.44L75.664,36H77.04Zm8.432-2.464V36h6.656V34.752h-5.28v-3.84h4.8V29.664h-4.8V26.208h5.28V24.96ZM101.52,36l.848-2.528h4.352L107.568,36h1.456l-3.84-11.04H103.9L100.064,36Zm3.024-8.96,1.744,5.184H102.8Zm13.728,1.36a3.71,3.71,0,0,0-3.968-3.568c-2.448,0-4,1.472-4,5.04v1.216c0,3.568,1.552,5.04,4,5.04a3.7,3.7,0,0,0,3.952-3.568h-1.328c-.368,1.616-1.184,2.32-2.624,2.32-1.7,0-2.624-1.056-2.624-3.792V29.872c0-2.736.928-3.792,2.624-3.792,1.36,0,2.24.592,2.624,2.32Zm.88-3.44v1.248h3.36V36h1.376V26.208h3.36V24.96Zm11.392,0h-1.376V36h1.376Zm2,0,4,11.04h1.3l4-11.04h-1.52l-3.152,8.8-3.1-8.8Zm11.136,0V36h6.656V34.752h-5.28v-3.84h4.8V29.664h-4.8V26.208h5.28V24.96Zm10.352,0h-1.376V36h6.656V34.752h-5.28Zm4.8,0,3.44,6.3V36h1.376V31.264l3.44-6.3h-1.616l-2.512,4.8-2.512-4.8Zm18.1,6.832c2.56,0,4.016-1.28,4.016-3.408,0-2.144-1.472-3.424-4.016-3.424h-3.52V36h1.376V31.792Zm-2.144-1.248V26.208h2.144c1.872,0,2.64.8,2.64,2.176,0,1.36-.768,2.16-2.64,2.16ZM190.96,36,188.5,31.1a2.81,2.81,0,0,0,2.176-2.944c0-2.144-1.472-3.2-4.016-3.2h-3.52V36h1.376V31.344h2.608l2.3,4.656Zm-6.448-5.9V26.208h2.144c1.872,0,2.64.576,2.64,1.952,0,1.36-.768,1.936-2.64,1.936Zm16.048.992V29.872c0-3.568-1.552-5.04-4-5.04s-4,1.472-4,5.04v1.216c0,3.568,1.552,5.04,4,5.04S200.56,34.656,200.56,31.088Zm-6.624-1.216c0-2.736.928-3.792,2.624-3.792s2.624,1.056,2.624,3.792v1.216c0,2.736-.928,3.792-2.624,3.792s-2.624-1.056-2.624-3.792Zm10.448-4.912H203.04V36h1.376V27.952l2.64,5.744h1.232l2.688-5.792V36h1.376V24.96h-1.36l-3.3,6.88Zm18.448,6.128V29.872c0-3.568-1.552-5.04-4-5.04s-4,1.472-4,5.04v1.216c0,3.568,1.552,5.04,4,5.04S222.832,34.656,222.832,31.088Zm-6.624-1.216c0-2.736.928-3.792,2.624-3.792s2.624,1.056,2.624,3.792v1.216c0,2.736-.928,3.792-2.624,3.792s-2.624-1.056-2.624-3.792Zm7.824-4.912v1.248h3.36V36h1.376V26.208h3.36V24.96Zm9.856,0V36h6.656V34.752h-5.28v-3.84h4.8V29.664h-4.8V26.208h5.28V24.96ZM68.752,52.088V50.872c0-3.568-1.552-5.04-4-5.04s-4,1.472-4,5.04v1.216c0,3.568,1.552,5.04,4,5.04S68.752,55.656,68.752,52.088Zm-6.624-1.216c0-2.736.928-3.792,2.624-3.792s2.624,1.056,2.624,3.792v1.216c0,2.736-.928,3.792-2.624,3.792s-2.624-1.056-2.624-3.792ZM77.856,45.96v6.56c0,2.416-.928,3.36-2.624,3.36s-2.624-.944-2.624-3.36V45.96H71.232v6.56c0,3.248,1.552,4.608,4,4.608s4-1.36,4-4.624V45.96ZM90.1,57l-2.464-4.9a2.81,2.81,0,0,0,2.176-2.944c0-2.144-1.472-3.2-4.016-3.2h-3.52V57h1.376V52.344h2.608L88.56,57Zm-6.448-5.9V47.208h2.144c1.872,0,2.64.576,2.64,1.952,0,1.36-.768,1.936-2.64,1.936ZM97.92,45.96H96.576V57h1.376V48.952l2.64,5.744h1.232l2.688-5.792V57h1.376V45.96h-1.36l-3.3,6.88Zm11.008,0V57h6.656V55.752H110.3v-3.84h4.8V50.664h-4.8V47.208h5.28V45.96Zm10.32,0H117.9V57h1.376V48.952l2.64,5.744h1.232L125.84,48.9V57h1.376V45.96h-1.36l-3.3,6.88Zm11.008,0V57h3.728c2.832,0,3.808-1.568,3.808-3.168a2.452,2.452,0,0,0-2.176-2.592,2.507,2.507,0,0,0,1.824-2.464c0-1.84-1.232-2.816-3.808-2.816Zm1.376,5.936h2.1c1.824,0,2.688.608,2.688,1.936,0,1.2-.768,1.92-2.432,1.92h-2.352Zm0-4.7h2c1.936,0,2.432.608,2.432,1.584,0,1.088-.64,1.872-2.192,1.872h-2.24Zm8.48-1.232V57h6.656V55.752h-5.28v-3.84h4.8V50.664h-4.8V47.208h5.28V45.96ZM156.912,57l-2.464-4.9a2.81,2.81,0,0,0,2.176-2.944c0-2.144-1.472-3.2-4.016-3.2h-3.52V57h1.376V52.344h2.608l2.3,4.656Zm-6.448-5.9V47.208h2.144c1.872,0,2.64.576,2.64,1.952,0,1.36-.768,1.936-2.64,1.936Zm15.424-3.456a3.9,3.9,0,0,0-3.648-1.808c-2.528,0-3.568,1.392-3.568,2.976,0,1.92,1.344,2.912,3.424,3.232S164.7,53.064,164.7,54.1c0,.944-.528,1.776-2.336,1.776a3.178,3.178,0,0,1-2.8-1.344l-1.136.784a4.458,4.458,0,0,0,3.936,1.808c2.752,0,3.712-1.648,3.712-3.088,0-2.048-1.3-2.816-3.424-3.184-1.616-.288-2.608-.736-2.608-2.048,0-1.152.864-1.728,2.144-1.728a2.93,2.93,0,0,1,2.624,1.328Zm3.616-2.48h-1.376V49.3L169.5,48.12Zm8.752.8H176.88V57h1.376Zm9.312,0v8.432l-4.8-8.432h-1.312V57h1.376V48.648L187.6,57h1.344V45.96Zm3.136,0v1.248h3.36V57h1.376V47.208h3.36V45.96Zm9.856,0V57h6.656V55.752h-5.28v-3.84h4.8V50.664h-4.8V47.208h5.28V45.96ZM217.36,57,214.9,52.1a2.81,2.81,0,0,0,2.176-2.944c0-2.144-1.472-3.2-4.016-3.2h-3.52V57h1.376V52.344h2.608l2.3,4.656Zm-6.448-5.9V47.208h2.144c1.872,0,2.64.576,2.64,1.952,0,1.36-.768,1.936-2.64,1.936Zm8.608-5.136V57h6.656V55.752H220.9v-3.84h4.8V50.664h-4.8V47.208h5.28V45.96Zm15.792,1.68a3.9,3.9,0,0,0-3.648-1.808c-2.528,0-3.568,1.392-3.568,2.976,0,1.92,1.344,2.912,3.424,3.232s2.608,1.024,2.608,2.064c0,.944-.528,1.776-2.336,1.776a3.178,3.178,0,0,1-2.8-1.344l-1.136.784a4.458,4.458,0,0,0,3.936,1.808c2.752,0,3.712-1.648,3.712-3.088,0-2.048-1.3-2.816-3.424-3.184-1.616-.288-2.608-.736-2.608-2.048,0-1.152.864-1.728,2.144-1.728a2.93,2.93,0,0,1,2.624,1.328Zm1.1-1.68v1.248h3.36V57h1.376V47.208h3.36V45.96Zm16.672,1.68a3.9,3.9,0,0,0-3.648-1.808c-2.528,0-3.568,1.392-3.568,2.976,0,1.92,1.344,2.912,3.424,3.232S251.9,53.064,251.9,54.1c0,.944-.528,1.776-2.336,1.776a3.178,3.178,0,0,1-2.8-1.344l-1.136.784a4.458,4.458,0,0,0,3.936,1.808c2.752,0,3.712-1.648,3.712-3.088,0-2.048-1.3-2.816-3.424-3.184-1.616-.288-2.608-.736-2.608-2.048,0-1.152.864-1.728,2.144-1.728a2.93,2.93,0,0,1,2.624,1.328ZM80.152,78,81,75.472h4.352L86.2,78h1.456l-3.84-11.04h-1.28L78.7,78Zm3.024-8.96,1.744,5.184H81.432Zm4.56-2.08v1.248H91.1V78h1.376V68.208h3.36V66.96Zm15.552,0h-1.376V78h1.376V72.912h4.736V78H109.4V66.96h-1.376v4.7h-4.736Zm16.592,6.128V71.872c0-3.568-1.552-5.04-4-5.04s-4,1.472-4,5.04v1.216c0,3.568,1.552,5.04,4,5.04S119.88,76.656,119.88,73.088Zm-6.624-1.216c0-2.736.928-3.792,2.624-3.792s2.624,1.056,2.624,3.792v1.216c0,2.736-.928,3.792-2.624,3.792s-2.624-1.056-2.624-3.792ZM123.7,66.96H122.36V78h1.376V69.952l2.64,5.744h1.232L130.3,69.9V78h1.376V66.96h-1.36l-3.3,6.88Zm11.008,0V78h6.656V76.752h-5.28v-3.84h4.8V71.664h-4.8V68.208h5.28V66.96Zm12.656,8.064a3.146,3.146,0,0,0,3.488,3.1,4.7,4.7,0,0,0,3.2-1.12l.912.992h1.808l-1.856-2.016a5.882,5.882,0,0,0,.88-3.136h-1.248a4.591,4.591,0,0,1-.512,2.176l-2.9-3.152c1.2-.832,2.4-1.632,2.4-2.88,0-1.008-.672-2.16-2.672-2.16a2.475,2.475,0,0,0-2.7,2.48,3.849,3.849,0,0,0,1.136,2.464A4.027,4.027,0,0,0,147.368,75.024Zm3.488,1.856a1.917,1.917,0,0,1-2.176-1.872,3.077,3.077,0,0,1,1.408-2.368l3.12,3.44A3.506,3.506,0,0,1,150.856,76.88Zm-1.312-7.568a1.223,1.223,0,0,1,1.328-1.248,1.156,1.156,0,0,1,1.3,1.024c0,.752-.832,1.312-1.792,1.952A2.892,2.892,0,0,1,149.544,69.312ZM163.352,78l.848-2.528h4.352L169.4,78h1.456l-3.84-11.04h-1.28L161.9,78Zm3.024-8.96,1.744,5.184h-3.488Zm6.32-2.08V78h3.728c2.832,0,3.808-1.568,3.808-3.168a2.452,2.452,0,0,0-2.176-2.592,2.507,2.507,0,0,0,1.824-2.464c0-1.84-1.232-2.816-3.808-2.816Zm1.376,5.936h2.1c1.824,0,2.688.608,2.688,1.936,0,1.2-.768,1.92-2.432,1.92h-2.352Zm0-4.7h2c1.936,0,2.432.608,2.432,1.584,0,1.088-.64,1.872-2.192,1.872h-2.24ZM190.376,78l-2.464-4.9a2.81,2.81,0,0,0,2.176-2.944c0-2.144-1.472-3.2-4.016-3.2h-3.52V78h1.376V73.344h2.608L188.84,78Zm-6.448-5.9V68.208h2.144c1.872,0,2.64.576,2.64,1.952,0,1.36-.768,1.936-2.64,1.936Zm16.048.992V71.872c0-3.568-1.552-5.04-4-5.04s-4,1.472-4,5.04v1.216c0,3.568,1.552,5.04,4,5.04S199.976,76.656,199.976,73.088Zm-6.624-1.216c0-2.736.928-3.792,2.624-3.792s2.624,1.056,2.624,3.792v1.216c0,2.736-.928,3.792-2.624,3.792s-2.624-1.056-2.624-3.792ZM202.712,78l.848-2.528h4.352L208.76,78h1.456l-3.84-11.04H205.1L201.256,78Zm3.024-8.96,1.744,5.184h-3.488Zm9.84,8.96c2.448,0,4-1.376,4-4.944V71.9c0-3.568-1.552-4.944-4-4.944h-3.52V78Zm0-1.248h-2.144V68.208h2.144c1.7,0,2.624.96,2.624,3.7v1.152C218.2,75.792,217.272,76.752,215.576,76.752Zm10.16-1.728a3.146,3.146,0,0,0,3.488,3.1,4.7,4.7,0,0,0,3.2-1.12l.912.992h1.808l-1.856-2.016a5.882,5.882,0,0,0,.88-3.136H232.92a4.591,4.591,0,0,1-.512,2.176l-2.9-3.152c1.2-.832,2.4-1.632,2.4-2.88,0-1.008-.672-2.16-2.672-2.16a2.475,2.475,0,0,0-2.7,2.48,3.849,3.849,0,0,0,1.136,2.464A4.027,4.027,0,0,0,225.736,75.024Zm3.488,1.856a1.917,1.917,0,0,1-2.176-1.872,3.077,3.077,0,0,1,1.408-2.368l3.12,3.44A3.506,3.506,0,0,1,229.224,76.88Zm-1.312-7.568a1.223,1.223,0,0,1,1.328-1.248,1.156,1.156,0,0,1,1.3,1.024c0,.752-.832,1.312-1.792,1.952A2.892,2.892,0,0,1,227.912,69.312ZM62.088,91.4a3.71,3.71,0,0,0-3.968-3.568c-2.448,0-4,1.472-4,5.04v1.216c0,3.568,1.552,5.04,4,5.04a3.7,3.7,0,0,0,3.952-3.568H60.744c-.368,1.616-1.184,2.32-2.624,2.32-1.7,0-2.624-1.056-2.624-3.792V92.872c0-2.736.928-3.792,2.624-3.792,1.36,0,2.24.592,2.624,2.32ZM64.5,99l.848-2.528H69.7L70.552,99h1.456l-3.84-11.04h-1.28L63.048,99Zm3.024-8.96,1.744,5.184H65.784Zm7.664-2.08H73.848V99h1.376V90.952l2.64,5.744H79.1L81.784,90.9V99H83.16V87.96H81.8l-3.3,6.88ZM89.72,94.792c2.56,0,4.016-1.28,4.016-3.408,0-2.144-1.472-3.424-4.016-3.424H86.2V99h1.376V94.792Zm-2.144-1.248V89.208H89.72c1.872,0,2.64.8,2.64,2.176,0,1.36-.768,2.16-2.64,2.16ZM95.448,99l.848-2.528h4.352L101.5,99h1.456l-3.84-11.04h-1.28L93.992,99Zm3.024-8.96,1.744,5.184H96.728Zm7.856-2.08h-1.376V99h1.376Zm6.688,5.488V94.7h2.624c-.144,2.288-1.12,3.184-2.672,3.184-1.7,0-2.624-1.056-2.624-3.792V92.872c0-2.736.928-3.792,2.624-3.792,1.408,0,2.272.672,2.624,2.32h1.344a3.717,3.717,0,0,0-3.968-3.568c-2.448,0-4,1.472-4,5.04v1.216c0,3.568,1.552,5.04,4,5.04s4.064-1.472,4.064-5.04v-.64Zm12.608-5.488v8.432l-4.8-8.432h-1.312V99h1.376V90.648L125.656,99H127V87.96ZM141.8,94.088V92.872c0-3.568-1.552-5.04-4-5.04s-4,1.472-4,5.04v1.216c0,3.568,1.552,5.04,4,5.04S141.8,97.656,141.8,94.088Zm-6.624-1.216c0-2.736.928-3.792,2.624-3.792s2.624,1.056,2.624,3.792v1.216c0,2.736-.928,3.792-2.624,3.792s-2.624-1.056-2.624-3.792Zm15.216-4.912v8.432l-4.8-8.432H144.28V99h1.376V90.648L150.424,99h1.344V87.96Zm7.456,0v1.248h3.36V99h1.376V89.208h3.36V87.96Zm11.232,0H167.7V99h1.376V93.912h4.736V99h1.376V87.96h-1.376v4.7H169.08Zm9.152,0V99h6.656V97.752h-5.28v-3.84h4.8V92.664h-4.8V89.208h5.28V87.96Zm10.512,0h-1.376V99h1.376ZM199.768,99,197.3,94.1a2.81,2.81,0,0,0,2.176-2.944c0-2.144-1.472-3.2-4.016-3.2h-3.52V99h1.376V94.344h2.608l2.3,4.656Zm-6.448-5.9V89.208h2.144c1.872,0,2.64.576,2.64,1.952,0,1.36-.768,1.936-2.64,1.936Zm12.928-5.136V99h3.728c2.832,0,3.808-1.568,3.808-3.168a2.452,2.452,0,0,0-2.176-2.592,2.507,2.507,0,0,0,1.824-2.464c0-1.84-1.232-2.816-3.808-2.816Zm1.376,5.936h2.1c1.824,0,2.688.608,2.688,1.936,0,1.2-.768,1.92-2.432,1.92h-2.352Zm0-4.7h2c1.936,0,2.432.608,2.432,1.584,0,1.088-.64,1.872-2.192,1.872h-2.24Zm8.48-1.232V99h6.656V97.752h-5.28v-3.84h4.8V92.664h-4.8V89.208h5.28V87.96Zm10.352,0H225.08V99h1.376V93.912h4.736V99h1.376V87.96h-1.376v4.7h-4.736ZM235.864,99l.848-2.528h4.352L241.912,99h1.456l-3.84-11.04h-1.28L234.408,99Zm3.024-8.96,1.744,5.184h-3.488Zm7.7-2.08h-1.376V99h6.656V97.752h-5.28Zm6.96,0V99h1.376V94.168h4.8V92.92h-4.8V89.208h5.28V87.96Z" transform="translate(563 2242)" fill="#0e1b2c"/>
    <path id="Path_424" data-name="Path 424" d="M106.5,15l-4.032-6.576L105.84,3.96h-2.656L99.7,8.728V3.96h-2.24V15H99.7V12.072l1.312-1.728L103.824,15Zm7.616-11.04v6.928l-4.32-6.928h-1.856V15h2.128V8.168l4.3,6.832h1.872V3.96Zm12.608,6.3V8.7c0-3.408-1.744-4.88-4.24-4.88-2.48,0-4.224,1.472-4.224,4.88v1.568c0,3.376,1.744,4.88,4.224,4.88C124.976,15.144,126.72,13.64,126.72,10.264ZM120.5,8.7c0-2.112.688-2.992,1.984-2.992s2,.88,2,2.992v1.568c0,2.112-.7,2.992-2,2.992s-1.984-.88-1.984-2.992Zm14.24-1.3,2.336,7.6h2.144L141.76,3.96h-2.416l-1.456,7.312-2.16-7.312h-2.016l-2.1,7.264L130.144,3.96h-2.4L130.272,15H132.4Zm10.608-3.44H143.1V15h6.88V13.112h-4.64Zm5.984,0V15h6.88V13.112h-4.64v-2.88h4.16V8.344h-4.16V5.864h4.64V3.96ZM163.84,15c2.5,0,4.24-1.3,4.24-4.8V8.76c0-3.52-1.744-4.8-4.24-4.8h-3.92V15Zm0-1.888h-1.68V5.864h1.68c1.488,0,2,.992,2,2.9V10.2C165.84,12.1,165.328,13.112,163.84,13.112Zm10.176-3.856v1.888h1.856c-.128,1.328-.64,2.112-1.9,2.112-1.3,0-1.984-.88-1.984-2.992V8.7c0-2.112.688-2.992,1.984-2.992a1.826,1.826,0,0,1,1.9,1.68h2.144a3.794,3.794,0,0,0-4.048-3.568c-2.48,0-4.224,1.472-4.224,5.04v1.408c0,3.376,1.744,4.88,4.224,4.88,2.5,0,4.064-1.5,4.064-4.88V9.256Zm6.016-5.3V15h6.88V13.112h-4.64v-2.88h4.16V8.344h-4.16V5.864h4.64V3.96Zm10.64,8.544H188.5v5.088l2.176-1.856ZM69.488,24.96h-2.24V36h2.24Zm8.672,0v6.928L73.84,24.96H71.984V36h2.128V29.168L78.416,36h1.872V24.96Zm11.9,1.664a4.288,4.288,0,0,0-3.872-1.808c-2.624,0-3.776,1.36-3.776,3.1,0,1.824,1.088,2.864,3.264,3.44,1.792.464,2.256.9,2.256,1.664,0,.672-.432,1.232-1.712,1.232a2.758,2.758,0,0,1-2.4-1.1l-1.712,1.184a4.864,4.864,0,0,0,4.256,1.808c2.592,0,3.808-1.408,3.808-3.216,0-1.952-1.04-2.816-3.344-3.392-1.472-.368-2.176-.752-2.176-1.616,0-.752.544-1.216,1.552-1.216a2.248,2.248,0,0,1,2.176,1.12ZM94.4,24.96H92.16V36H94.4Zm6.432,5.3v1.888h1.856c-.128,1.328-.64,2.112-1.9,2.112-1.3,0-1.984-.88-1.984-2.992V29.7c0-2.112.688-2.992,1.984-2.992a1.826,1.826,0,0,1,1.9,1.68h2.144a3.794,3.794,0,0,0-4.048-3.568c-2.48,0-4.224,1.472-4.224,5.04v1.408c0,3.376,1.744,4.88,4.224,4.88,2.5,0,4.064-1.5,4.064-4.88V30.256Zm8.256-5.3h-2.24V36h2.24V31.232h3.824V36h2.24V24.96h-2.24v4.384h-3.824Zm7.456,0v1.9h3.04V36h2.24V26.864h3.04v-1.9Zm13.328,8.112c0,1.568,1.344,3.072,3.808,3.072a5.328,5.328,0,0,0,2.96-.8l.608.656h2.576l-1.84-2.032a5.857,5.857,0,0,0,.864-3.12h-2.112a4.766,4.766,0,0,1-.224,1.488L134.4,29.984c1.152-.848,2.288-1.744,2.288-2.976,0-1.136-.992-2.192-2.992-2.192-1.744,0-3.024.992-3.024,2.512a3.928,3.928,0,0,0,1.056,2.544A4.04,4.04,0,0,0,129.872,33.072Zm3.9,1.184a1.53,1.53,0,0,1-1.728-1.5,2.225,2.225,0,0,1,.832-1.552l2.448,2.688A3.093,3.093,0,0,1,133.776,34.256Zm-.976-6.928a.866.866,0,0,1,.928-.96c.608,0,.944.368.944.768,0,.608-.576,1.088-1.312,1.6A2.574,2.574,0,0,1,132.8,27.328Zm12.576-2.368V36h6.88V34.112h-4.64v-2.88h4.16V29.344h-4.16v-2.48h4.64v-1.9ZM155.52,36l2.1-3.76L159.728,36h2.416l-3.12-5.7,2.784-5.344h-2.416l-1.776,3.52-1.76-3.52h-2.432l2.768,5.344-3.1,5.7Zm12.032-3.888c2.56,0,4.128-1.28,4.128-3.616,0-2.368-1.584-3.536-4.128-3.536H163.6V36h2.24V32.112Zm-1.712-1.888v-3.36h1.392c1.552,0,2.208.576,2.208,1.632,0,1.184-.656,1.728-2.208,1.728Zm7.36-5.264V36h6.88V34.112h-4.64v-2.88h4.16V29.344h-4.16v-2.48h4.64v-1.9ZM190.272,36l-2.288-4.7a2.945,2.945,0,0,0,1.888-2.96c0-2.24-1.584-3.376-4.128-3.376h-3.952V36h2.24V31.664h1.792L187.808,36Zm-6.24-6.224V26.864h1.5c1.328,0,2.1.32,2.1,1.472s-.768,1.44-2.1,1.44ZM190.7,24.96v1.9h3.04V36h2.24V26.864h3.04v-1.9Zm12.1,0h-2.24V36h2.24Zm9.92,1.664a4.288,4.288,0,0,0-3.872-1.808c-2.624,0-3.776,1.36-3.776,3.1,0,1.824,1.088,2.864,3.264,3.44,1.792.464,2.256.9,2.256,1.664,0,.672-.432,1.232-1.712,1.232a2.758,2.758,0,0,1-2.4-1.1l-1.712,1.184a4.864,4.864,0,0,0,4.256,1.808c2.592,0,3.808-1.408,3.808-3.216,0-1.952-1.04-2.816-3.344-3.392-1.472-.368-2.176-.752-2.176-1.616,0-.752.544-1.216,1.552-1.216a2.248,2.248,0,0,1,2.176,1.12Zm1.936-1.664V36h6.88V34.112H216.9v-2.88h4.16V29.344H216.9v-2.48h4.64v-1.9ZM89.184,48.424,91.7,57h1.392l2.688-11.04h-1.44l-2,8.72-2.48-8.72H88.5l-2.432,8.672-2-8.672h-1.44L85.312,57h1.376Zm8.272-2.464V57h6.656V55.752h-5.28v-3.84h4.8V50.664h-4.8V47.208h5.28V45.96Zm16.5,6.832c2.56,0,4.016-1.28,4.016-3.408,0-2.144-1.472-3.424-4.016-3.424h-3.52V57h1.376V52.792Zm-2.144-1.248V47.208h2.144c1.872,0,2.64.8,2.64,2.176,0,1.36-.768,2.16-2.64,2.16ZM127.824,57l-2.464-4.9a2.81,2.81,0,0,0,2.176-2.944c0-2.144-1.472-3.2-4.016-3.2H120V57h1.376V52.344h2.608l2.3,4.656Zm-6.448-5.9V47.208h2.144c1.872,0,2.64.576,2.64,1.952,0,1.36-.768,1.936-2.64,1.936Zm15.888.992V50.872c0-3.568-1.552-5.04-4-5.04s-4,1.472-4,5.04v1.216c0,3.568,1.552,5.04,4,5.04S137.264,55.656,137.264,52.088Zm-6.624-1.216c0-2.736.928-3.792,2.624-3.792s2.624,1.056,2.624,3.792v1.216c0,2.736-.928,3.792-2.624,3.792s-2.624-1.056-2.624-3.792Zm7.584-4.912,4,11.04h1.3l4-11.04H146l-3.152,8.8-3.1-8.8Zm12.512,0H149.36V57h1.376ZM157.3,57c2.448,0,4-1.376,4-4.944V50.9c0-3.568-1.552-4.944-4-4.944h-3.52V57Zm0-1.248h-2.144V47.208H157.3c1.7,0,2.624.96,2.624,3.7v1.152C159.92,54.792,158.992,55.752,157.3,55.752Zm6.32-9.792V57h6.656V55.752h-5.28v-3.84h4.8V50.664h-4.8V47.208h5.28V45.96Zm20.416,6.128V50.872c0-3.568-1.552-5.04-4-5.04s-4,1.472-4,5.04v1.216c0,3.568,1.552,5.04,4,5.04S184.032,55.656,184.032,52.088Zm-6.624-1.216c0-2.736.928-3.792,2.624-3.792s2.624,1.056,2.624,3.792v1.216c0,2.736-.928,3.792-2.624,3.792s-2.624-1.056-2.624-3.792Zm15.568-4.912v6.56c0,2.416-.928,3.36-2.624,3.36s-2.624-.944-2.624-3.36V45.96h-1.376v6.56c0,3.248,1.552,4.608,4,4.608s4-1.36,4-4.624V45.96ZM205.056,57l-2.464-4.9a2.81,2.81,0,0,0,2.176-2.944c0-2.144-1.472-3.2-4.016-3.2h-3.52V57h1.376V52.344h2.608L203.52,57Zm-6.448-5.9V47.208h2.144c1.872,0,2.64.576,2.64,1.952,0,1.36-.768,1.936-2.64,1.936ZM90.792,66.96H89.448V78h1.376V69.952l2.64,5.744H94.7L97.384,69.9V78H98.76V66.96H97.4l-3.3,6.88Zm10.848,0V78H108.3V76.752h-5.28v-3.84h4.8V71.664h-4.8V68.208h5.28V66.96Zm10.16,0h-1.344V78h1.376V69.952l2.64,5.744H115.7l2.688-5.792V78h1.376V66.96h-1.36l-3.3,6.88Zm10.848,0V78h3.728c2.832,0,3.808-1.568,3.808-3.168a2.452,2.452,0,0,0-2.176-2.592,2.507,2.507,0,0,0,1.824-2.464c0-1.84-1.232-2.816-3.808-2.816Zm1.376,5.936h2.1c1.824,0,2.688.608,2.688,1.936,0,1.2-.768,1.92-2.432,1.92h-2.352Zm0-4.7h2c1.936,0,2.432.608,2.432,1.584,0,1.088-.64,1.872-2.192,1.872h-2.24Zm8.32-1.232V78H139V76.752h-5.28v-3.84h4.8V71.664h-4.8V68.208H139V66.96ZM148.984,78l-2.464-4.9A2.81,2.81,0,0,0,148.7,70.16c0-2.144-1.472-3.2-4.016-3.2h-3.52V78h1.376V73.344h2.608l2.3,4.656Zm-6.448-5.9V68.208h2.144c1.872,0,2.64.576,2.64,1.952,0,1.36-.768,1.936-2.64,1.936ZM157.8,68.64a3.9,3.9,0,0,0-3.648-1.808c-2.528,0-3.568,1.392-3.568,2.976,0,1.92,1.344,2.912,3.424,3.232s2.608,1.024,2.608,2.064c0,.944-.528,1.776-2.336,1.776a3.178,3.178,0,0,1-2.8-1.344l-1.136.784a4.458,4.458,0,0,0,3.936,1.808c2.752,0,3.712-1.648,3.712-3.088,0-2.048-1.3-2.816-3.424-3.184-1.616-.288-2.608-.736-2.608-2.048,0-1.152.864-1.728,2.144-1.728a2.93,2.93,0,0,1,2.624,1.328Zm12,.784L172.312,78H173.7l2.688-11.04h-1.44l-2,8.72-2.48-8.72h-1.36l-2.432,8.672-2-8.672h-1.44L165.928,78H167.3Zm9.808-2.464h-1.376V78h1.376Zm1.76,0v1.248h3.36V78H186.1V68.208h3.36V66.96Zm11.072,0h-1.376V78h1.376V72.912h4.736V78h1.376V66.96h-1.376v4.7H192.44Zm-96,21H95.064V99H96.44Zm9.152,0v8.432l-4.8-8.432H99.48V99h1.376V90.648L105.624,99h1.344V87.96Zm4.256,0V99h1.376V94.168h4.8V92.92h-4.8V89.208h5.28V87.96Zm16.1,6.128V92.872c0-3.568-1.552-5.04-4-5.04s-4,1.472-4,5.04v1.216c0,3.568,1.552,5.04,4,5.04S125.944,97.656,125.944,94.088Zm-6.624-1.216c0-2.736.928-3.792,2.624-3.792s2.624,1.056,2.624,3.792v1.216c0,2.736-.928,3.792-2.624,3.792s-2.624-1.056-2.624-3.792ZM136.088,99l-2.464-4.9A2.81,2.81,0,0,0,135.8,91.16c0-2.144-1.472-3.2-4.016-3.2h-3.52V99h1.376V94.344h2.608l2.3,4.656Zm-6.448-5.9V89.208h2.144c1.872,0,2.64.576,2.64,1.952,0,1.36-.768,1.936-2.64,1.936Zm9.792-5.136h-1.344V99h1.376V90.952L142.1,96.7h1.232l2.688-5.792V99H147.4V87.96h-1.36l-3.3,6.88ZM150.536,99l.848-2.528h4.352L156.584,99h1.456L154.2,87.96h-1.28L149.08,99Zm3.024-8.96,1.744,5.184h-3.488Zm4.4-2.08v1.248h3.36V99H162.7V89.208h3.36V87.96Zm11.232,0h-1.376V99h1.376Zm10.48,6.128V92.872c0-3.568-1.552-5.04-4-5.04s-4,1.472-4,5.04v1.216c0,3.568,1.552,5.04,4,5.04S179.672,97.656,179.672,94.088Zm-6.624-1.216c0-2.736.928-3.792,2.624-3.792s2.624,1.056,2.624,3.792v1.216c0,2.736-.928,3.792-2.624,3.792s-2.624-1.056-2.624-3.792ZM188.1,87.96v8.432l-4.8-8.432h-1.312V99h1.376V90.648L188.136,99h1.344V87.96Zm5.392,9.184H191.96v4.128l1.536-1.328Zm-82.2,13.5a3.9,3.9,0,0,0-3.648-1.808c-2.528,0-3.568,1.392-3.568,2.976,0,1.92,1.344,2.912,3.424,3.232s2.608,1.024,2.608,2.064c0,.944-.528,1.776-2.336,1.776a3.178,3.178,0,0,1-2.8-1.344l-1.136.784a4.458,4.458,0,0,0,3.936,1.808c2.752,0,3.712-1.648,3.712-3.088,0-2.048-1.3-2.816-3.424-3.184-1.616-.288-2.608-.736-2.608-2.048,0-1.152.864-1.728,2.144-1.728a2.93,2.93,0,0,1,2.624,1.328Zm9.1-1.68v6.56c0,2.416-.928,3.36-2.624,3.36s-2.624-.944-2.624-3.36v-6.56h-1.376v6.56c0,3.248,1.552,4.608,4,4.608s4-1.36,4-4.624V108.96Zm7.776,6.832c2.56,0,4.016-1.28,4.016-3.408,0-2.144-1.472-3.424-4.016-3.424h-3.52V120h1.376v-4.208Zm-2.144-1.248v-4.336h2.144c1.872,0,2.64.8,2.64,2.176,0,1.36-.768,2.16-2.64,2.16Zm11.712,1.248c2.56,0,4.016-1.28,4.016-3.408,0-2.144-1.472-3.424-4.016-3.424h-3.52V120H135.6v-4.208Zm-2.144-1.248v-4.336h2.144c1.872,0,2.64.8,2.64,2.176,0,1.36-.768,2.16-2.64,2.16Zm15.632.544v-1.216c0-3.568-1.552-5.04-4-5.04s-4,1.472-4,5.04v1.216c0,3.568,1.552,5.04,4,5.04S151.232,118.656,151.232,115.088Zm-6.624-1.216c0-2.736.928-3.792,2.624-3.792s2.624,1.056,2.624,3.792v1.216c0,2.736-.928,3.792-2.624,3.792s-2.624-1.056-2.624-3.792ZM161.376,120l-2.464-4.9a2.81,2.81,0,0,0,2.176-2.944c0-2.144-1.472-3.2-4.016-3.2h-3.52V120h1.376v-4.656h2.608l2.3,4.656Zm-6.448-5.9v-3.888h2.144c1.872,0,2.64.576,2.64,1.952,0,1.36-.768,1.936-2.64,1.936Zm7.008-5.136v1.248h3.36V120h1.376v-9.792h3.36V108.96Zm13.216,8.064a3.146,3.146,0,0,0,3.488,3.1,4.7,4.7,0,0,0,3.2-1.12l.912.992h1.808l-1.856-2.016a5.882,5.882,0,0,0,.88-3.136h-1.248a4.591,4.591,0,0,1-.512,2.176l-2.9-3.152c1.2-.832,2.4-1.632,2.4-2.88,0-1.008-.672-2.16-2.672-2.16a2.475,2.475,0,0,0-2.7,2.48,3.849,3.849,0,0,0,1.136,2.464A4.027,4.027,0,0,0,175.152,117.024Zm3.488,1.856a1.917,1.917,0,0,1-2.176-1.872,3.077,3.077,0,0,1,1.408-2.368l3.12,3.44A3.506,3.506,0,0,1,178.64,118.88Zm-1.312-7.568a1.223,1.223,0,0,1,1.328-1.248,1.156,1.156,0,0,1,1.3,1.024c0,.752-.832,1.312-1.792,1.952A2.892,2.892,0,0,1,177.328,111.312ZM119.848,141l.848-2.528h4.352L125.9,141h1.456l-3.84-11.04h-1.28L118.392,141Zm3.024-8.96,1.744,5.184h-3.488Zm9.68,8.96c2.448,0,4-1.376,4-4.944V134.9c0-3.568-1.552-4.944-4-4.944h-3.52V141Zm0-1.248h-2.144v-8.544h2.144c1.7,0,2.624.96,2.624,3.7v1.152C135.176,138.792,134.248,139.752,132.552,139.752Zm4.96-9.792,4,11.04h1.3l4-11.04h-1.52l-3.152,8.8-3.1-8.8Zm12.512,0h-1.376V141h1.376Zm10.448,3.44a3.71,3.71,0,0,0-3.968-3.568c-2.448,0-4,1.472-4,5.04v1.216c0,3.568,1.552,5.04,4,5.04a3.7,3.7,0,0,0,3.952-3.568h-1.328c-.368,1.616-1.184,2.32-2.624,2.32-1.7,0-2.624-1.056-2.624-3.792v-1.216c0-2.736.928-3.792,2.624-3.792,1.36,0,2.24.592,2.624,2.32Zm2-3.44V141h6.656v-1.248h-5.28v-3.84h4.8v-1.248h-4.8v-3.456h5.28V129.96Z" transform="translate(762 2516)" fill="#0e1b2c"/>
    <path id="Path_423" data-name="Path 423" d="M108.232,7.384a3.779,3.779,0,0,0-4.048-3.568c-2.48,0-4.224,1.472-4.224,4.88v1.568c0,3.376,1.744,4.88,4.224,4.88,2.272,0,3.664-1.088,4.032-3.568h-2.128c-.24,1.12-.784,1.68-1.9,1.68-1.3,0-1.984-.944-1.984-2.992V8.7c0-2.112.688-2.992,1.984-2.992a1.833,1.833,0,0,1,1.9,1.68Zm9.744,2.88V8.7c0-3.408-1.744-4.88-4.24-4.88-2.48,0-4.224,1.472-4.224,4.88v1.568c0,3.376,1.744,4.88,4.224,4.88C116.232,15.144,117.976,13.64,117.976,10.264ZM111.752,8.7c0-2.112.688-2.992,1.984-2.992s2,.88,2,2.992v1.568c0,2.112-.7,2.992-2,2.992s-1.984-.88-1.984-2.992Zm10.32-4.736h-2.1V15H122.1V8.2l2.368,4.816h1.36l2.4-4.864V15h2.144V3.96h-2.128l-3.072,6.016Zm12.736,0h-2.1V15h2.128V8.2l2.368,4.816h1.36l2.4-4.864V15h2.144V3.96h-2.128l-3.072,6.016Zm16.88,0v6.576c0,1.888-.624,2.72-2,2.72s-2-.832-2-2.72V3.96h-2.24v6.576c0,3.248,1.792,4.608,4.24,4.608s4.24-1.36,4.24-4.624V3.96Zm10.752,0v6.928L158.12,3.96h-1.856V15h2.128V8.168L162.7,15h1.872V3.96Zm6.88,0h-2.24V15h2.24Zm1.536,0v1.9h3.04V15h2.24V5.864h3.04V3.96Zm8.7,0L183,10.488V15h2.24V10.488l3.44-6.528H186.1L184.12,8.072,182.152,3.96ZM92.032,27.424,94.544,36h1.392l2.688-11.04h-1.44l-2,8.72L92.7,24.96h-1.36l-2.432,8.672-2-8.672h-1.44L88.16,36h1.376ZM100.3,24.96V36h6.656V34.752h-5.28v-3.84h4.8V29.664h-4.8V26.208h5.28V24.96Zm20.384,3.44a3.71,3.71,0,0,0-3.968-3.568c-2.448,0-4,1.472-4,5.04v1.216c0,3.568,1.552,5.04,4,5.04a3.7,3.7,0,0,0,3.952-3.568h-1.328c-.368,1.616-1.184,2.32-2.624,2.32-1.7,0-2.624-1.056-2.624-3.792V29.872c0-2.736.928-3.792,2.624-3.792,1.36,0,2.24.592,2.624,2.32Zm8.624-3.44v6.56c0,2.416-.928,3.36-2.624,3.36s-2.624-.944-2.624-3.36V24.96h-1.376v6.56c0,3.248,1.552,4.608,4,4.608s4-1.36,4-4.624V24.96ZM141.392,36l-2.464-4.9A2.81,2.81,0,0,0,141.1,28.16c0-2.144-1.472-3.2-4.016-3.2h-3.52V36h1.376V31.344h2.608l2.3,4.656Zm-6.448-5.9V26.208h2.144c1.872,0,2.64.576,2.64,1.952,0,1.36-.768,1.936-2.64,1.936Zm8.7,5.9.848-2.528h4.352L149.7,36h1.456l-3.84-11.04h-1.28L142.192,36Zm3.024-8.96,1.744,5.184h-3.488Zm4.4-2.08v1.248h3.36V36h1.376V26.208h3.36V24.96Zm9.7,0V36h6.656V34.752h-5.28v-3.84h4.8V29.664h-4.8V26.208h5.28V24.96Zm20.416,6.128V29.872c0-3.568-1.552-5.04-4-5.04s-4,1.472-4,5.04v1.216c0,3.568,1.552,5.04,4,5.04S181.184,34.656,181.184,31.088Zm-6.624-1.216c0-2.736.928-3.792,2.624-3.792s2.624,1.056,2.624,3.792v1.216c0,2.736-.928,3.792-2.624,3.792s-2.624-1.056-2.624-3.792Zm15.568-4.912v6.56c0,2.416-.928,3.36-2.624,3.36s-2.624-.944-2.624-3.36V24.96H183.5v6.56c0,3.248,1.552,4.608,4,4.608s4-1.36,4-4.624V24.96ZM202.208,36l-2.464-4.9a2.81,2.81,0,0,0,2.176-2.944c0-2.144-1.472-3.2-4.016-3.2h-3.52V36h1.376V31.344h2.608l2.3,4.656Zm-6.448-5.9V26.208H197.9c1.872,0,2.64.576,2.64,1.952,0,1.36-.768,1.936-2.64,1.936ZM102.04,49.4a3.71,3.71,0,0,0-3.968-3.568c-2.448,0-4,1.472-4,5.04v1.216c0,3.568,1.552,5.04,4,5.04a3.7,3.7,0,0,0,3.952-3.568H100.7c-.368,1.616-1.184,2.32-2.624,2.32-1.7,0-2.624-1.056-2.624-3.792V50.872c0-2.736.928-3.792,2.624-3.792,1.36,0,2.24.592,2.624,2.32Zm9.44,2.688V50.872c0-3.568-1.552-5.04-4-5.04s-4,1.472-4,5.04v1.216c0,3.568,1.552,5.04,4,5.04S111.48,55.656,111.48,52.088Zm-6.624-1.216c0-2.736.928-3.792,2.624-3.792s2.624,1.056,2.624,3.792v1.216c0,2.736-.928,3.792-2.624,3.792s-2.624-1.056-2.624-3.792Zm10.288-4.912H113.8V57h1.376V48.952l2.64,5.744h1.232l2.688-5.792V57h1.376V45.96h-1.36l-3.3,6.88Zm12.192,0h-1.344V57h1.376V48.952l2.64,5.744h1.232l2.688-5.792V57H135.3V45.96h-1.36l-3.3,6.88Zm17.472,0v6.56c0,2.416-.928,3.36-2.624,3.36s-2.624-.944-2.624-3.36V45.96h-1.376v6.56c0,3.248,1.552,4.608,4,4.608s4-1.36,4-4.624V45.96Zm10.368,0v8.432l-4.8-8.432h-1.312V57h1.376V48.648L155.208,57h1.344V45.96Zm5.792,0h-1.376V57h1.376Zm1.76,0v1.248h3.36V57h1.376V47.208h3.36V45.96Zm8.656,0,3.44,6.3V57H176.2V52.264l3.44-6.3h-1.616l-2.512,4.8L173,45.96ZM185,54.024a3.146,3.146,0,0,0,3.488,3.1,4.7,4.7,0,0,0,3.2-1.12L192.6,57h1.808l-1.856-2.016a5.882,5.882,0,0,0,.88-3.136h-1.248a4.591,4.591,0,0,1-.512,2.176l-2.9-3.152c1.2-.832,2.4-1.632,2.4-2.88,0-1.008-.672-2.16-2.672-2.16a2.475,2.475,0,0,0-2.7,2.48,3.849,3.849,0,0,0,1.136,2.464A4.027,4.027,0,0,0,185,54.024Zm3.488,1.856a1.917,1.917,0,0,1-2.176-1.872,3.077,3.077,0,0,1,1.408-2.368l3.12,3.44A3.506,3.506,0,0,1,188.488,55.88Zm-1.312-7.568a1.223,1.223,0,0,1,1.328-1.248,1.156,1.156,0,0,1,1.3,1.024c0,.752-.832,1.312-1.792,1.952A2.892,2.892,0,0,1,187.176,48.312ZM83.88,78c2.448,0,4-1.376,4-4.944V71.9c0-3.568-1.552-4.944-4-4.944H80.36V78Zm0-1.248H81.736V68.208H83.88c1.7,0,2.624.96,2.624,3.7v1.152C86.5,75.792,85.576,76.752,83.88,76.752ZM90.2,66.96V78h6.656V76.752h-5.28v-3.84h4.8V71.664h-4.8V68.208h5.28V66.96Zm7.616,0,4,11.04h1.3l4-11.04h-1.52l-3.152,8.8-3.1-8.8Zm10.976,0V78h6.656V76.752h-5.28v-3.84h4.8V71.664h-4.8V68.208h5.28V66.96Zm10.192,0h-1.376V78h6.656V76.752h-5.28Zm13.952,6.128V71.872c0-3.568-1.552-5.04-4-5.04s-4,1.472-4,5.04v1.216c0,3.568,1.552,5.04,4,5.04S132.936,76.656,132.936,73.088Zm-6.624-1.216c0-2.736.928-3.792,2.624-3.792s2.624,1.056,2.624,3.792v1.216c0,2.736-.928,3.792-2.624,3.792s-2.624-1.056-2.624-3.792Zm12.464,1.92c2.56,0,4.016-1.28,4.016-3.408,0-2.144-1.472-3.424-4.016-3.424h-3.52V78h1.376V73.792Zm-2.144-1.248V68.208h2.144c1.872,0,2.64.8,2.64,2.176,0,1.36-.768,2.16-2.64,2.16Zm13.7-5.584h-1.344V78h1.376V69.952L153,75.7h1.232L156.92,69.9V78H158.3V66.96h-1.36l-3.3,6.88Zm10.848,0V78h6.656V76.752h-5.28v-3.84h4.8V71.664h-4.8V68.208h5.28V66.96Zm10.16,0h-1.344V78h1.376V69.952l2.64,5.744h1.232l2.688-5.792V78H179.3V66.96h-1.36l-3.3,6.88Zm10.848,0V78h3.728c2.832,0,3.808-1.568,3.808-3.168a2.452,2.452,0,0,0-2.176-2.592,2.507,2.507,0,0,0,1.824-2.464c0-1.84-1.232-2.816-3.808-2.816ZM183.56,72.9h2.1c1.824,0,2.688.608,2.688,1.936,0,1.2-.768,1.92-2.432,1.92H183.56Zm0-4.7h2c1.936,0,2.432.608,2.432,1.584,0,1.088-.64,1.872-2.192,1.872h-2.24Zm8.32-1.232V78h6.656V76.752h-5.28v-3.84h4.8V71.664h-4.8V68.208h5.28V66.96ZM208.52,78l-2.464-4.9a2.81,2.81,0,0,0,2.176-2.944c0-2.144-1.472-3.2-4.016-3.2H200.7V78h1.376V73.344h2.608l2.3,4.656Zm-6.448-5.9V68.208h2.144c1.872,0,2.64.576,2.64,1.952,0,1.36-.768,1.936-2.64,1.936Zm-90.7,15.864v8.432l-4.8-8.432h-1.312V99h1.376V90.648L111.408,99h1.344V87.96Zm4.256,0V99h6.656V97.752h-5.28v-3.84h4.8V92.664h-4.8V89.208h5.28V87.96Zm7.536,0v1.248h3.36V99H127.9V89.208h3.36V87.96Zm15.056,2.464L140.736,99h1.392l2.688-11.04h-1.44l-2,8.72-2.48-8.72h-1.36L135.1,96.632l-2-8.672h-1.44L134.352,99h1.376Zm15.712,3.664V92.872c0-3.568-1.552-5.04-4-5.04s-4,1.472-4,5.04v1.216c0,3.568,1.552,5.04,4,5.04S153.936,97.656,153.936,94.088Zm-6.624-1.216c0-2.736.928-3.792,2.624-3.792s2.624,1.056,2.624,3.792v1.216c0,2.736-.928,3.792-2.624,3.792s-2.624-1.056-2.624-3.792ZM164.08,99l-2.464-4.9a2.81,2.81,0,0,0,2.176-2.944c0-2.144-1.472-3.2-4.016-3.2h-3.52V99h1.376V94.344h2.608l2.3,4.656Zm-6.448-5.9V89.208h2.144c1.872,0,2.64.576,2.64,1.952,0,1.36-.768,1.936-2.64,1.936ZM174.848,99,170.4,92.392l3.632-4.432h-1.776l-4.8,5.936V87.96H166.08V99h1.376V95.992l2.032-2.5L173.2,99Zm8.288-9.36a3.9,3.9,0,0,0-3.648-1.808c-2.528,0-3.568,1.392-3.568,2.976,0,1.92,1.344,2.912,3.424,3.232s2.608,1.024,2.608,2.064c0,.944-.528,1.776-2.336,1.776a3.178,3.178,0,0,1-2.8-1.344l-1.136.784a4.458,4.458,0,0,0,3.936,1.808c2.752,0,3.712-1.648,3.712-3.088,0-2.048-1.3-2.816-3.424-3.184-1.616-.288-2.608-.736-2.608-2.048,0-1.152.864-1.728,2.144-1.728a2.93,2.93,0,0,1,2.624,1.328Z" transform="translate(399 2516)" fill="#0e1b2c"/>
  </g>
</svg>
