<?xml version="1.0" encoding="utf-8"?>
<!-- Generator: Adobe Illustrator 28.3.0, SVG Export Plug-In . SVG Version: 6.00 Build 0)  -->
<svg version="1.1" id="Layer_1" xmlns="http://www.w3.org/2000/svg" xmlns:xlink="http://www.w3.org/1999/xlink" x="0px" y="0px"
	 viewBox="0 0 126 126" style="enable-background:new 0 0 126 126;" xml:space="preserve">
<style type="text/css">
	.st0{fill:#FF595C;}
</style>
<g>
	<path class="st0" d="M63,0C28.3,0,0,28.3,0,63s28.3,63,63,63s63-28.3,63-63S97.7,0,63,0z M61.1,121.7c-1.8,0-3.2-1.4-3.2-3.2
		c0-1.8,1.4-3.2,3.2-3.2s3.2,1.4,3.2,3.2C64.3,120.3,62.9,121.7,61.1,121.7z M61.1,112.3c-3.4,0-6.2,2.8-6.2,6.2
		c0,1.6,0.6,3,1.6,4.1c-2.3-0.3-4.6-0.6-6.8-1.2c2.3-1.3,3.9-3.7,3.9-6.5c0-1.5-0.5-2.9-1.2-4.1c0.8,0.2,1.7,0.3,2.6,0.3
		c5.9,0,10.8-4.8,10.8-10.8c0-1.4-0.3-2.8-0.8-4.1c2.1,0.8,4.4,1.4,6.7,1.5c-3.3,2.3-5.5,6.2-5.5,10.5c0,6.5,4.9,12,11.3,12.8
		c-3.8,0.9-7.8,1.5-11.9,1.7c1.1-1.1,1.8-2.7,1.8-4.4C67.3,115.1,64.5,112.3,61.1,112.3z M31.8,24.4c14.3,0,25.9,11.6,25.9,25.9
		c0,14.3-11.6,25.9-25.9,25.9S5.9,64.6,5.9,50.3C5.9,36,17.5,24.4,31.8,24.4z M50.7,5.8c5.1,0,9.3,4.2,9.3,9.3s-4.2,9.3-9.3,9.3
		s-9.3-4.2-9.3-9.3S45.5,5.8,50.7,5.8z M72.8,18.5c1.5,3,4.6,5,8.2,5c0.1,0,0.1,0,0.2,0c-1.9,1.7-3.6,3.7-4.9,6
		c-0.4-3.6-2.5-6.6-5.6-8.2C71.7,20.5,72.4,19.6,72.8,18.5z M110.2,61c5.8,0,10.6,4.7,10.6,10.6c0,5.8-4.7,10.6-10.6,10.6
		s-10.6-4.7-10.6-10.6C99.6,65.7,104.4,61,110.2,61z M96.6,71.5c0,4.3,2,8.1,5.2,10.6c-0.5-0.1-1-0.1-1.5-0.1
		c-2.5,0-4.8,0.7-6.8,1.9c1-2.5,1.5-5.1,1.5-7.9c0-5.1-1.8-9.8-4.7-13.6c1.9,0.5,3.8,0.8,5.8,0.8c1.2,0,2.5-0.1,3.6-0.3
		C97.8,65.3,96.6,68.3,96.6,71.5z M31.9,88.2c6.3,0,11.5,5.2,11.5,11.5s-5.2,11.5-11.5,11.5c-6.3,0-11.5-5.2-11.5-11.5
		S25.6,88.2,31.9,88.2z M65.7,22.9c4.3,0,7.8,3.5,7.8,7.8c0,4.3-3.5,7.8-7.8,7.8s-7.8-3.5-7.8-7.8C57.9,26.4,61.4,22.9,65.7,22.9z
		 M67.5,42.1c3.1,0,5.7,2.6,5.7,5.7s-2.6,5.7-5.7,5.7c-3.1,0-5.7-2.6-5.7-5.7S64.4,42.1,67.5,42.1z M75.7,50.6
		c0.7,1.5,1.7,2.9,2.7,4.2c-1.6-0.4-3.3-0.6-5-0.7C74.5,53.2,75.3,52,75.7,50.6z M73.4,41.5c-0.7-0.6-1.4-1.1-2.3-1.5
		c0.9-0.5,1.7-1.2,2.4-2c-0.1,0.9-0.2,1.7-0.2,2.6C73.4,40.9,73.4,41.2,73.4,41.5z M62.2,40.9c-0.9,0.7-1.7,1.6-2.3,2.6
		c-0.4-1.7-1-3.4-1.7-5C59.4,39.6,60.7,40.4,62.2,40.9z M60.6,53.1c1,1.3,2.3,2.2,3.8,2.8c-1.8,0.8-3.4,1.8-4.9,3
		C60,57,60.4,55.1,60.6,53.1z M45.3,105.3c0.4,0.8,1,1.6,1.6,2.3c-0.2,0-0.5,0-0.7,0c-0.8,0-1.6,0.1-2.3,0.4
		C44.4,107.1,44.9,106.2,45.3,105.3z M45.6,95c-0.3-1-0.7-1.9-1.3-2.7c0.4,0.1,0.8,0.1,1.3,0.1c0.9,0,1.8-0.2,2.7-0.4
		C47.2,92.8,46.3,93.9,45.6,95z M53.7,86.5c0.6,1.2,1.4,2.3,2.2,3.3c-0.3,0-0.7-0.1-1-0.1c-1.3,0-2.6,0.3-3.8,0.7
		C52.3,89.4,53.2,88,53.7,86.5z M51.1,76.1c0,0.5,0,1,0.1,1.5c-1.4-1.2-3.2-2-5.2-2c2.1-1.2,4-2.6,5.7-4.2
		C51.3,72.9,51.1,74.4,51.1,76.1z M45.6,78.5c3,0,5.5,2.5,5.5,5.5s-2.5,5.5-5.5,5.5S40.2,87,40.2,84S42.6,78.5,45.6,78.5z
		 M46.1,110.6c2.4,0,4.4,2,4.4,4.4s-2,4.4-4.4,4.4s-4.4-2-4.4-4.4S43.7,110.6,46.1,110.6z M47.1,100.5c0-4.3,3.5-7.8,7.8-7.8
		c4.3,0,7.8,3.5,7.8,7.8c0,4.3-3.5,7.8-7.8,7.8C50.6,108.2,47.1,104.8,47.1,100.5z M54.1,76.1c0-10.4,8.5-18.9,18.9-18.9
		S92,65.6,92,76.1C92,86.5,83.5,95,73,95S54.1,86.5,54.1,76.1z M78.9,98.6c5.4,0,9.9,4.4,9.9,9.9c0,5.4-4.4,9.9-9.9,9.9
		s-9.9-4.4-9.9-9.9C69.1,103.1,73.5,98.6,78.9,98.6z M82.1,96c2-0.9,3.8-2.1,5.4-3.5c-0.2,0.8-0.3,1.7-0.3,2.5
		c0,1.5,0.3,2.9,0.7,4.2C86.3,97.7,84.3,96.6,82.1,96z M100.3,85.1c5.5,0,10,4.5,10,10s-4.5,10-10,10c-5.5,0-10-4.5-10-10
		S94.7,85.1,100.3,85.1z M96.1,60.3c-10.8,0-19.6-8.8-19.6-19.6S85.2,21,96.1,21s19.6,8.8,19.6,19.6S106.9,60.3,96.1,60.3z M96.1,18
		c-2.5,0-5,0.4-7.2,1.2c0.9-1.4,1.4-3.1,1.4-4.8c0-2.2-0.8-4.2-2-5.8c6,2.8,11.4,6.5,16.1,10.9C101.7,18.5,99,18,96.1,18z
		 M87.2,14.3c0,3.4-2.8,6.2-6.2,6.2s-6.2-2.8-6.2-6.2c0-3.4,2.8-6.2,6.2-6.2S87.2,10.9,87.2,14.3z M66.6,19.7c-2,0-3.6-1.6-3.6-3.6
		c0-2,1.6-3.6,3.6-3.6c2,0,3.6,1.6,3.6,3.6C70.3,18.1,68.6,19.7,66.6,19.7z M61.8,20.7c-0.1,0-0.1,0-0.2,0.1c0-0.1,0.1-0.1,0.1-0.2
		C61.8,20.6,61.8,20.6,61.8,20.7z M50.7,27.5c1.8,0,3.6-0.4,5.2-1.1c-0.6,1.3-1,2.8-1,4.4c0,0.9,0.1,1.7,0.3,2.6
		c-1.6-2.2-3.5-4.2-5.7-5.9C49.9,27.4,50.3,27.5,50.7,27.5z M31.8,79.2c2.6,0,5.2-0.4,7.6-1c-1.4,1.5-2.3,3.5-2.3,5.8
		c0,0.8,0.1,1.6,0.3,2.4c-1.7-0.7-3.6-1.1-5.6-1.1c-2.8,0-5.4,0.8-7.6,2.2c0.4-1.1,0.6-2.2,0.6-3.4c0-2.4-0.9-4.6-2.3-6.2
		C25.6,78.7,28.6,79.2,31.8,79.2z M22,84c0,3.7-3,6.7-6.7,6.7s-6.7-3-6.7-6.7c0-3.7,3-6.7,6.7-6.7S22,80.3,22,84z M15.3,93.7
		c1.4,0,2.7-0.3,3.9-0.8c-1.1,2-1.7,4.4-1.7,6.9c0,0.9,0.1,1.7,0.2,2.5c-2.6-3-4.9-6.2-6.8-9.7C12.2,93.3,13.7,93.7,15.3,93.7z
		 M31.9,114.2c2.7,0,5.2-0.8,7.4-2c-0.4,0.9-0.6,1.8-0.6,2.8c0,1.2,0.3,2.2,0.7,3.2c-2.7-1.2-5.3-2.5-7.8-4
		C31.8,114.2,31.9,114.2,31.9,114.2z M91.8,108.5c0-1.4-0.2-2.8-0.7-4.1c2.4,2.3,5.6,3.7,9.1,3.7c0.9,0,1.7-0.1,2.5-0.2
		c-4.3,3.9-9.3,7.1-14.6,9.6C90.4,115.1,91.8,112,91.8,108.5z M108.5,85c0.6,0.1,1.2,0.1,1.8,0.1c4.1,0,7.7-1.8,10.2-4.6
		c-1.7,5.5-4.1,10.6-7.1,15.3c0-0.2,0-0.4,0-0.6C113.3,91,111.4,87.4,108.5,85z M122.9,66.7c-1.9-5-6.7-8.6-12.3-8.7
		c4.9-4.1,8.1-10.3,8.1-17.2c2.8,6.9,4.3,14.4,4.3,22.2C123,64.3,122.9,65.5,122.9,66.7z M79.3,5.3c-3.6,0.7-6.5,3.4-7.3,7
		c-1.2-1.7-3.2-2.8-5.4-2.8c-1.7,0-3.2,0.6-4.3,1.6c-1.2-3.5-4-6.3-7.4-7.5C57.5,3.2,60.2,3,63,3C68.7,3,74.1,3.8,79.3,5.3z M41.4,7
		c-1.9,2.2-3.1,5-3.1,8.1c0,2.9,1,5.6,2.8,7.8c-2.9-1-6-1.5-9.3-1.5c-6.1,0-11.7,1.9-16.4,5.1C22.1,17.8,31.1,11,41.4,7z M3.4,55.8
		c1.5,7.7,6,14.2,12.3,18.5c-0.1,0-0.3,0-0.4,0c-4.5,0-8.2,3-9.4,7.2C4,75.6,3,69.4,3,63C3,60.6,3.2,58.2,3.4,55.8z"/>
	<path class="st0" d="M86.6,76.1c0-7.5-6.1-13.6-13.6-13.6s-13.6,6.1-13.6,13.6S65.5,89.7,73,89.7S86.6,83.6,86.6,76.1z M62.5,76.1
		c0-5.8,4.7-10.6,10.6-10.6s10.6,4.7,10.6,10.6S78.9,86.7,73,86.7S62.5,81.9,62.5,76.1z"/>
	<path class="st0" d="M78.3,76.1c0-2.9-2.3-5.2-5.2-5.2c-2.9,0-5.2,2.3-5.2,5.2s2.3,5.2,5.2,5.2C75.9,81.3,78.3,79,78.3,76.1z
		 M70.8,76.1c0-1.2,1-2.2,2.2-2.2c1.2,0,2.2,1,2.2,2.2s-1,2.2-2.2,2.2C71.8,78.3,70.8,77.3,70.8,76.1z"/>
	<path class="st0" d="M96.1,26.6c-7.7,0-14,6.3-14,14s6.3,14,14,14s14-6.3,14-14S103.8,26.6,96.1,26.6z M96.1,51.6
		c-6.1,0-11-4.9-11-11s4.9-11,11-11s11,4.9,11,11S102.1,51.6,96.1,51.6z"/>
	<path class="st0" d="M96.1,35.2c-3,0-5.4,2.4-5.4,5.4s2.4,5.4,5.4,5.4s5.4-2.4,5.4-5.4S99,35.2,96.1,35.2z M96.1,43
		c-1.3,0-2.4-1.1-2.4-2.4s1.1-2.4,2.4-2.4s2.4,1.1,2.4,2.4S97.4,43,96.1,43z"/>
	<path class="st0" d="M31.9,108.9c5.1,0,9.2-4.1,9.2-9.2s-4.1-9.2-9.2-9.2s-9.2,4.1-9.2,9.2S26.9,108.9,31.9,108.9z M31.9,93.5
		c3.4,0,6.2,2.8,6.2,6.2s-2.8,6.2-6.2,6.2s-6.2-2.8-6.2-6.2S28.5,93.5,31.9,93.5z"/>
	<path class="st0" d="M31.9,103.6c2.1,0,3.9-1.7,3.9-3.9s-1.7-3.9-3.9-3.9s-3.9,1.7-3.9,3.9S29.8,103.6,31.9,103.6z M31.9,98.8
		c0.5,0,0.9,0.4,0.9,0.9s-0.4,0.9-0.9,0.9c-0.5,0-0.9-0.4-0.9-0.9S31.4,98.8,31.9,98.8z"/>
	<path class="st0" d="M100.3,103.4c4.6,0,8.3-3.7,8.3-8.3c0-4.6-3.7-8.3-8.3-8.3c-4.6,0-8.3,3.7-8.3,8.3
		C91.9,99.7,95.7,103.4,100.3,103.4z M100.3,89.8c2.9,0,5.3,2.4,5.3,5.3c0,2.9-2.4,5.3-5.3,5.3s-5.3-2.4-5.3-5.3
		C94.9,92.2,97.3,89.8,100.3,89.8z"/>
	<path class="st0" d="M100.3,98.7c2,0,3.6-1.6,3.6-3.6s-1.6-3.6-3.6-3.6s-3.6,1.6-3.6,3.6S98.3,98.7,100.3,98.7z M100.3,94.5
		c0.3,0,0.6,0.3,0.6,0.6s-0.3,0.6-0.6,0.6c-0.3,0-0.6-0.3-0.6-0.6S99.9,94.5,100.3,94.5z"/>
	<path class="st0" d="M31.8,71.7c11.8,0,21.5-9.6,21.5-21.4s-9.6-21.5-21.5-21.5c-11.8,0-21.4,9.6-21.4,21.5S20,71.7,31.8,71.7z
		 M31.8,31.8c10.2,0,18.5,8.3,18.5,18.5S42,68.7,31.8,68.7c-10.2,0-18.4-8.3-18.4-18.4S21.7,31.8,31.8,31.8z"/>
	<path class="st0" d="M31.8,64.3c7.7,0,14-6.3,14-14c0-7.7-6.3-14-14-14c-7.7,0-14,6.3-14,14C17.8,58,24.1,64.3,31.8,64.3z
		 M31.8,39.3c6.1,0,11,4.9,11,11c0,6.1-4.9,11-11,11c-6.1,0-11-4.9-11-11C20.8,44.2,25.8,39.3,31.8,39.3z"/>
	<path class="st0" d="M31.8,56.8c3.6,0,6.5-2.9,6.5-6.5s-2.9-6.5-6.5-6.5s-6.5,2.9-6.5,6.5S28.2,56.8,31.8,56.8z M31.8,46.8
		c1.9,0,3.5,1.6,3.5,3.5s-1.6,3.5-3.5,3.5s-3.5-1.6-3.5-3.5S29.9,46.8,31.8,46.8z"/>
	<path class="st0" d="M110.2,77.8c3.5,0,6.3-2.8,6.3-6.3s-2.8-6.3-6.3-6.3s-6.3,2.8-6.3,6.3S106.7,77.8,110.2,77.8z M110.2,68.3
		c1.8,0,3.3,1.5,3.3,3.3s-1.5,3.3-3.3,3.3s-3.3-1.5-3.3-3.3S108.4,68.3,110.2,68.3z"/>
	<path class="st0" d="M50.7,21.4c3.5,0,6.3-2.8,6.3-6.3s-2.8-6.3-6.3-6.3s-6.3,2.8-6.3,6.3S47.2,21.4,50.7,21.4z M50.7,11.9
		c1.8,0,3.3,1.5,3.3,3.3s-1.5,3.3-3.3,3.3s-3.3-1.5-3.3-3.3S48.9,11.9,50.7,11.9z"/>
</g>
</svg>
