<svg xmlns="http://www.w3.org/2000/svg" width="30.645" height="27.57" viewBox="0 0 30.645 27.57">
  <path id="Dimond" d="M92.02-39.422a.3.3,0,0,0,.048-.027.652.652,0,0,0,.16-.126.349.349,0,0,1,.049-.039l14.7-18.564a.387.387,0,0,1,.027-.059.2.2,0,0,1,.026-.03.134.134,0,0,1,.012-.047.607.607,0,0,0,.053-.22.238.238,0,0,1,0-.05.605.605,0,0,0-.079-.3.206.206,0,0,1-.016-.041l-4.894-7.72a.623.623,0,0,1-.092-.078.615.615,0,0,0-.442-.213h-19.6a.637.637,0,0,0-.31.086c-.011.011-.038.036-.062.064a.225.225,0,0,1-.029.025.59.59,0,0,0-.136.127l-4.889,7.714c0,.009-.008.018-.013.027h0a.627.627,0,0,0-.081.278c0,.014,0,.04.006.065a.609.609,0,0,0,.052.225.348.348,0,0,1,.012.047.242.242,0,0,1,.034.042l.02.045,14.7,18.571a.179.179,0,0,1,.053.043.631.631,0,0,0,.151.122c.019.011.039.02.058.029a.609.609,0,0,0,.244.06A.628.628,0,0,0,92.02-39.422ZM105-57.7,93.518-43.191a.153.153,0,0,1-.118.057.143.143,0,0,1-.066-.016.148.148,0,0,1-.079-.171l3.623-14.51a.15.15,0,0,1,.145-.114h7.86a.15.15,0,0,1,.135.085A.151.151,0,0,1,105-57.7Zm-3.433-7.311a.149.149,0,0,1,.127.069l3.5,5.519a.148.148,0,0,1,0,.153.149.149,0,0,1-.132.077h-6.98a.148.148,0,0,1-.131-.077.15.15,0,0,1,0-.153l3.48-5.519A.152.152,0,0,1,101.567-65.012Zm-8.39-.674h6.992a.153.153,0,0,1,.132.077.152.152,0,0,1-.005.153l-3.488,5.52a.153.153,0,0,1-.127.07.152.152,0,0,1-.127-.07l-3.5-5.52a.148.148,0,0,1-.005-.153A.151.151,0,0,1,93.177-65.686Zm-1.41.674a.149.149,0,0,1,.126.069l3.5,5.519a.148.148,0,0,1,.005.153.149.149,0,0,1-.131.077H88.28a.152.152,0,0,1-.132-.077.152.152,0,0,1,0-.153l3.487-5.519A.149.149,0,0,1,91.767-65.012Zm-8.39-.674h6.992a.151.151,0,0,1,.132.077.152.152,0,0,1,0,.153L87-59.937a.15.15,0,0,1-.127.07.15.15,0,0,1-.127-.07L83.25-65.456a.152.152,0,0,1,0-.153A.151.151,0,0,1,83.377-65.686ZM78.34-59.27a.148.148,0,0,1,.005-.153l3.495-5.52a.156.156,0,0,1,.254,0l3.5,5.52a.152.152,0,0,1,0,.153.152.152,0,0,1-.132.077H78.472A.149.149,0,0,1,78.34-59.27ZM90.218-43.15a.147.147,0,0,1-.067.016.149.149,0,0,1-.117-.057L78.549-57.7a.151.151,0,0,1-.018-.159.149.149,0,0,1,.135-.085h7.86a.151.151,0,0,1,.146.114L90.3-43.321A.15.15,0,0,1,90.218-43.15Zm1.413,0-3.654-14.61A.153.153,0,0,1,88-57.887a.148.148,0,0,1,.118-.058h7.306a.149.149,0,0,1,.118.058.152.152,0,0,1,.027.129l-3.652,14.61a.151.151,0,0,1-.146.114A.15.15,0,0,1,91.631-43.148Z" transform="translate(-76.453 66.935)" fill="#ff595c"/>
</svg>
