<svg xmlns="http://www.w3.org/2000/svg" width="43.426" height="25.431" viewBox="0 0 43.426 25.431">
  <path id="Hands" d="M73.373-27.215a.646.646,0,0,0-.827-.387L66.234-25.31a.644.644,0,0,0-.384.824l.18.5-1.817.408c-1.238-.578-6.753-2.973-9.788-1.267a6.534,6.534,0,0,0-1,.635,16.287,16.287,0,0,0-5.147-.152l.046-.126a.646.646,0,0,0-.387-.824L41.627-27.6a.644.644,0,0,0-.493.022.638.638,0,0,0-.266.232H40.79v.165L35.423-12.409a.645.645,0,0,0,.387.824l6.305,2.293a.635.635,0,0,0,.493-.022.64.64,0,0,0,.333-.363l.276-.763A88.526,88.526,0,0,0,55.465-2.562a.69.69,0,0,0,.142.051,2.505,2.505,0,0,0,1.177.3,2.549,2.549,0,0,0,.529-.056A2.52,2.52,0,0,0,59.3-4.62l.914.586a2.5,2.5,0,0,0,1.867.344,2.491,2.491,0,0,0,1.952-2.684,2.357,2.357,0,0,0,.605-.055,2.5,2.5,0,0,0,1.587-1.094,2.506,2.506,0,0,0,.379-1.73h.008a2.485,2.485,0,0,0,1.932-.926l2.3-.548.382,1.053a.645.645,0,0,0,.824.384l6.312-2.293a.64.64,0,0,0,.422-.645l.028-.014ZM46.9-24.321l-4.941,13.6-5.1-1.853,4.941-13.6ZM66.857-10.567h0a1.253,1.253,0,0,1-.93-.174L60.992-13.9a.645.645,0,0,0-.888.194.642.642,0,0,0-.087.485.634.634,0,0,0,.282.4l4.49,2.876a1.245,1.245,0,0,1,.364,1.717,1.239,1.239,0,0,1-1.667.393l-5.011-3.213a.656.656,0,0,0-.485-.087.64.64,0,0,0-.405.282.644.644,0,0,0,.2.888l4.432,2.838a1.2,1.2,0,0,1,.27,1.676,1.2,1.2,0,0,1-1.567.34L56.033-8.237a.646.646,0,0,0-.889.2.643.643,0,0,0,.2.888l2.018,1.294a.788.788,0,0,0,.114.1,1.233,1.233,0,0,1,.439,1.688,1.237,1.237,0,0,1-1.685.44c-.033-.02-.066-.041-.106-.069a.627.627,0,0,0-.216-.088A88.18,88.18,0,0,1,43.683-11.71l4.089-11.256a14.286,14.286,0,0,1,4.454-.131,8.267,8.267,0,0,0-1.961,4.041l0,.036a2.252,2.252,0,0,0,1.475,2.758,2.349,2.349,0,0,0,.709.109A3.194,3.194,0,0,0,55.3-18.544c.28-.671,1.31-.82,1.713-.853l10.259,6.574a1.243,1.243,0,0,1,.361,1.72A1.233,1.233,0,0,1,66.857-10.567ZM57.483-20.613a.673.673,0,0,0-.109-.044.436.436,0,0,0-.112-.023l-.074-.012c-.1,0-2.379.019-3.074,1.635l-.011.032c-.491,1.337-1.35,1.733-1.985,1.536a.946.946,0,0,1-.56-.468.964.964,0,0,1-.05-.77l.016-.068a7.063,7.063,0,0,1,3.411-4.865l.032.009.086-.076c2.758-1.533,8.732,1.366,8.778,1.39l.071.033h.02a.662.662,0,0,0,.215.04.667.667,0,0,0,.143-.015l2.2-.494,3.931,10.824-1.28.306A2.512,2.512,0,0,0,67.979-13.9l-10.443-6.69Zm19.836,8.038-5.1,1.854-4.939-13.6,5.1-1.853Z" transform="translate(-35.385 27.641)" fill="#ff595c"/>
</svg>
