<?xml version="1.0" encoding="UTF-8"?>
<svg id="Layer_1" data-name="Layer 1" xmlns="http://www.w3.org/2000/svg" version="1.1" viewBox="0 0 23 26">
  <defs>
    <style>
      .cls-1 {
        fill: #ff595c;
      }

      .cls-1, .cls-2 {
        stroke-width: 0px;
      }

      .cls-2 {
        fill: #fff;
      }
    </style>
  </defs>
  <g id="HomeCarouselArrowRight">
    <path class="cls-1" d="M22,25.5c0,0,.2,0,.3,0,.2,0,.2-.3.2-.4V1c0-.2,0-.3-.2-.4,0,0-.2,0-.3,0s-.2,0-.2,0L.8,12.6c-.2,0-.3.3-.3.4s0,.3.3.4l21,12c0,0,.2,0,.2,0Z"/>
    <path class="cls-2" d="M22,1v24S1,13,1,13L22,1M22,0c-.2,0-.3,0-.5.1L.5,12.1C.2,12.3,0,12.6,0,13s.2.7.5.9l21,12c.2,0,.3.1.5.1s.3,0,.5-.1c.3-.2.5-.5.5-.9V1c0-.4-.2-.7-.5-.9C22.3,0,22.2,0,22,0h0Z"/>
  </g>
</svg>