<?xml version="1.0" encoding="UTF-8"?>
<svg id="Layer_1" data-name="Layer 1" xmlns="http://www.w3.org/2000/svg" version="1.1" viewBox="0 0 23 26">
  <defs>
    <style>
      .cls-1 {
        fill: #ff595c;
      }

      .cls-1, .cls-2 {
        stroke-width: 0px;
      }

      .cls-2 {
        fill: #fff;
      }
    </style>
  </defs>
  <g id="HomeCarouselArrowRight">
    <path class="cls-1" d="M1,25.5c0,0-.2,0-.3,0-.2,0-.2-.3-.2-.4V1c0-.2,0-.3.2-.4,0,0,.2,0,.3,0s.2,0,.2,0l21,12c.2,0,.3.3.3.4s0,.3-.3.4L1.2,25.4c0,0-.2,0-.2,0Z"/>
    <path class="cls-2" d="M1,1l21,12L1,25V1M1,0c-.2,0-.3,0-.5.1-.3.2-.5.5-.5.9v24c0,.4.2.7.5.9.2,0,.3.1.5.1s.3,0,.5-.1l21-12c.3-.2.5-.5.5-.9s-.2-.7-.5-.9L1.5.1c-.2,0-.3-.1-.5-.1h0Z"/>
  </g>
</svg>