<svg xmlns="http://www.w3.org/2000/svg" xmlns:xlink="http://www.w3.org/1999/xlink" width="29.424" height="31.579" viewBox="0 0 29.424 31.579">
  <defs>
    <clipPath id="clip-path">
      <rect id="Rectangle_716" data-name="Rectangle 716" width="29.424" height="31.579" fill="#ff595c"/>
    </clipPath>
  </defs>
  <g id="Group_1894" data-name="Group 1894" transform="translate(0)">
    <g id="Group_1893" data-name="Group 1893" transform="translate(0)" clip-path="url(#clip-path)">
      <path id="Path_513" data-name="Path 513" d="M.652,11.555,2.112,11A1.022,1.022,0,0,1,2.734,9.81L15.883,4.793a1.019,1.019,0,0,1,.644-1.013L26.313.045a.671.671,0,0,1,.869.387l2.2,5.75a.683.683,0,0,1-.014.515.672.672,0,0,1-.376.354l-9.775,3.732a1.013,1.013,0,0,1-.789-.021,1,1,0,0,1-.383-.3l-1.522.584a3.45,3.45,0,0,1,.044.431,3.439,3.439,0,0,1-1.2,2.595l9.386,16.5a.674.674,0,1,1-1.172.667L19.74,24.481H13.787v3.647a.674.674,0,0,1-1.349,0V24.481H6.485L2.638,31.238a.674.674,0,0,1-1.172-.667l9.393-16.5a3.478,3.478,0,0,1-.589-.64L4.9,15.476a1.01,1.01,0,0,1-1.257-.461l-1.462.558a1.017,1.017,0,0,1-1.31-.584L.068,12.867a1.018,1.018,0,0,1,.584-1.312ZM13.788,23.134h5.185l-4.775-8.4a3.009,3.009,0,0,1-.41.123Zm-.678-9.553A2.107,2.107,0,1,0,11,11.476a2.109,2.109,0,0,0,2.105,2.105M7.253,23.134h5.186V14.862a3.527,3.527,0,0,1-.407-.122ZM3.605,11.149a.008.008,0,0,1,0,0l1.052,2.753a.016.016,0,0,0,0,.007l.072.186,5-1.907a3.444,3.444,0,0,1,6.36-2.43l1.427-.546-.441-1.156a.674.674,0,1,1,1.258-.482l.683,1.787.015.04,8.843-3.373-1.716-4.49L17.326,4.917l.016.04c0,.005,0,.012,0,.016l.33.865a.677.677,0,0,1-.389.872.713.713,0,0,1-.241.043.676.676,0,0,1-.63-.432l-.095-.251L3.528,10.95ZM2.018,14.193l1.142-.436-.572-1.5L1.446,12.7Z" transform="translate(0 0)" fill="#ff595c"/>
    </g>
  </g>
</svg>
