<svg xmlns="http://www.w3.org/2000/svg" xmlns:xlink="http://www.w3.org/1999/xlink" width="26.528" height="24.729" viewBox="0 0 26.528 24.729">
  <defs>
    <clipPath id="clip-path">
      <rect id="Rectangle_725" data-name="Rectangle 725" width="26.528" height="24.729" fill="#ff595c"/>
    </clipPath>
  </defs>
  <g id="Group_1896" data-name="Group 1896" clip-path="url(#clip-path)">
    <path id="Path_519" data-name="Path 519" d="M22.7,3.39a.53.53,0,0,0,0-1.061,2.365,2.365,0,0,0-2.358,2.358,2.8,2.8,0,0,0,2.8,2.8,3.409,3.409,0,0,0,3.39-3.39,4.088,4.088,0,0,0-4.1-4.1H4.126A4.139,4.139,0,0,0,0,4.127a3.409,3.409,0,0,0,3.39,3.39,2.8,2.8,0,0,0,2.8-2.8A2.365,2.365,0,0,0,3.832,2.358a.53.53,0,0,0,0,1.061A1.321,1.321,0,0,1,5.158,4.745,1.774,1.774,0,0,1,3.389,6.514,2.365,2.365,0,0,1,1.031,4.156,3.082,3.082,0,0,1,4.1,1.09a3.95,3.95,0,0,1,3.95,3.95c0,2.653-1.71,4.009-5.07,4.009a.53.53,0,1,0,0,1.061H5.364V24.2a.53.53,0,0,0,1.061,0V10.051H8.341V24.14a.53.53,0,1,0,1.061,0V10.051h1.916V24.14a.53.53,0,1,0,1.061,0V10.051H14.3V24.14a.53.53,0,1,0,1.061,0V10.051h1.916V24.14a.53.53,0,1,0,1.061,0V10.051h1.916V24.14a.53.53,0,1,0,1.061,0V10.051h2.358a.53.53,0,1,0,0-1.061c-3.36,0-5.07-1.356-5.07-4.009a3.95,3.95,0,0,1,3.95-3.95A3.082,3.082,0,0,1,25.614,4.1a2.365,2.365,0,0,1-2.358,2.358,1.774,1.774,0,0,1-1.769-1.769A1.153,1.153,0,0,1,22.7,3.39ZM17.42,5.011a4.626,4.626,0,0,0,1.945,4.009H7.163A4.626,4.626,0,0,0,9.108,5.011a5,5,0,0,0-1.975-3.95H19.454a4.885,4.885,0,0,0-2.034,3.95Z" fill="#ff595c"/>
  </g>
</svg>
