<svg xmlns="http://www.w3.org/2000/svg" xmlns:xlink="http://www.w3.org/1999/xlink" width="36.185" height="36.174" viewBox="0 0 36.185 36.174">
  <defs>
    <clipPath id="clip-path">
      <rect id="Rectangle_714" data-name="Rectangle 714" width="36.185" height="36.174" fill="#ff595c" stroke="#ff595c" stroke-width="0.1"/>
    </clipPath>
  </defs>
  <g id="Group_1889" data-name="Group 1889" clip-path="url(#clip-path)">
    <path id="Path_493" data-name="Path 493" d="M115.983,28.013a.487.487,0,0,0,.078-.006l5.842-1a.464.464,0,0,0,.25-.129L142.4,6.668A3.9,3.9,0,0,0,139.632,0h0a3.88,3.88,0,0,0-2.766,1.143l-20.214,20.24a.461.461,0,0,0-.129.248l-1,5.841h0a.463.463,0,0,0,.457.541Zm18.48-23.159,1.762-1.765,4.218,4.218-1.765,1.762Zm.15,1.461-16.168,16.2-.811-.811,16.174-16.2Zm.656.656,1.293,1.293-16.2,16.169L119.1,23.173Zm1.949,1.949.805.805L121.825,25.9l-.811-.811ZM139.631.926h0a2.978,2.978,0,0,1,2.108,5.087h0l-.641.639L136.88,2.433l.64-.635h0a2.957,2.957,0,0,1,2.11-.871ZM117.285,22.669l3.578,3.578-4.313.735Z" transform="translate(-107.358 0)" fill="#ff595c" stroke="#ff595c" stroke-width="0.1"/>
    <path id="Path_494" data-name="Path 494" d="M47.7,425.844l-1.95,1.95a.464.464,0,0,0,.656.656l1.95-1.95h0a.464.464,0,1,0-.655-.656Z" transform="translate(-42.395 -395.632)" fill="#ff595c" stroke="#ff595c" stroke-width="0.1"/>
    <path id="Path_495" data-name="Path 495" d="M230.075,430.954l-2.029-2.029a.464.464,0,1,0-.656.656l2.029,2.029a.464.464,0,0,0,.656-.656Z" transform="translate(-211.199 -398.495)" fill="#ff595c" stroke="#ff595c" stroke-width="0.1"/>
    <path id="Path_496" data-name="Path 496" d="M43.577,245.769a.464.464,0,0,0,.656-.656L42.2,243.084a.464.464,0,0,0-.656.656Z" transform="translate(-38.489 -225.786)" fill="#ff595c" stroke="#ff595c" stroke-width="0.1"/>
    <path id="Path_497" data-name="Path 497" d="M151.076,459.008a.464.464,0,0,0-.452.475l.072,2.817h0a.464.464,0,0,0,.464.452h.012a.464.464,0,0,0,.452-.475l-.072-2.817h0A.464.464,0,0,0,151.076,459.008Z" transform="translate(-139.982 -426.579)" fill="#ff595c" stroke="#ff595c" stroke-width="0.1"/>
    <path id="Path_498" data-name="Path 498" d="M.452,348.158l2.817.072h.012a.464.464,0,0,0,.012-.927l-2.817-.072h0a.464.464,0,1,0-.024.927Z" transform="translate(0 -322.699)" fill="#ff595c" stroke="#ff595c" stroke-width="0.1"/>
  </g>
</svg>
