<svg xmlns="http://www.w3.org/2000/svg" width="30" height="30" viewBox="0 0 30 30">
  <path id="instagram" d="M15,30a15,15,0,1,1,10.6-4.4A15,15,0,0,1,15,30Zm.148-22.8c-2.128,0-2.421,0-3.277.049a5.841,5.841,0,0,0-1.928.373,3.784,3.784,0,0,0-1.412.916,3.848,3.848,0,0,0-.916,1.408,5.766,5.766,0,0,0-.365,1.926c-.045.856-.049,1.148-.049,3.275s0,2.422.049,3.286a5.789,5.789,0,0,0,.365,1.923,4.047,4.047,0,0,0,2.328,2.325,5.945,5.945,0,0,0,1.928.373c.856.045,1.149.049,3.277.049s2.424,0,3.278-.049a5.958,5.958,0,0,0,1.931-.373,4.047,4.047,0,0,0,2.325-2.325,5.646,5.646,0,0,0,.369-1.923c.043-.864.049-1.157.049-3.286s-.006-2.419-.049-3.275a5.663,5.663,0,0,0-.369-1.926,4.046,4.046,0,0,0-2.325-2.324,5.854,5.854,0,0,0-1.931-.373c-.852-.043-1.145-.049-3.276-.049Zm0,14.467c-2.14,0-2.39-.01-3.212-.043a4.55,4.55,0,0,1-1.473-.273,2.521,2.521,0,0,1-.916-.594,2.493,2.493,0,0,1-.6-.916,4.608,4.608,0,0,1-.269-1.479c-.045-.859-.049-1.131-.049-3.215s0-2.347.049-3.2a4.6,4.6,0,0,1,.269-1.48,2.469,2.469,0,0,1,.6-.916,2.656,2.656,0,0,1,.916-.594,4.5,4.5,0,0,1,1.473-.273c.824-.034,1.072-.043,3.212-.043s2.391.009,3.213.043a4.552,4.552,0,0,1,1.475.273,2.521,2.521,0,0,1,.916.594,2.453,2.453,0,0,1,.6.916,4.466,4.466,0,0,1,.267,1.48c.045.858.051,1.129.051,3.2s-.006,2.356-.051,3.215a4.474,4.474,0,0,1-.267,1.479,2.477,2.477,0,0,1-.6.916,2.521,2.521,0,0,1-.916.594,4.606,4.606,0,0,1-1.475.273c-.818.035-1.068.045-3.211.045Zm0-10.748a4.233,4.233,0,1,0,4.229,4.236v-.008a4.235,4.235,0,0,0-4.227-4.226Zm4.264-.951a1.461,1.461,0,1,0,.006,0h0ZM15.148,17.9a2.745,2.745,0,1,1,2.75-2.75,2.746,2.746,0,0,1-2.75,2.75Z" transform="translate(0.002 -0.002)" fill="#ff595c"/>
</svg>
