<svg xmlns="http://www.w3.org/2000/svg" width="127.002" height="127.002" viewBox="0 0 127.002 127.002">
  <path id="IP" d="M16823,10202a63,63,0,1,1,63,63A63.072,63.072,0,0,1,16823,10202Zm33.09,14.267c3.221,24.846,14.645,43.536,28.41,44.808v-48.3A122.69,122.69,0,0,0,16856.088,10216.268Zm31.414,44.8c5.963-.553,11.629-4.4,16.52-11.234a19.613,19.613,0,0,1,4.832-35.092,128.846,128.846,0,0,0-21.352-1.966Zm-12.014-.013c-10.969-6.606-19.48-23.251-22.3-44-9.086,2.62-16.449,6.329-20.959,10.821l-.65-.655A60.169,60.169,0,0,0,16875.488,10261.059Zm21.082-.009a59.625,59.625,0,0,0,21.271-8.23,19.858,19.858,0,0,1-3.041.259,19.508,19.508,0,0,1-8.137-1.786A34.182,34.182,0,0,1,16896.57,10261.05Zm1.6-27.6a16.632,16.632,0,1,0,16.631-16.632A16.65,16.65,0,0,0,16898.17,10233.448Zm36.262,0a19.611,19.611,0,0,1-.6,4.722,60.279,60.279,0,0,0,6.59-10.949l-.656.655a36.132,36.132,0,0,0-9.512-6.487A19.524,19.524,0,0,1,16934.432,10233.448Zm-15.262-19.38c9.455,2.68,17.215,6.5,22.152,11.148a59.6,59.6,0,0,0,4.637-21.719h-26.16C16919.752,10207.028,16919.543,10210.567,16919.17,10214.068Zm-88.492,11.148c4.938-4.641,12.691-8.469,22.143-11.148-.369-3.433-.578-6.963-.625-10.57h-26.154A59.519,59.519,0,0,0,16830.678,10225.217Zm25.07-11.927a125.428,125.428,0,0,1,28.75-3.509v-6.283h-29.3C16855.242,10206.837,16855.424,10210.108,16855.748,10213.29Zm31.754-3.509a125.522,125.522,0,0,1,28.732,3.5c.332-3.241.523-6.517.566-9.788h-29.3Zm31.676-19.848c.371,3.428.578,6.963.625,10.565h26.156a59.6,59.6,0,0,0-4.637-21.715C16936.385,10183.425,16928.629,10187.249,16919.178,10189.934Zm-31.676,4.283v6.282h29.3c-.047-3.339-.23-6.609-.549-9.787A125.51,125.51,0,0,1,16887.5,10194.217Zm-32.307,6.282h29.3v-6.282a125.435,125.435,0,0,1-28.75-3.5C16855.424,10193.89,16855.242,10197.16,16855.2,10200.5Zm-29.154,0h26.154c.047-3.6.256-7.138.625-10.565-9.451-2.685-17.205-6.509-22.143-11.149A59.524,59.524,0,0,0,16826.041,10200.5Zm61.461-9.281a122.673,122.673,0,0,0,28.41-3.483c-3.221-24.846-14.643-43.536-28.41-44.808Zm-31.414-3.483a122.646,122.646,0,0,0,28.41,3.483v-48.291C16870.732,10144.2,16859.309,10162.889,16856.088,10187.734Zm62.729-.787c9.086-2.62,16.445-6.334,20.953-10.821l.656.655a60.178,60.178,0,0,0-43.916-33.838C16907.48,10149.549,16915.992,10166.193,16918.816,10186.947Zm-65.629,0c2.82-20.754,11.332-37.4,22.3-44a60.169,60.169,0,0,0-43.91,33.838l.65-.655C16836.738,10180.613,16844.1,10184.327,16853.188,10186.947Zm58.082,57.463a3,3,0,0,1-2.861-3.9l1.709-5.475a7.154,7.154,0,1,1,9.746-10.464c.037.038.076.081.115.123a7.17,7.17,0,0,1,1.164,8.235l-.012.029c-.029.06-.061.119-.094.175a7.206,7.206,0,0,1-1.557,1.9l1.709,5.475a3,3,0,0,1-2.861,3.9Zm.6-17.713a4.16,4.16,0,0,0-1.207,2.936,4.072,4.072,0,0,0,.48,1.952,4.154,4.154,0,0,0,1.289,1.455,1.813,1.813,0,0,1,.8,2.1l-1.961,6.271h7.059l-1.961-6.271a1.807,1.807,0,0,1,.73-2.05,4.335,4.335,0,0,0,1.328-1.421l.033-.085a4.1,4.1,0,0,0,.484-1.957,4.148,4.148,0,0,0-7.078-2.931ZM16917.74,10226.7Z" transform="translate(-16822.498 -10138.5)" fill="#ff595c" stroke="rgba(0,0,0,0)" stroke-miterlimit="10" stroke-width="1"/>
</svg>
