<svg xmlns="http://www.w3.org/2000/svg" width="69.812" height="70.318" viewBox="0 0 69.812 70.318">
  <g id="Group_1701" data-name="Group 1701" transform="translate(-944.001 -2874.681)">
    <path id="Path_400" data-name="Path 400" d="M1158.9,99.972l-.453,1.69.5-.287a33.588,33.588,0,0,1-28.01,48.88v-.6l-1.239,1.239,1.239,1.237v-.554a34.908,34.908,0,0,0,29.152-50.862l.5-.29Z" transform="translate(-150.168 2792.869)" fill="#ff595c"/>
    <path id="Path_401" data-name="Path 401" d="M1125.295,94.585a34.754,34.754,0,0,0-12.157,11.733l-.455-.263.453,1.692,1.69-.453-.543-.314a33.59,33.59,0,0,1,56.691-.364l-.5.287,1.692.453.453-1.69-.5.29a34.9,34.9,0,0,0-46.822-11.371" transform="translate(-163.84 2784.778)" fill="#ff595c"/>
    <path id="Path_402" data-name="Path 402" d="M1113.692,100.928a34.9,34.9,0,0,0,29.783,50.492v.536l1.237-1.237-1.237-1.237v.619a33.582,33.582,0,0,1-28.639-48.51l.5.29-.454-1.69-1.688.451Z" transform="translate(-165.996 2793.044)" fill="#ff595c"/>
    <path id="Path_403" data-name="Path 403" d="M1140.717,134.081a14.913,14.913,0,1,0-14.913-14.913,14.913,14.913,0,0,0,14.913,14.913" transform="translate(-153.297 2796.31)" fill="#ff595c" opacity="0.598"/>
    <path id="Path_404" data-name="Path 404" d="M1131.612,134.081a14.913,14.913,0,1,0-14.913-14.913,14.913,14.913,0,0,0,14.913,14.913" transform="translate(-160.613 2796.31)" fill="#0e1b2c" opacity="0.598"/>
    <path id="Path_405" data-name="Path 405" d="M1136.154,124.859a14.913,14.913,0,1,0-14.913-14.913,14.913,14.913,0,0,0,14.913,14.913" transform="translate(-156.963 2788.9)" fill="#0e1b2c" opacity="0.598"/>
  </g>
</svg>
