<svg xmlns="http://www.w3.org/2000/svg" width="30" height="30" viewBox="0 0 30 30">
  <path id="LinkedIn" d="M15,0a15,15,0,0,0-15,15H0A15,15,0,0,0,15,30h0a15,15,0,0,0,15-15h0A15,15,0,0,0,15,0ZM11.022,22.183H8.036v-9.6h2.986ZM9.528,11.273a1.731,1.731,0,0,1,0-3.461h0a1.731,1.731,0,0,1,0,3.461ZM22.2,22.188H19.217V17.519c0-1.114-.022-2.547-1.551-2.547-1.553,0-1.79,1.213-1.79,2.466v4.75H12.893v-9.6h2.862V13.9H15.8a3.134,3.134,0,0,1,2.823-1.551c3.021,0,3.579,1.988,3.579,4.575Z" transform="translate(0 0.005)" fill="#ff595c"/>
</svg>
