<svg xmlns="http://www.w3.org/2000/svg" width="32.922" height="36.645" viewBox="0 0 32.922 36.645">
  <path id="Lion" d="M300.381,21053.27c-1.612-2.283-6.267-3.609-6.79-3.752a.627.627,0,0,1-.259-1.084l.9-.76c-3.836-.746-5.749-4.951-5.833-5.137a.631.631,0,0,1,.19-.75l1.643-1.258a9.735,9.735,0,0,1-4.761-3.408.632.632,0,0,1-.085-.564c.38-1.141.93-2.7,1.289-3.736l.079-.221-1.11.158a.808.808,0,0,1-.275-.021.637.637,0,0,1-.365-.307.612.612,0,0,1-.042-.48c1.1-3.523,2.711-5.264,3.926-6.113l-1.358-.57a.624.624,0,0,1-.343-.783,12.241,12.241,0,0,1,2-3.322,8.684,8.684,0,0,1,6.684-3.277,12.071,12.071,0,0,1,5.014,1.238,12.007,12.007,0,0,1,5.009-1.238c6.235,0,8.665,6.531,8.686,6.6a.632.632,0,0,1-.343.787l-1.353.57c1.215.846,2.816,2.584,3.931,6.113a.629.629,0,0,1-.122.592.62.62,0,0,1-.571.211l-1.1-.152c.391,1.119.967,2.773,1.363,3.957a.62.62,0,0,1-.079.561,9.723,9.723,0,0,1-4.766,3.408l1.638,1.262a.616.616,0,0,1,.19.75c-.079.18-1.976,4.387-5.823,5.137l.9.76a.63.63,0,0,1-.254,1.084c-.539.148-5.2,1.484-6.795,3.746a.769.769,0,0,1-.143.148.629.629,0,0,1-.365.115A.623.623,0,0,1,300.381,21053.27Zm-4.105-6.525a.635.635,0,0,1,.153.459.6.6,0,0,1-.217.422l-1.2,1.025a15.161,15.161,0,0,1,5.881,3.281,15.143,15.143,0,0,1,5.876-3.281l-1.2-1.025a.625.625,0,0,1,.444-1.1c3.3.238,5.374-2.934,6-4.068l-2.314-1.787a.626.626,0,0,1,.333-1.119,7.965,7.965,0,0,0,5.078-2.916c-.639-1.883-1.58-4.561-1.59-4.588a.651.651,0,0,1-.032-.285.616.616,0,0,1,.238-.412.663.663,0,0,1,.465-.127v.006l1.12.158c-1.606-4.242-3.931-4.977-4.031-5a.629.629,0,0,1-.412-.348.656.656,0,0,1-.011-.48.63.63,0,0,1,.333-.35l2-.84c-.639-1.375-2.832-5.23-7.286-5.23a10.924,10.924,0,0,0-4.729,1.236.612.612,0,0,1-.549,0,10.933,10.933,0,0,0-4.75-1.236c-4.454,0-6.642,3.852-7.281,5.225l2,.846a.6.6,0,0,1,.354.412.63.63,0,0,1-.449.766c-.1.027-2.42.762-4.021,5l1.115-.152a.629.629,0,0,1,.565.217.62.62,0,0,1,.106.6c-.005.027-.951,2.705-1.6,4.592a8,8,0,0,0,5.088,2.918.6.6,0,0,1,.433.236.628.628,0,0,1-.106.877l-2.32,1.787c.634,1.135,2.711,4.311,6,4.072a.582.582,0,0,1,.058,0A.609.609,0,0,1,296.275,21046.744Zm4.428.344c-2.462-.746-3.921-1.676-4.1-2.627a1.027,1.027,0,0,1,.38-1.02c.026-.021.053-.037.079-.059a4.324,4.324,0,0,1-1.374-3.73c-.011-.453-2.309-2.213-5.268-3.793a.6.6,0,0,1-.328-.551c0-2.023,1.617-4.072,2.737-5.246l-.761.059a.623.623,0,0,1-.623-.629,5.732,5.732,0,0,1,3.45-5.014.62.62,0,0,1,.592.057l1.474,1.057a3.72,3.72,0,0,1,2.79-.316,2.864,2.864,0,0,1,1.131.719,2.888,2.888,0,0,1,1.12-.713,3.718,3.718,0,0,1,2.8.311l1.464-1.051a.631.631,0,0,1,.6-.068,5.723,5.723,0,0,1,3.45,5.014v.049a.629.629,0,0,1-.666.58l-.724-.053c1.12,1.174,2.742,3.223,2.742,5.252a.606.606,0,0,1-.328.545c-2.954,1.584-5.257,3.34-5.268,3.793a4.318,4.318,0,0,1-1.374,3.73.905.905,0,0,1,.074.059,1.025,1.025,0,0,1,.386,1.025c-.18.961-1.6,1.869-4.1,2.621a.571.571,0,0,1-.18.025A.55.55,0,0,1,300.7,21047.088Zm-1.5-3.3a13.02,13.02,0,0,0-1.305.551c.185.232.851.834,2.985,1.5a6.642,6.642,0,0,0,2.985-1.5,12.264,12.264,0,0,0-1.31-.545,10.471,10.471,0,0,1-1.68-.809A10.606,10.606,0,0,1,299.2,21043.789Zm1.686-2.166a.616.616,0,0,1,.354.117,9.046,9.046,0,0,0,1.754.883.915.915,0,0,0,.872-.16,3.23,3.23,0,0,0,.967-2.746,3.536,3.536,0,0,0-.845-2.131,5.183,5.183,0,0,1-.793-5.859,2.653,2.653,0,0,1,1.939-1.568,2.966,2.966,0,0,1,2.267.93.624.624,0,0,1-.032.877.612.612,0,0,1-.66.117,2.752,2.752,0,0,1-1.759.977,1.31,1.31,0,0,1-.37-.043,1.543,1.543,0,0,1-.5-.217,4.033,4.033,0,0,0,.861,3.99,5.071,5.071,0,0,1,.793,1.342,22.44,22.44,0,0,1,4.671-3.18c-.3-2.416-3.44-5.053-3.577-5.164a.635.635,0,0,1-.227-.527.622.622,0,0,1,.217-.428.6.6,0,0,1,.454-.154l1.744.139a4.492,4.492,0,0,0-2.32-3.039l-1.485,1.057a.626.626,0,0,1-.666.037,2.719,2.719,0,0,0-2.145-.412,1.749,1.749,0,0,0-.951.861.619.619,0,0,1-.565.365.627.627,0,0,1-.576-.375,1.786,1.786,0,0,0-.962-.857,2.749,2.749,0,0,0-2.119.412.631.631,0,0,1-.676-.031l-1.485-1.057a4.449,4.449,0,0,0-2.32,3.039l1.744-.139a.626.626,0,0,1,.439,1.109l-.032.027c-.771.666-3.276,2.98-3.545,5.137a22.66,22.66,0,0,1,4.666,3.186,5.121,5.121,0,0,1,.793-1.342,4.027,4.027,0,0,0,.867-3.99,1.563,1.563,0,0,1-.5.217,1.333,1.333,0,0,1-.349.043,2.714,2.714,0,0,1-1.77-.988.619.619,0,0,1-.692-.994,2.974,2.974,0,0,1,2.156-.93h.09a2.656,2.656,0,0,1,1.966,1.574,5.187,5.187,0,0,1-.8,5.859,3.535,3.535,0,0,0-.84,2.119,3.208,3.208,0,0,0,.977,2.764.932.932,0,0,0,.861.154,8.893,8.893,0,0,0,1.754-.889.641.641,0,0,1,.354-.111Zm-4.734-10.2c.343.318.6.434.713.4a.294.294,0,0,0,.122-.047.291.291,0,0,0,0-.1,1,1,0,0,0-.534-.285.42.42,0,0,0-.05,0A1.236,1.236,0,0,0,296.154,21031.42Zm8.618.26a.257.257,0,0,0,0,.09.207.207,0,0,0,.111.047c.122.037.38-.078.729-.4a.8.8,0,0,0-.2-.025A.852.852,0,0,0,304.771,21031.68Zm-4.3,9.785a2.608,2.608,0,0,1-.851-1.125l-.005-.031a1.1,1.1,0,0,0-.38-.734.331.331,0,0,0-.248.016.645.645,0,0,1-.122.031c.011,0-.021.027-.074.027a.409.409,0,0,1-.079,0,.564.564,0,0,1-.143-.025.3.3,0,0,1-.063-.016.75.75,0,0,1-.153-.08.5.5,0,0,1-.063-.053.2.2,0,0,1-.063-.059l-.629-.787a.631.631,0,0,1,.09-.83.676.676,0,0,1,.449-.158.626.626,0,0,1,.428.2,1.226,1.226,0,0,1,.687-.613.841.841,0,0,1,.756.117,1.63,1.63,0,0,0,.867.184,1.707,1.707,0,0,0,.9-.189.811.811,0,0,1,.719-.111,1.229,1.229,0,0,1,.687.613.631.631,0,0,1,.819-.09.625.625,0,0,1,.153.871l-.629.793a.326.326,0,0,1-.063.053.649.649,0,0,1-.074.059.516.516,0,0,1-.137.08.864.864,0,0,1-.1.02.525.525,0,0,1-.106.021,1.007,1.007,0,0,1-.116,0l-.026-.006-.042-.027a.341.341,0,0,1-.09-.025.376.376,0,0,0-.264-.016,1.1,1.1,0,0,0-.38.734l-.005.031a2.618,2.618,0,0,1-.851,1.131.616.616,0,0,1-.4.143A.6.6,0,0,1,300.47,21041.465Zm.37-1.416a.4.4,0,0,0,.042.059.515.515,0,0,0,.037-.059,2.179,2.179,0,0,1,.7-1.332,2.923,2.923,0,0,1-.74.07,3.212,3.212,0,0,1-.729-.07A2.176,2.176,0,0,1,300.84,21040.049Z" transform="translate(-284.429 -21017.383)" fill="#ff595c" stroke="rgba(0,0,0,0)" stroke-miterlimit="10" stroke-width="1"/>
</svg>
