<svg xmlns="http://www.w3.org/2000/svg" xmlns:xlink="http://www.w3.org/1999/xlink" width="38.099" height="37.537" viewBox="0 0 38.099 37.537">
  <defs>
    <clipPath id="clip-path">
      <rect id="Rectangle_743" data-name="Rectangle 743" width="38.099" height="37.537" transform="translate(-3 -2)" fill="none" stroke="#ff595c" stroke-width="1.4"/>
    </clipPath>
  </defs>
  <g id="Group_1956" data-name="Group 1956" transform="translate(3 2)">
    <g id="Group_1955" data-name="Group 1955" transform="translate(0 0)" clip-path="url(#clip-path)">
      <path id="Line_900" data-name="Line 900" d="M0,19.24a.7.7,0,0,1-.494-.2.7.7,0,0,1,0-.99L18-.494a.7.7,0,0,1,.99,0,.7.7,0,0,1,0,.99L.5,19.034A.7.7,0,0,1,0,19.24Z" transform="translate(0.438 10.483)" fill="#ff595c"/>
      <path id="Path_534" data-name="Path 534" d="M21.663,11.26a.765.765,0,0,1-.547-.221c-.576-.578-.027-1.5.268-1.992a24.945,24.945,0,0,1,1.557-2.22C24.767,4.448,27.356,1.507,27.96.9A3.228,3.228,0,0,1,30.235-.2a2.119,2.119,0,0,1,1.981,1.34,2.924,2.924,0,0,1-.822,3.2,15.724,15.724,0,0,1-1.3,1.151c-.181.149-.39.321-.644.532A46.634,46.634,0,0,1,25.182,9.3C22.336,11.26,21.881,11.26,21.663,11.26ZM30.235,1.2a1.993,1.993,0,0,0-1.284.693c-.569.569-3.138,3.492-4.9,5.787-.419.546-.739.988-.985,1.345a49.242,49.242,0,0,0,5.451-4.051l.022-.019c.262-.219.477-.4.663-.548a14.273,14.273,0,0,0,1.2-1.06,1.563,1.563,0,0,0,.518-1.671A.732.732,0,0,0,30.235,1.2Z" transform="translate(-2.674 -0.062)" fill="#ff595c"/>
      <path id="Path_535" data-name="Path 535" d="M33.079,32.975a17.421,17.421,0,0,1-5.873-.857,8.211,8.211,0,0,1-4.649-3.8,6.563,6.563,0,0,1-.511-5.023,14.834,14.834,0,0,1,2.806-5.184,11.324,11.324,0,0,0,2.573-5.191A9.207,9.207,0,0,0,25.3,5.464a8.709,8.709,0,0,0-6.289-3.251A14.314,14.314,0,0,0,11.762,3.35a.7.7,0,0,1-.642-1.244A15.721,15.721,0,0,1,19.206.827a10.066,10.066,0,0,1,7.1,3.673,10.674,10.674,0,0,1,2.5,8.641,12.615,12.615,0,0,1-2.831,5.8A13.51,13.51,0,0,0,23.4,23.661a5.208,5.208,0,0,0,.39,3.984c1.44,2.644,4.48,3.93,9.292,3.93a.7.7,0,1,1,0,1.4Z" transform="translate(-1.419 -0.176)" fill="#ff595c"/>
    </g>
  </g>
</svg>
