<svg xmlns="http://www.w3.org/2000/svg" width="145.638" height="41.003" viewBox="0 0 145.638 41.003">
  <g id="main_logo" transform="translate(0 0.002)">
    <path id="Path_345" data-name="Path 345" d="M34.558,2.412h7.148V2.5c-1.447,1.053-2.631,3.158-3.771,6.1L28.2,33.725h-.088L21.8,18.067,14.647,33.725h-.088L4.429,9.253C2.763,5.262,1.49,3.377,0,2.5V2.411H13.683V2.5c-2.675,1.009-3.465,3.026-2.368,5.7L17.893,24.25l3.377-7.412C16.8,5.567,20.57,0,24.691,0c1.842,0,3.333,1.579,3.333,4.122,0,2.28-1.009,4.473-2.106,6.666l5.175,12.981L37.1,8.2a4.025,4.025,0,0,0-1.779-5.407,3.959,3.959,0,0,0-.765-.293ZM25.436,9.6v.044a12.174,12.174,0,0,0,1.578-5.481c0-2.237-1.227-3.245-2.324-3.245C23.243.921,22.673,2.675,25.436,9.6Z" fill="#0e1b2c"/>
    <path id="Path_346" data-name="Path 346" d="M54.073,27.761c0,2.324.088,4.078,2.325,5.263v.088H47.934V30.48c-1.4,1.184-3.771,2.851-5.745,2.851a5.22,5.22,0,0,1-5.558-4.86c-.008-.12-.012-.239-.012-.359,0-3.246,1.93-4.649,5.745-6.886,4.21-2.5,5.745-3.684,5.745-6.271,0-1.71-.877-3.114-2.544-3.114-2.368,0-6.359,3.421-7.938,4.736l-.087-.088,3.64-4.868a41.09,41.09,0,0,1,7.1-.746c4.342,0,5.789,2.368,5.789,5.131Zm-6.14,0V18.287c-4.166,3.377-5.438,4.693-5.438,8.421,0,2.5,1.623,4.166,2.982,4.166C46.705,30.874,47.933,29.778,47.933,27.761Z" fill="#0e1b2c"/>
    <path id="Path_347" data-name="Path 347" d="M57.58,33.023c2.237-1.184,2.324-2.938,2.324-5.263v-20c0-2.324-.088-4.078-2.324-5.263V2.409h8.552V27.76c0,2.324.088,4.078,2.324,5.263v.088H57.58Z" fill="#0e1b2c"/>
    <path id="Path_348" data-name="Path 348" d="M77.885,33.111V35.65c0,2.324.088,4.078,2.325,5.263V41H69.333v-.088c2.237-1.184,2.324-2.938,2.324-5.263V16.533c0-2.324-.088-4.078-2.324-5.263v-.088H79.507c6.316,0,10.92,3.158,10.92,10.306,0,8.245-6.184,11.622-11.534,11.622Zm0-21.1V32.15h1.228c2.718,0,4.911-1.009,4.911-7.455,0-7.017-2.763-12.674-6.052-12.674Z" fill="#0e1b2c"/>
    <path id="Path_349" data-name="Path 349" d="M92.751,22.235c0-7.587,5.657-11.447,10.613-11.447a10.945,10.945,0,0,1,10.75,11.136q0,.111-.006.222c0,7.587-5.657,11.447-10.657,11.447A10.938,10.938,0,0,1,92.745,22.428Zm14.867,2.456c0-7.28-2.631-12.981-5.307-12.981-1.447,0-3.07,2.587-3.07,7.982,0,7.28,2.676,12.981,5.306,12.981,1.449,0,3.071-2.588,3.071-7.983Z" fill="#0e1b2c"/>
    <path id="Path_350" data-name="Path 350" d="M115.116,33.023c2.237-1.184,2.324-2.938,2.324-5.263v-20c0-2.324-.088-4.078-2.324-5.263V2.409h8.552V27.76c0,2.324.088,4.078,2.325,5.263v.088H115.116Z" fill="#0e1b2c"/>
    <path id="Path_351" data-name="Path 351" d="M145.2,25.787l.088.044c-1.1,3.552-4.079,7.675-8.727,7.675-4.517,0-9.561-3.552-9.561-11.314,0-7.631,5.438-11.4,10.087-11.4,4.473,0,8.2,3.6,8.551,9.6H132.57c.044,6.009,3.815,8.2,6.8,8.2A8.979,8.979,0,0,0,145.2,25.787Zm-12.63-6.359h7.324c-.219-4.6-1.754-7.719-3.772-7.719C134.193,11.709,132.745,14.823,132.57,19.428Z" fill="#0e1b2c"/>
  </g>
</svg>
