<svg xmlns="http://www.w3.org/2000/svg" width="53.73" height="53.73" viewBox="0 0 53.73 53.73">
  <path id="Play" d="M179.357.5A26.693,26.693,0,0,1,168.9-1.611a26.774,26.774,0,0,1-8.539-5.757,26.775,26.775,0,0,1-5.758-8.54,26.693,26.693,0,0,1-2.111-10.457A26.693,26.693,0,0,1,154.6-36.822a26.76,26.76,0,0,1,5.758-8.539,26.76,26.76,0,0,1,8.539-5.758,26.693,26.693,0,0,1,10.457-2.111,26.693,26.693,0,0,1,10.457,2.111,26.775,26.775,0,0,1,8.54,5.758,26.773,26.773,0,0,1,5.757,8.539,26.693,26.693,0,0,1,2.111,10.457,26.693,26.693,0,0,1-2.111,10.457,26.789,26.789,0,0,1-5.757,8.54,26.789,26.789,0,0,1-8.54,5.757A26.693,26.693,0,0,1,179.357.5Zm-4.44-34.59v15.45l.75-.433,5.94-3.429,5.94-3.43.75-.433-.75-.433-5.94-3.429-5.94-3.43Z" transform="translate(-152.492 53.23)" fill="#ff595c"/>
</svg>
