<svg xmlns="http://www.w3.org/2000/svg" width="128.998" height="128.999" viewBox="0 0 128.998 128.999">
  <path id="skills" d="M16857.459,10259.779a9.543,9.543,0,1,1,1.578-2.557,61.016,61.016,0,0,0,81.6-83.3l2.639-1.434a64.013,64.013,0,0,1-85.814,87.291Zm-8.2-12.622a6.5,6.5,0,1,0,1.033-.081A6.467,6.467,0,0,0,16849.256,10247.157Zm59.826-9.605-22.084-16.043-22.082,16.043a1.5,1.5,0,0,1-2.311-1.677l8.436-25.958-22.082-16.047a1.5,1.5,0,0,1,.881-2.714h27.3l8.436-25.959a1.5,1.5,0,0,1,2.85,0l8.436,25.959h27.3a1.5,1.5,0,0,1,.881,2.714l-22.082,16.047,8.436,25.958a1.5,1.5,0,0,1-2.311,1.677Zm-21.2-19.11,19.234,13.971-7.348-22.606a1.505,1.505,0,0,1,.545-1.676l19.229-13.971h-23.768a1.5,1.5,0,0,1-1.426-1.038l-7.348-22.606-7.342,22.606a1.51,1.51,0,0,1-1.43,1.038h-23.768l19.229,13.971a1.505,1.505,0,0,1,.545,1.676l-7.348,22.606,19.234-13.971a1.484,1.484,0,0,1,1.76,0ZM16823,10203a64.008,64.008,0,0,1,93.539-56.779,9.511,9.511,0,1,1-1.578,2.561,61.014,61.014,0,0,0-81.6,83.3l-2.639,1.434A64.11,64.11,0,0,1,16823,10203Zm99.7-56.988a6.433,6.433,0,0,0-4.236,2.6,6.488,6.488,0,1,0,5.271-2.685A6.608,6.608,0,0,0,16922.7,10146.011Z" transform="translate(-16822.5 -10138.5)" fill="#ff595c" stroke="rgba(0,0,0,0)" stroke-miterlimit="10" stroke-width="1"/>
</svg>
