<svg xmlns="http://www.w3.org/2000/svg" xmlns:xlink="http://www.w3.org/1999/xlink" width="34" height="34" viewBox="0 0 34 34">
  <defs>
    <clipPath id="clip-path">
      <rect id="Rectangle_676" data-name="Rectangle 676" width="20.885" height="12.763" fill="#0e1b2c" stroke="#0e1b2c" stroke-width="0.3"/>
    </clipPath>
  </defs>
  <g id="Group_1767" data-name="Group 1767" transform="translate(-79.705 -774.75)">
    <circle id="Ellipse_208" data-name="Ellipse 208" cx="17" cy="17" r="17" transform="translate(79.705 774.75)" fill="#ff595c"/>
    <g id="Group_1764" data-name="Group 1764" transform="matrix(0.966, -0.259, 0.259, 0.966, 85.012, 788.29)">
      <g id="Group_1763" data-name="Group 1763" clip-path="url(#clip-path)">
        <path id="Path_431" data-name="Path 431" d="M0,0V4.746H0a1.61,1.61,0,0,1,.58-.1,1.61,1.61,0,0,1,.58.1,1.74,1.74,0,0,1,0,3.272,1.61,1.61,0,0,1-.58.1,1.611,1.611,0,0,1-.58-.1v4.745H20.885V8.018a1.664,1.664,0,0,1-1.16,0,1.74,1.74,0,0,1,0-3.272,1.665,1.665,0,0,1,1.16,0V0ZM17.4,6.381a2.9,2.9,0,0,0,2.321,2.843V11.6H7.432V9.862a.58.58,0,0,0-1.16,0V11.6H1.16V9.224a2.9,2.9,0,0,0,0-5.685V1.16H6.271V2.9h0a.58.58,0,0,0,1.16,0V1.16H19.725V3.539A2.9,2.9,0,0,0,17.4,6.381Z" fill="#0e1b2c" stroke="#0e1b2c" stroke-width="0.3"/>
        <path id="Path_432" data-name="Path 432" d="M.58,0A.58.58,0,0,0,0,.58V2.9H0a.58.58,0,1,0,1.16,0V.58A.58.58,0,0,0,.58,0Z" transform="translate(6.271 4.641)" fill="#0e1b2c" stroke="#0e1b2c" stroke-width="0.3"/>
      </g>
    </g>
  </g>
</svg>
