<?xml version="1.0" encoding="utf-8"?>
<!-- Generator: Adobe Illustrator 28.3.0, SVG Export Plug-In . SVG Version: 6.00 Build 0)  -->
<svg version="1.1" id="Layer_1" xmlns="http://www.w3.org/2000/svg" xmlns:xlink="http://www.w3.org/1999/xlink" x="0px" y="0px"
	 viewBox="0 0 126 126" style="enable-background:new 0 0 126 126;" xml:space="preserve">
<style type="text/css">
	.st0{fill:#FF595C;}
</style>
<g>
	<path class="st0" d="M63,0C28.3,0,0,28.3,0,63s28.3,63,63,63s63-28.3,63-63S97.7,0,63,0z M63,123C29.9,123,3,96.1,3,63S29.9,3,63,3
		s60,26.9,60,60S96.1,123,63,123z"/>
	<polygon class="st0" points="58.5,26.6 63,23.5 67.5,26.6 65.8,21.4 70.1,18.3 64.7,18.3 63,13.1 61.3,18.3 55.9,18.3 60.3,21.4 	
		"/>
	<polygon class="st0" points="37,32.4 41.4,29.2 45.8,32.4 44.1,27.2 48.6,24 43.1,24 41.4,18.8 39.8,24 34.3,24 38.7,27.2 	"/>
	<polygon class="st0" points="84.6,18.8 82.9,24 77.4,24 81.9,27.2 80.2,32.4 84.6,29.2 89,32.4 87.3,27.2 91.7,24 86.3,24 	"/>
	<polygon class="st0" points="21.2,48.2 25.6,45 30,48.2 28.3,43 32.8,39.9 27.3,39.9 25.6,34.7 24,39.8 18.5,39.8 22.9,43.1 	"/>
	<polygon class="st0" points="96,48.2 100.4,45 104.8,48.2 103.1,43 107.5,39.9 102.1,39.9 100.4,34.7 98.7,39.8 93.2,39.8 
		97.7,43.1 	"/>
	<polygon class="st0" points="19.7,66.6 24.2,69.8 22.5,64.6 26.9,61.4 21.4,61.4 19.7,56.2 18.1,61.4 12.6,61.4 17.1,64.6 
		15.4,69.8 	"/>
	<polygon class="st0" points="113.4,61.4 107.9,61.4 106.3,56.2 104.6,61.4 99,61.4 103.5,64.6 101.8,69.8 106.3,66.6 110.6,69.8 
		108.9,64.6 	"/>
	<polygon class="st0" points="100.4,77.7 98.7,82.9 93.2,82.9 97.7,86.1 96,91.3 100.4,88.1 104.8,91.3 103.1,86.1 107.5,82.9 
		102.1,82.9 	"/>
	<polygon class="st0" points="27.3,82.9 25.6,77.7 24,82.9 18.5,82.9 22.9,86.1 21.2,91.3 25.6,88.1 30,91.3 28.3,86.1 32.8,82.9 	
		"/>
	<polygon class="st0" points="43.1,98.8 41.4,93.6 39.8,98.8 34.3,98.8 38.7,102 37,107.2 41.4,103.9 45.8,107.2 44.1,102 
		48.6,98.8 	"/>
	<polygon class="st0" points="86.3,98.8 84.6,93.6 82.9,98.8 77.4,98.8 81.9,102 80.2,107.2 84.6,103.9 89,107.2 87.3,102 
		91.7,98.8 	"/>
	<polygon class="st0" points="64.7,104.6 63,99.4 61.3,104.6 55.9,104.6 60.3,107.7 58.5,112.9 63,109.8 67.5,112.9 65.8,107.7 
		70.1,104.6 	"/>
	<path class="st0" d="M63.1,90c0.8,0,1.5-0.7,1.5-1.5v-9.5c11.7-0.7,21.3-9.2,23.3-20.9c0,0,0,0,0,0c0.2-0.8-0.2-1.6-1-1.9
		c-1.8-0.6-3.8-0.8-5.7-0.8c-2.6,0-5.1,0.5-7.4,1.5C73.1,43.3,64.2,38,63.8,37.7c-0.5-0.3-1-0.3-1.5,0C61.8,38,53,43.3,52.2,56.8
		c-2.2-0.9-4.7-1.4-7.2-1.4c-2,0-4,0.3-5.9,0.9c-0.8,0.2-1.2,1.1-1,1.9c0,0,0,0,0,0.1c2,11.6,11.7,20.1,23.4,20.8v9.5
		C61.6,89.4,62.2,90,63.1,90z M84.7,58.8c-2.2,9.6-10.3,16.6-20.1,17.2v-1c0-9.2,7.5-16.6,16.6-16.6C82.4,58.4,83.6,58.6,84.7,58.8z
		 M63,40.8c2.1,1.6,7.7,6.8,7.8,17.6c-3.5,2.2-6.2,5.3-7.8,9.1c-1.6-3.8-4.4-7.1-7.9-9.2C55.3,47.6,60.9,42.4,63,40.8z M41.3,58.8
		c1.2-0.3,2.4-0.4,3.6-0.4c9.2,0,16.6,7.5,16.6,16.6v1C51.7,75.4,43.5,68.5,41.3,58.8z"/>
</g>
</svg>
