<svg xmlns="http://www.w3.org/2000/svg" width="30" height="30" viewBox="0 0 30 30">
  <path id="Twitter" d="M15,0A15,15,0,1,0,30,15,15,15,0,0,0,15,0Zm5.726,12.063c.006.127.009.254.009.383a8.348,8.348,0,0,1-8.29,8.406h-.116A8.368,8.368,0,0,1,7.8,19.525a6.146,6.146,0,0,0,.7.041A5.924,5.924,0,0,0,12.174,18.3a2.955,2.955,0,0,1-2.76-2.052,3.02,3.02,0,0,0,1.334-.047,2.957,2.957,0,0,1-2.369-2.9v-.037a2.947,2.947,0,0,0,1.338.369A2.958,2.958,0,0,1,8.8,9.69a8.386,8.386,0,0,0,6.089,3.087,2.994,2.994,0,0,1-.076-.673A2.955,2.955,0,0,1,17.771,9.15h0a2.953,2.953,0,0,1,2.157.933A5.913,5.913,0,0,0,21.8,9.366,2.957,2.957,0,0,1,20.5,11a5.9,5.9,0,0,0,1.7-.465A5.99,5.99,0,0,1,20.726,12.063Z" fill="#ff595c"/>
</svg>
