<svg xmlns="http://www.w3.org/2000/svg" width="33.927" height="22.789" viewBox="0 0 33.927 22.789">
  <path id="UJ" d="M68.273-66.174H34.346v22.789H68.273ZM35.589-45.809l7.9-5.65h4.34l-9.513,6.831H35.589Zm5.764-5.65-5.764,4.122v-4.122Zm6.782,1.31v5.521H40.446ZM35.589-52.7v-4.147H49.378v-8.08h3.864v8.079h13.79v4.141H53.243v8.078H49.378V-52.7ZM67.032-63.746l-7.907,5.655H54.787l9.52-6.836h2.725Zm-5.77,5.655,5.77-4.127v4.127ZM54.484-59.4v-5.524h7.693Zm-6.349,0-7.69-5.521h7.69Zm-.3,1.316H43.5l-7.909-5.658v-1.179h2.725Zm-6.476,0H35.589v-4.129Zm13.125,7.941,7.688,5.521H54.486Zm.3-1.316h4.34l7.908,5.657v1.18H64.3Zm6.476,0h5.772v4.128Z" transform="translate(-34.346 66.174)" fill="#ff595c"/>
</svg>
