<svg xmlns="http://www.w3.org/2000/svg" width="27" height="21.828" viewBox="0 0 27 21.828">
  <g id="w_icon" transform="translate(-0.004 -0.006)">
    <path id="Path_341" data-name="Path 341" d="M22.375,1.56H27v.057a8.807,8.807,0,0,0-2.442,3.947l-6.308,16.27H18.2L14.115,11.7,9.487,21.835H9.43L2.871,5.99C1.791,3.407.969,2.186,0,1.623V1.566H8.859v.057A2.494,2.494,0,0,0,7.325,5.315l4.259,10.393,2.184-4.8C10.871,3.61,13.313,0,15.983,0c1.192,0,2.158,1.023,2.158,2.669A9.96,9.96,0,0,1,16.778,6.99l3.351,8.4,3.89-10.08a2.606,2.606,0,0,0-1.647-3.691ZM16.468,6.217v.028A7.877,7.877,0,0,0,17.491,2.7c0-1.448-.795-2.1-1.505-2.1C15.049.595,14.679,1.731,16.468,6.217Z" fill="#fff"/>
  </g>
</svg>
