<svg xmlns="http://www.w3.org/2000/svg" width="49.459" height="40" viewBox="0 0 49.459 40">
  <g id="w_icon_footer" transform="translate(-0.007)">
    <path id="Path_341" data-name="Path 341" d="M40.988,2.861h8.478v.1c-1.716,1.248-3.121,3.745-4.473,7.23L33.446,40h-.1l-7.49-18.57L17.377,40h-.1L5.261,10.975C3.284,6.241,1.776,4.005.007,2.965v-.1H16.236v.1c-3.173,1.2-4.109,3.589-2.809,6.762l7.8,19.037,4.005-8.79C19.926,6.606,24.4,0,29.289,0c2.185,0,3.953,1.873,3.953,4.889,0,2.7-1.2,5.306-2.5,7.906l6.138,15.4L44.006,9.73c1.248-3.225-.1-5.722-3.017-6.762ZM30.169,11.392v.052a14.432,14.432,0,0,0,1.872-6.5c0-2.653-1.456-3.849-2.757-3.849C27.568,1.092,26.892,3.173,30.169,11.392Z" fill="#ff595c"/>
  </g>
</svg>
