<svg xmlns="http://www.w3.org/2000/svg" width="22.257" height="17.995" viewBox="0 0 22.257 17.995">
  <g id="w_icon" transform="translate(-0.003 -0.005)">
    <path id="Path_341" data-name="Path 341" d="M18.445,1.287H22.26v.047a7.26,7.26,0,0,0-2.013,3.254L15.047,18H15L11.636,9.644,7.821,18H7.774L2.367,4.939C1.477,2.809.8,1.8,0,1.339V1.292H7.3v.047A2.056,2.056,0,0,0,6.039,4.382L9.55,12.949l1.8-3.956C8.962,2.977,10.975,0,13.176,0c.983,0,1.779.843,1.779,2.2a8.21,8.21,0,0,1-1.124,3.558l2.762,6.928L19.8,4.382a2.148,2.148,0,0,0-1.358-3.043ZM13.576,5.126v.023a6.494,6.494,0,0,0,.843-2.926c0-1.194-.655-1.732-1.241-1.732C12.406.491,12.1,1.428,13.576,5.126Z" fill="#ff595c"/>
  </g>
</svg>
