<svg xmlns="http://www.w3.org/2000/svg" width="22.26" height="18" viewBox="0 0 22.26 18">
  <g id="Group_940" data-name="Group 940" transform="translate(-263.364 -240.781)">
    <path id="Path_341" data-name="Path 341" d="M281.809,242.068h3.815v.047a7.26,7.26,0,0,0-2.013,3.254l-5.2,13.412h-.047L275,250.425l-3.815,8.356h-.047l-5.407-13.061c-.89-2.13-1.568-3.136-2.364-3.6v-.047h7.3v.047a2.057,2.057,0,0,0-1.264,3.043l3.511,8.567,1.8-3.956c-2.388-6.016-.375-8.988,1.826-8.988.983,0,1.779.843,1.779,2.2a8.212,8.212,0,0,1-1.124,3.558l2.762,6.928,3.207-8.309a2.148,2.148,0,0,0-1.358-3.043Zm-4.869,3.839v.023a6.5,6.5,0,0,0,.843-2.926c0-1.194-.655-1.732-1.241-1.732C275.77,241.272,275.465,242.209,276.94,245.907Z" transform="translate(0)" fill="#ed7a80"/>
  </g>
</svg>
