<svg xmlns="http://www.w3.org/2000/svg" width="27.206" height="22" viewBox="0 0 27.206 22">
  <g id="Group_940" data-name="Group 940" transform="translate(-263.364 -240.781)">
    <path id="Path_341" data-name="Path 341" d="M285.907,242.354h4.663v.057a8.874,8.874,0,0,0-2.46,3.977l-6.351,16.393H281.7l-4.119-10.213-4.663,10.213h-.057l-6.608-15.964c-1.087-2.6-1.917-3.833-2.889-4.406v-.057h8.926v.057c-1.745.658-2.26,1.974-1.545,3.719l4.291,10.47,2.2-4.834c-2.918-7.353-.458-10.986,2.231-10.986,1.2,0,2.174,1.03,2.174,2.689a10.037,10.037,0,0,1-1.373,4.349l3.376,8.468,3.919-10.156a2.626,2.626,0,0,0-1.659-3.719Zm-5.951,4.692v.028a7.94,7.94,0,0,0,1.03-3.576c0-1.459-.8-2.117-1.516-2.117C278.527,241.382,278.155,242.526,279.957,247.047Z" transform="translate(0 0)" fill="#fff"/>
  </g>
</svg>
