<?xml version="1.0" encoding="UTF-8"?>
<svg id="Layer_1" data-name="Layer 1" xmlns="http://www.w3.org/2000/svg" viewBox="0 0 35 35">
  <defs>
    <style>
      .cls-1 {
        fill: #ff595c;
        stroke-width: 0px;
      }
    </style>
  </defs>
  <path class="cls-1" d="M34.22,10.63c-.43-1.33-1.29-2.51-2.43-3.32-1.19-.84-2.61-1.22-4.22-1.16-.1,0-.21.04-.29.1-3.05,2.13-5.97,4-8.92,5.7-1.04.61-2.09,1.19-3.16,1.76-3.7,1.98-7.31,3.63-11.06,5.05-.02,0-.04.03-.06.04-.6.23-1.16.55-1.64.99-1.44,1.31-2.04,3.45-1.5,5.32.54,1.87,2.18,3.36,4.1,3.71.25.05.51.07.78.07.91,0,1.83-.28,2.52-.79,0,0,0,0,0,0,3.3-2.34,6.76-4.45,10.29-6.29.02,1.21.04,2.48.12,3.8.01.22.18.39.39.46.21.07.46-.01.61-.17.37-.41.75-.82,1.13-1.22.39.47.81.91,1.31,1.34.1.09.23.13.36.13.08,0,.16-.02.23-.05.2-.09.32-.29.32-.5,0-1.73-.09-3.48-.24-5.2.24-.26.44-.57.57-.91,2.74-1.22,5.59-2.3,8.46-3.21.16-.05.29-.18.35-.34.32-.88.66-1.9.65-2.92,0-.4-.08-.79-.18-1.17.4-.17.8-.35,1.2-.52.26-.11.39-.4.31-.67ZM5.21,24.92c-.43-.12-.78-.58-.77-1.06.01-.53.42-1.06.98-1.26.54-.2,1.21-.1,1.76.26.27.18.5.44.71.73l-.08.04c-.82.43-1.73.91-2.6,1.29ZM9.39,24.06c-.06-.17-.13-.35-.22-.51,0,0,0,0,0,0,0,0,0,0,0,0,0,0,0,0,0,0-.33-.67-.81-1.23-1.38-1.6-.17-.11-.36-.2-.54-.27.5-.26.97-.5,1.4-.73l.29-.15c.65.69,1.06,1.58,1.1,2.5,0,.2.12.38.3.46.18.09.39.08.55-.03,2.24-1.48,4.55-2.91,6.88-4.27.12.31.29.61.51.87.09.1.19.18.29.27-3.05,1.57-6.05,3.35-8.95,5.3.06-.58,0-1.2-.22-1.82ZM15.53,14.77c.5.11.98.3,1.39.6.48.34.86.8,1.13,1.33-.03.05-.07.1-.1.15-.25.44-.37.94-.37,1.44-2.22,1.29-4.42,2.64-6.56,4.04-.24-1-.8-1.92-1.59-2.63,0,0,0,0,0,0,0,0-.01,0-.02-.01-.45-.39-.95-.7-1.5-.92-.15-.06-.3-.09-.45-.14,2.71-1.13,5.38-2.41,8.09-3.85ZM19.11,19.6c-.25-.3-.4-.68-.44-1.07,0,0,0,0,0-.01-.04-.39.04-.79.23-1.13.34-.6,1.03-.99,1.72-.99.1,0,.19,0,.28.02.78.13,1.45.78,1.6,1.55.25,1.28-.66,1.98-1.24,2.2-.74.27-1.64.04-2.16-.56ZM18.84,15.87c-.33-.54-.76-1.02-1.28-1.39-.23-.16-.47-.3-.73-.42.61-.34,1.23-.67,1.83-1.02.38.16.73.35,1.04.61.52.44.92,1.03,1.16,1.68-.72-.06-1.44.14-2.02.55ZM5.24,27.72c-1.51-.28-2.81-1.45-3.24-2.93-.42-1.48.05-3.17,1.19-4.2,1.14-1.04,2.86-1.36,4.29-.8.18.07.34.16.51.25-.87.45-1.86.97-3.01,1.56,0,0,0,0,0,0-.94.37-1.61,1.28-1.63,2.24-.03,1.09.8,2.09,1.84,2.22.02,0,.03,0,.04,0,0,0,.02,0,.02,0,.02,0,.04-.01.07-.01.04,0,.08-.01.12-.02,0,0,.02,0,.03,0,.95-.41,2.01-.96,2.85-1.41l.07-.04c.19.61.21,1.21.03,1.7-.13.36-.38.67-.72.93-.65.48-1.59.68-2.45.53ZM21.4,23.5c-.09-.13-.24-.21-.4-.23-.16,0-.32.04-.43.15-.26.26-.52.52-.77.79-.04-1.01-.05-2-.06-2.98.29.09.59.15.89.15.35,0,.7-.06,1.03-.18.06-.02.11-.05.17-.08.08,1.04.14,2.09.17,3.13-.21-.24-.41-.49-.6-.75ZM31.31,15.28c-2.6.84-5.18,1.82-7.68,2.9,0-.14-.01-.28-.04-.43-.09-.46-.29-.88-.57-1.24,2.85-1.51,5.77-2.94,8.69-4.25.05.24.09.49.09.74,0,.69-.18,1.4-.49,2.28ZM31.85,10.99s0,0,0,0c0,0,0,0,0,0,0,0-.01,0-.02,0-3.26,1.44-6.52,3.03-9.69,4.73-.01,0-.02-.01-.04-.02-.23-1.13-.82-2.18-1.7-2.92-.19-.16-.4-.29-.62-.42,2.64-1.56,5.26-3.24,7.98-5.14,1.29-.03,2.43.3,3.38.97.81.58,1.45,1.38,1.84,2.29-.38.17-.77.33-1.15.5Z"/>
</svg>