<?xml version="1.0" encoding="utf-8"?>
<!-- Generator: Adobe Illustrator 27.6.1, SVG Export Plug-In . SVG Version: 6.00 Build 0)  -->
<svg version="1.1" id="Layer_1" xmlns="http://www.w3.org/2000/svg" xmlns:xlink="http://www.w3.org/1999/xlink" x="0px" y="0px"
	 viewBox="0 0 264.1 256" style="enable-background:new 0 0 264.1 256;" xml:space="preserve">
<style type="text/css">
	.st0{fill:#FFFFFF;}
	.st1{fill:#97885C;}
</style>
<g id="Group_1806" transform="translate(42.8 36)">
	<path id="Path_460" class="st0" d="M204.1,219.8c7.8,0,14.7-4.8,14.7-13.5c0-6.5-4-9.9-11.5-13l-4.6-1.8c-6.7-2.7-9.6-5.1-9.6-8.8
		c0-3.2,2.4-6.2,7.7-6.2c3.6,0,10.3,1.5,15.9,13.7l0.6-0.2l-4.1-15l-0.6,0.1c0.1,1.4-0.9,2.1-2.3,2.1c-2.7,0-5.7-1.5-9.6-1.5
		c-7.4,0-12.9,4.5-12.9,11.4c0,5.9,3.4,10.2,10.3,12.8l4.8,1.8c6.7,2.5,10.3,5.2,10.3,9.5c0,4.2-3.1,7.8-9.2,7.8
		c-4.6,0-11.7-1.8-17.8-15.2l-0.6,0.2l4.2,16l0.6-0.1c-0.1-1,0.7-1.9,1.7-2c0.1,0,0.3,0,0.4,0C195.6,218,199.1,219.8,204.1,219.8
		 M160.6,218.7c-4.6,0-7.8-2.7-7.8-20.9s3.2-20.9,7.8-20.9c4.7,0,8.5,2.8,11.2,5.1v31.5C169.3,215.9,165.3,218.7,160.6,218.7
		 M159.4,219.8c5.5,0,9.7-2.9,12.5-5.1v4.3c1.4,0,2.4-0.2,4.5-0.2c2.9,0,4.6,0.2,7.1,0.2h2.2v-0.7h-0.3c-3.8,0-4.6-1.8-4.6-5.3
		v-56.9h-0.6c-1.1,2.2-7.3,3.7-11.4,3.7h-1.8v0.7h0.3c3.8,0,4.6,1.8,4.6,5.3v15c-2.8-2.3-7-5.1-12.5-5.1c-8.1,0-16.4,6.2-16.4,22.1
		S151.3,219.8,159.4,219.8 M134.1,219.1v-0.7h-1.5c-3.8,0-5.5-1.8-5.5-5.4v-25.5c2.1-3.6,4.1-6.3,6.3-6.3c2,0,3.9,1.5,6.2,1.5
		c2.7,0,4.2-1.4,4.2-3.6c0-2-1.7-3.4-4.3-3.4c-2.5,0-4.8,1.1-6.5,2.9c-2.3,2.3-4.2,4.8-5.9,7.5v-10.6h-0.5
		c-1.1,2.2-7.3,3.7-11.4,3.7h-1.8v0.7h0.3c3.8,0,4.6,1.8,4.6,5.3v27.9c0,3.7-0.8,5.4-4.6,5.4h-0.3v0.7h2.2c2.5,0,4.2-0.3,7.1-0.3
		c3.2,0,5.1,0.3,7.9,0.3h3.5L134.1,219.1z M87,218.1c-3.7,0-5.3-3.7-5.3-10.4c0-7,1-11.5,7.4-14.1l8.1-3.3v20.1
		c0,1.2,0.1,2.5,0.2,3.1C94.2,215.9,90.2,218.1,87,218.1 M104.1,219.8c3.9,0,7.3-2.5,8.6-6.2l-0.6-0.3c-0.8,1.8-2.3,3.6-3.8,3.6
		c-1.5,0-2.3-1-2.3-3.2v-28.6c0-6.4-2.7-9.5-11.4-9.5c-9.4,0-21,5-21,9.9c0,1.8,1.4,3.2,3.2,3.2c0,0,0,0,0,0c1.8,0,2.8-1.2,4.2-3.7
		c3.4-5.2,7-8.6,12.2-8.6c3.2,0,4,1.6,4,5.4v7.3L85.9,194c-7.5,3.1-13.7,7.2-13.7,14.6c0,6.9,4.5,11.1,11.5,11.1
		c5.4,0,10.4-2.8,13.7-5.5C98,217.6,100.1,219.8,104.1,219.8 M60.7,219.1l-2.7-7.8l8.4-24.2c1.9-5.5,5.1-9.9,9.9-10v-0.7h-1.3
		c-2.1,0-4.2,0.3-6.8,0.3c-2.5,0-4.6-0.3-7-0.3h-0.9v0.7c3.9,0,6.1,1.8,6.1,5.1c-0.1,1.5-0.4,3-0.9,4.5l-8.2,23.5l-9.9-28.8
		c-0.2-0.6-0.4-1.2-0.4-1.8c0-1.8,1.5-2.3,3.9-2.3v-0.7h-2.5c-2,0-3.9,0.3-6.8,0.3s-4.8-0.3-6.8-0.3h-2.4v0.7c2.9,0,4.3,1.3,5.6,4.9
		l1.9,5.6l-7.7,22.6L22,181.3c-0.2-0.6-0.3-1.2-0.4-1.8c0-1.8,1.5-2.4,3.9-2.4v-0.7H23c-1.9,0-3.8,0.3-6.7,0.3s-4.8-0.3-6.8-0.3H6.9
		v0.7c2.9,0,4.3,1.3,5.6,4.9l13.6,37.1c1.7,0,3.2-0.1,4.7-0.1c1.5,0,2.9,0.1,4.7,0.1l-2.7-7.8l7.7-22.5l10.6,30.2
		c1.7,0,3.2-0.1,4.6-0.1C57.4,219,58.8,219.1,60.7,219.1 M-15.7,169.3l13,32.5h-25.8L-15.7,169.3z M18.3,219.1v-0.8
		c-3.2,0-4.8-1.9-6.4-5.7l-21.3-52.8c-1.7,0-3.1,0.1-4.9,0.1s-3.5-0.1-5.4-0.1l3.4,8.4l-14.9,37.7c-3.5,8.8-7.2,12.4-11.7,12.5v0.8
		h1.6c1.8,0,5.4-0.3,7.1-0.3c2.4,0,5.6,0.3,8,0.3h1.1v-0.8c-4.2,0-6.7-2.4-6.7-6c0.1-1.9,0.5-3.8,1.2-5.6l1.6-3.9h26.6l3.7,9.3
		c0.5,1,0.8,2.1,0.8,3.2c0,1.8-1.6,3.2-4.2,3.2v0.8h2.8c1.8,0,4.7-0.3,7.5-0.3c2.5,0,5.3,0.3,7.2,0.3h2.8L18.3,219.1z"/>
</g>
<g id="Group_1807" transform="translate(42.8 36)">
	<path id="Path_461" class="st0" d="M205.5,148.4l-2.8-7.7l8.7-24.5c2-5.6,5.1-9.7,9.9-9.8v-0.7H220c-2.1,0-4.2,0.3-6.8,0.3
		s-4.6-0.3-7-0.3h-0.9v0.7c3.9,0,6.1,1.8,6.1,5.1c0,1.5-0.3,3-0.9,4.3l-8.4,23.6l-10.4-28.8c-0.2-0.6-0.3-1.2-0.4-1.8
		c0-1.8,1.5-2.4,3.9-2.4v-0.7h-2.6c-1.9,0-3.8,0.3-6.7,0.3s-4.8-0.3-6.8-0.3h-2.5v0.7c2.9,0,4.3,1.2,5.6,4.9l13.6,37.1
		c0.7,0,2.3-0.1,2.7-0.1l-1.8,4.3c-3.7,9-6,12.3-8.9,12.3c-2.3,0-4.6-2.3-7.6-2.3c-1.7-0.2-3.1,1-3.3,2.7c0,0.1,0,0.2,0,0.4
		c0,1.8,1.8,3.2,4.7,3.2c8.4,0,11.5-5.4,15.8-15.9l1.9-4.6h1.2C202.3,148.3,203.8,148.4,205.5,148.4 M166.6,148.4v-0.7h-1.5
		c-3.8,0-5.5-1.8-5.5-5.4v-25.5c2.1-3.6,4.1-6.3,6.3-6.3c2,0,3.9,1.5,6.2,1.5c2.7,0,4.2-1.4,4.2-3.6c0-2-1.7-3.4-4.3-3.4
		c-2.5,0-4.8,1.1-6.5,2.9c-2.3,2.3-4.2,4.8-5.9,7.5v-10.6h-0.6c-1.1,2.2-7.3,3.7-11.4,3.7h-1.8v0.7h0.3c3.8,0,4.6,1.8,4.6,5.3v27.9
		c0,3.7-0.8,5.4-4.6,5.4h-0.3v0.7h2.2c2.5,0,4.2-0.3,7.1-0.3c3.2,0,5.1,0.3,7.9,0.3L166.6,148.4L166.6,148.4z M142.7,148.4v-0.7
		h-0.3c-3.8,0-4.6-1.8-4.6-5.4v-37.5h-0.5c-1.2,2.2-7.4,3.7-11.5,3.7h-1.8v0.7h0.3c3.8,0,4.6,1.8,4.6,5.3V142l-7,2.8
		c-2,0.9-4.1,1.5-6.3,1.8c-2,0-3.1-1.1-3.1-3.8v-37.9h-0.5c-1.2,2.2-7.4,3.7-11.5,3.7h-1.8v0.7h0.3c3.8,0,4.6,1.8,4.6,5.3v28.2
		c0,4.6,2.2,6.5,5.7,6.5c3,0,6.1-1,10.4-2.7l9.2-3.6v5.6c1.4,0,2.4-0.2,4.5-0.2c2.9,0,4.6,0.2,7.1,0.2h2.2L142.7,148.4z
		 M100.3,148.4v-0.7c-2.8,0-4.7-2.3-6.5-5.3l-11.9-18.7l5.2-8c3.2-5,7.8-9.2,12.1-9.2h0.1v-0.7h-1.7c-1.6,0-4.2,0.3-6.4,0.3
		c-2.4,0-4.6-0.3-6.6-0.3h-1.1v0.7h0.1c4,0,4.9,1.4,4.9,3.6c-0.2,1.9-1,3.8-2.2,5.3l-5.1,7.7l-8-12.6c-0.4-0.6-0.6-1.2-0.6-1.9
		c0-1.5,1.2-2,3.6-2v-0.7h-2.5c-2,0-3.8,0.3-6.7,0.3s-4.8-0.3-6.8-0.3h-2.7v0.7c2.8,0,4.7,2.3,6.5,5.3l11.3,18l-5.9,8.8
		c-3.3,4.9-7.8,9.2-12.2,9.2h-0.1v0.7h1.8c1.6,0,4.2-0.3,6.3-0.3c2.5,0,4.6,0.3,6.6,0.3H73v-0.7h-0.1c-3.9,0-4.9-1.4-4.9-3.6
		c0.2-1.9,1-3.8,2.2-5.3l5.7-8.4l8.6,13.4c0.4,0.6,0.6,1.2,0.6,1.9c0,1.5-1.2,2-3.6,2v0.7h2.5c2,0,3.8-0.3,6.7-0.3s4.8,0.3,6.8,0.3
		L100.3,148.4L100.3,148.4z M54.1,148.4v-0.7h-0.3c-3.8,0-4.6-1.8-4.6-5.4v-37.5h-0.5c-1.2,2.2-7.4,3.7-11.5,3.7h-1.8v0.7h0.3
		c3.8,0,4.6,1.8,4.6,5.3V142l-7,2.8c-2,0.9-4.1,1.5-6.3,1.8c-2,0-3.1-1.1-3.1-3.8v-37.9h-0.5c-1.2,2.2-7.4,3.7-11.5,3.7h-1.8v0.7
		h0.3c3.8,0,4.6,1.8,4.6,5.3v28.2c0,4.6,2.2,6.5,5.7,6.5c3,0,6.1-1,10.4-2.7l9.2-3.6v5.6c1.4,0,2.4-0.2,4.5-0.2
		c2.9,0,4.6,0.2,7.1,0.2h2.2L54.1,148.4z M12.2,127.4l-0.6-0.3c-4.8,7.4-9.1,14.1-11.9,17.1c-2.8,2.9-4.8,3.2-8,3.2h-11.5V95.4
		c0-4,1.2-5.5,4.7-5.5h0.3v-0.8h-2.6c-2.3,0-4.3,0.3-7,0.3c-2.8,0-4.8-0.3-7.1-0.3h-2.6v0.8h0.3c3.5,0,4.7,1.5,4.7,5.5v46.7
		c0,4.1-1.2,5.6-4.7,5.6h-0.3v0.8h2.6c2.3,0,4.3-0.1,7.1-0.1c2.7,0,4.8,0.1,7,0.1H0.1c2.4,0,3.3,1,3.2,2.6l0.6,0.2L12.2,127.4z"/>
</g>
<g id="Group_1808" transform="translate(42.8 36)">
	<path id="Path_462" class="st0" d="M197.6,40.8c0-4.6-2.2-6.5-5.7-6.5c-3,0-6.4,1.1-10.4,2.7l-9.6,3.7v-26h-0.6
		c-1.1,2.2-7.3,3.7-11.4,3.7h-1.8v0.7h0.3c3.8,0,4.6,1.8,4.6,5.3v47.2c0,3.7-0.8,5.4-4.6,5.4h-0.3v0.7h2.2c2.5,0,4.2-0.3,7.1-0.3
		s4.6,0.3,7.1,0.3h2.2V77h-0.3c-3.8,0-4.6-1.8-4.6-5.4v-30l7.5-2.9c2.2-0.8,4.6-1.8,6.3-1.8c2,0,3.1,1.1,3.1,3.8v30.9
		c0,3.7-0.8,5.4-4.6,5.4h-0.3v0.7h2.2c2.5,0,4.2-0.3,7.1-0.3s4.6,0.3,7.1,0.3h2.2V77h-0.3c-3.8,0-4.6-1.8-4.6-5.4L197.6,40.8
		L197.6,40.8z M142.9,78.5c7.8,0,14.7-4.8,14.7-13.5c0-6.5-4-9.9-11.5-13l-4.6-1.8c-6.7-2.7-9.6-5.1-9.6-8.8c0-3.2,2.4-6.2,7.7-6.2
		c3.6,0,10.3,1.5,15.9,13.7l0.6-0.2l-4.1-15l-0.6,0.1c0.1,1.4-0.9,2.1-2.3,2.1c-2.7,0-5.7-1.5-9.6-1.5c-7.4,0-12.9,4.5-12.9,11.4
		c0,5.9,3.4,10.2,10.3,12.8l4.8,1.8c6.7,2.5,10.3,5.2,10.3,9.5c0,4.2-3.1,7.8-9.2,7.8c-4.6,0-11.7-1.8-17.8-15.2l-0.6,0.2l4.2,16
		l0.6-0.1c-0.1-1,0.7-1.9,1.7-2c0.1,0,0.3,0,0.4,0C134.4,76.6,138,78.5,142.9,78.5 M115.1,28.2c2.9-0.1,5.2-2.5,5.1-5.4
		c-0.1-2.9-2.5-5.2-5.4-5.1c-2.8,0.1-5.1,2.4-5.1,5.2c0,2.9,2.3,5.2,5.1,5.2C114.9,28.2,115,28.2,115.1,28.2 M124.5,77.8v-0.7h-0.3
		c-3.8,0-4.6-1.8-4.6-5.4V34.2h-0.6c-1.2,2.2-7.4,3.7-11.4,3.7h-1.8v0.7h0.2c3.9,0,4.6,1.8,4.6,5.3v27.9c0,3.7-0.7,5.4-4.6,5.4h-0.2
		v0.7h2.2c2.4,0,4.2-0.3,7-0.3c2.9,0,4.6,0.3,7.1,0.3L124.5,77.8L124.5,77.8z M94.7,78.5c5.2,0,8.5-3.7,9.7-7.6l-0.6-0.2
		c-1,2.7-3.2,4.6-5.1,4.6c-2.1,0-3.5-1.2-3.5-5.1V36h8.9v-0.9h-8.9V21.6h-0.7v0.3c0,3.9-2.7,6.6-8.2,6.6v6.6h-6V36h6v33.2
		C86.4,76.5,90.5,78.5,94.7,78.5 M72.2,28.2c2.9-0.1,5.2-2.5,5.1-5.4c-0.1-2.9-2.5-5.2-5.4-5.1c-2.8,0.1-5.1,2.4-5.1,5.2
		c0,2.9,2.3,5.2,5.1,5.2C72.1,28.2,72.1,28.2,72.2,28.2 M81.6,77.8v-0.7h-0.3c-3.8,0-4.6-1.8-4.6-5.4V34.2h-0.6
		c-1.2,2.2-7.4,3.7-11.4,3.7h-1.8v0.7h0.2c3.9,0,4.6,1.8,4.6,5.3v27.9c0,3.7-0.7,5.4-4.6,5.4h-0.2v0.7h2.2c2.4,0,4.2-0.3,7-0.3
		c2.9,0,4.6,0.3,7.1,0.3L81.6,77.8L81.6,77.8z M51.3,77.8v-0.7h-1.5c-3.8,0-5.5-1.8-5.5-5.4V46.2c2.1-3.6,4.1-6.3,6.3-6.3
		c2,0,3.9,1.5,6.2,1.5c2.7,0,4.2-1.4,4.2-3.6c0-2-1.7-3.4-4.3-3.4c-2.5,0-4.8,1.1-6.5,2.9c-2.3,2.3-4.2,4.8-5.9,7.5V34.3h-0.6
		c-1.1,2.2-7.3,3.7-11.4,3.7h-1.8v0.7h0.3c3.8,0,4.6,1.8,4.6,5.3v27.9c0,3.7-0.8,5.4-4.6,5.4h-0.3v0.7h2.2c2.5,0,4.2-0.3,7.1-0.3
		c3.2,0,5.1,0.3,7.9,0.3h3.6L51.3,77.8z M16.7,33.2c0,8.4-2,14.1-10.7,14.1H-4.9V19.4H5.4C14.1,19.4,16.7,24.3,16.7,33.2 M19.4,62.4
		c0,10.4-3.2,14.4-12,14.4H-4.9V48.2H7.5C15.5,48.2,19.4,51.7,19.4,62.4 M29.8,62.5c0-10.3-8.9-14.7-19.7-14.8
		c9.8-0.9,16.5-6.5,16.5-14.5c0-9.4-8.8-14.6-20.4-14.6h-6.6c-3.2,0-5.6,0.1-9.2,0.1c-2.8,0-4.8-0.1-7.1-0.1h-2.6v0.8h0.3
		c3.5,0,4.7,1.5,4.7,5.5v46.7c0,4.1-1.2,5.6-4.7,5.6h-0.3v0.8h2.6c2.3,0,4.3-0.1,7.1-0.1c3.2,0,6.2,0.1,9.5,0.1h8.4
		C20,77.8,29.8,73.1,29.8,62.5"/>
</g>
<g id="Group_1810" transform="translate(42.8 36)">
	<path id="Path_464" class="st1" d="M158.3-24.3c2,0,3.5,3.1,3.8,7.7h-7.3C154.9-21.2,156.3-24.3,158.3-24.3 M161.5-7.5
		c-3,0-6.7-2.2-6.8-8.2h13c-0.4-6-4.1-9.6-8.5-9.6c-4.7,0-10,3.8-10,11.4c0,7.8,5,11.3,9.5,11.3c4.7,0,7.6-4.1,8.7-7.7l-0.1-0.1
		C165.8-8.7,163.7-7.7,161.5-7.5 M137.4-3h10.9v-0.1c-2.2-1.2-2.3-3-2.3-5.2v-25.3h-8.5v0.1c2.2,1.2,2.3,3,2.3,5.2v19.9
		c0,2.3-0.1,4.1-2.3,5.2L137.4-3z M126.8-3.4c-2.6,0-5.3-5.7-5.3-12.9c0-5.4,1.6-8,3.1-8c2.7,0,5.3,5.7,5.3,12.9
		C129.9-6,128.2-3.4,126.8-3.4 M125.7-2.6c5,0,10.6-3.8,10.6-11.4c0.2-6-4.5-11.1-10.5-11.3c-0.1,0-0.1,0-0.2,0
		c-4.9,0-10.6,3.8-10.6,11.4c-0.2,6,4.4,11.1,10.5,11.3C125.6-2.6,125.6-2.6,125.7-2.6 M100.3-24c3.3,0,6.1,5.6,6.1,12.6
		c0,6.4-2.2,7.5-4.9,7.5h-1.2V-24H100.3z M101.2-3c5.3,0,11.5-3.4,11.5-11.6c0-7.1-4.6-10.3-10.9-10.3H91.7v0.1
		c2.2,1.2,2.3,3,2.3,5.2v19.1c0,2.3-0.1,4.1-2.3,5.2v0.1h10.9V4.7c-2.2-1.2-2.3-2.9-2.3-5.2v-2.5L101.2-3L101.2-3z M80-3h10.9v-0.1
		c-2.2-1.2-2.3-3-2.3-5.2v-25.3H80v0.1c2.2,1.2,2.3,3,2.3,5.2v19.9c0,2.3-0.1,4.1-2.3,5.2L80-3z M67.9-5.2c-1.3,0-3-1.7-3-4.1
		c0-3.7,1.2-5,5.4-8.4v9.4C70.4-6.3,69.1-5.2,67.9-5.2 M76.5-20.1c0-2.7-1.4-5.1-5.8-5.1c-2.4,0.1-4.8,0.3-7.1,0.7L60-19.6l0.1,0.1
		c1.6-1.3,5.5-4.7,7.9-4.7c1.7,0,2.5,1.4,2.5,3.1c0,2.6-1.6,3.8-5.7,6.3C61-12.6,59-11.2,59-7.9c0,2.9,2.3,5.2,5.2,5.2
		c0.1,0,0.2,0,0.4,0c2,0,4.3-1.7,5.7-2.8v2.6h8.4V-3c-2.2-1.2-2.3-3-2.3-5.2L76.5-20.1L76.5-20.1z M47.2-35.1c1.1,0,2.3,1,2.3,3.3
		c-0.1,1.9-0.6,3.8-1.6,5.5v-0.1C45.1-33.4,45.7-35.1,47.2-35.1 M57-33.6c2.4,0.9,3.6,3,2.5,5.7l-6,15.5l-5.2-12.9
		c1.1-2.2,2.1-4.3,2.1-6.6c0-2.5-1.5-4.1-3.3-4.1c-4.1,0-7.9,5.5-3.4,16.8l-3.4,7.4l-6.6-16c-1.1-2.7-0.3-4.7,2.4-5.7v-0.1H22.5v0.1
		c1.5,0.9,2.7,2.7,4.4,6.7L37-2.4h0.1L44.3-18l6.3,15.6h0.1l9.7-25.1c1.1-3,2.3-5,3.8-6.1v-0.1L57-33.6L57-33.6L57-33.6z"/>
</g>
</svg>
