<?xml version="1.0" encoding="utf-8"?>
<!-- Generator: Adobe Illustrator 27.1.0, SVG Export Plug-In . SVG Version: 6.00 Build 0)  -->
<svg version="1.1" id="Layer_1" xmlns="http://www.w3.org/2000/svg" xmlns:xlink="http://www.w3.org/1999/xlink" x="0px" y="0px"
	 viewBox="0 0 202 185.2" style="enable-background:new 0 0 202 185.2;" xml:space="preserve">
<style type="text/css">
	.st0{fill:#9E8959;}
	.st1{fill:#FFFFFF;}
</style>
<g>
	<path class="st0" d="M146.6,8.4c1.5,0,2.6,2.2,2.7,5.6h-5.3C144.2,10.7,145.3,8.4,146.6,8.4 M149,20.6c-2.2,0-4.9-1.6-4.9-5.9h9.4
		c-0.3-4.3-2.9-6.9-6.2-6.9c-3.4,0-7.3,2.7-7.3,8.2c0,5.6,3.6,8.2,6.9,8.2c3.4,0,5.5-3,6.3-5.5l-0.1,0
		C151.9,19.9,150.3,20.6,149,20.6 M131.5,23.9h7.8v-0.1c-1.6-0.9-1.7-2.1-1.7-3.8V1.7h-6.2v0.1c1.6,0.9,1.7,2.1,1.7,3.8V20
		C133.2,21.7,133.1,23,131.5,23.9L131.5,23.9z M123.9,23.6c-1.9,0-3.8-4.1-3.8-9.4c0-3.9,1.2-5.8,2.2-5.8c1.9,0,3.8,4.1,3.8,9.4
		C126.1,21.7,124.9,23.6,123.9,23.6 M123.1,24.2c3.6,0,7.7-2.8,7.7-8.3c0-5.6-4.5-8.2-7.7-8.2c-3.6,0-7.7,2.8-7.7,8.3
		C115.4,21.7,119.9,24.2,123.1,24.2 M104.7,8.7c2.4,0,4.4,4.1,4.4,9.1c0,4.6-1.6,5.4-3.5,5.4h-0.9L104.7,8.7L104.7,8.7z M105.4,23.9
		c3.9,0,8.3-2.4,8.3-8.4c0-5.2-3.3-7.4-7.9-7.4h-7.3v0.1c1.6,0.9,1.7,2.1,1.7,3.8v13.8c0,1.7-0.1,2.9-1.7,3.8v0.1h7.8v-0.1
		c-1.6-0.9-1.7-2.1-1.7-3.8v-1.8H105.4z M90,23.9h7.8v-0.1c-1.6-0.9-1.7-2.1-1.7-3.8V1.7H90v0.1c1.6,0.9,1.7,2.1,1.7,3.8V20
		C91.7,21.7,91.6,23,90,23.9L90,23.9z M81.3,22.3c-1,0-2.2-1.2-2.2-3c0-2.7,0.9-3.6,3.9-6.1V20C83,21.5,82.2,22.3,81.3,22.3
		 M87.5,11.5c0-2-1-3.7-4.2-3.7c-1.9,0-3.7,0.3-5.1,0.5l-2.6,3.5l0.1,0.1c1.1-0.9,4-3.4,5.7-3.4c1.2,0,1.8,1,1.8,2.2
		c0,1.9-1.1,2.7-4.1,4.5c-2.8,1.6-4.1,2.6-4.1,5c0,1.7,1.2,3.8,4,3.8c1.4,0,3.1-1.2,4.1-2.1v1.9h6.1v-0.1c-1.6-0.9-1.7-2.1-1.7-3.8
		V11.5z M66.3,0.7C67.1,0.7,68,1.4,68,3c0,1.4-0.5,2.7-1.1,4v0C64.8,1.9,65.2,0.7,66.3,0.7 M73.4,1.8C75.2,2.4,76,4,75.2,5.9
		l-4.3,11.2l-3.7-9.4C68,6.2,68.7,4.6,68.7,3c0-1.8-1.1-3-2.4-3c-3,0-5.7,4-2.5,12.1l-2.4,5.3L56.6,5.9c-0.8-1.9-0.2-3.4,1.7-4.1
		V1.7h-9.9v0.1c1.1,0.6,2,2,3.2,4.9L59,24.3H59L64.2,13l4.6,11.3h0.1l7-18.1c0.8-2.1,1.7-3.6,2.7-4.4V1.7L73.4,1.8L73.4,1.8z"/>
	<g>
		<g>
			<path class="st1" d="M18.4,185.2c-4.7,0-9.6-2-11.4-2c-1.4,0-2.1,0.6-2.1,1.9l-0.4,0.1L0,169.8l0.4-0.2c7,13.4,13.4,14.9,18,14.9
				c5.2,0,8.9-3.7,8.9-8c0-4.5-3.5-7.7-9.7-10.1l-5.4-2c-5.5-2.1-10.4-5.9-10.4-12.2c0-6.9,5.5-11.2,12.5-11.2
				c3.5,0,6.7,1.2,8.8,1.2c1.3,0,2.2-0.5,2.1-2l0.4-0.1l4.8,14l-0.4,0.2c-5.7-10-10.5-12.7-15.7-12.7c-5.5,0-8.3,3.1-8.3,6.9
				c0,4.2,2.8,6.7,9.1,9.1l5.6,2.1c6.8,2.6,11.2,6.6,11.2,12.5C31.9,180.7,24.8,185.2,18.4,185.2z"/>
			<path class="st1" d="M63.8,184.5c-1.8,0-3.1-0.1-5.2-0.1c-1.4,0-2.2,0.1-3.2,0.1v-4l-6.6,2.6c-3.1,1.2-5.4,2-7.5,2
				c-2.6,0-4.2-1.3-4.2-4.7V160c0-2.6-0.6-3.8-3.3-3.8h-0.2v-0.5h1.3c3,0,7.4-1.1,8.3-2.6h0.4v27.4c0,2,0.8,2.8,2.2,2.8
				c1.2,0,3-0.6,4.5-1.3l5.1-2V160c0-2.6-0.6-3.8-3.3-3.8h-0.2v-0.5h1.3c3,0,7.4-1.1,8.3-2.6h0.4v27.2c0,2.6,0.6,3.9,3.3,3.9h0.2
				v0.5H63.8z"/>
			<path class="st1" d="M115.6,184.5c-1.8,0-3-0.2-5.1-0.2c-2.1,0-3.3,0.2-5.2,0.2h-1.6V184h0.2c2.8,0,3.3-1.3,3.3-3.9v-22.3
				c0-2-0.8-2.8-2.1-2.8c-1.1,0-2.9,0.7-4.5,1.3l-4.9,2v21.8c0,2.6,0.5,3.9,3.3,3.9h0.1v0.5h-1.6c-1.8,0-3-0.2-5.1-0.2
				c-2.1,0-3.4,0.2-5.2,0.2h-1.6V184h0.1c2.8,0,3.3-1.3,3.3-3.9v-22.3c0-2-0.8-2.8-2.1-2.8c-1.1,0-2.9,0.7-4.5,1.3l-4.9,2v21.8
				c0,2.6,0.5,3.9,3.3,3.9h0.2v0.5h-1.6c-1.8,0-3.1-0.2-5.2-0.2c-2.1,0-3.3,0.2-5.1,0.2h-1.6V184h0.1c2.8,0,3.3-1.3,3.3-3.9V160
				c0-2.6-0.5-3.8-3.3-3.8h-0.1v-0.5H69c2.9,0,7.4-1.1,8.3-2.6h0.4v4.7l6.4-2.5c3-1.2,5.3-2,7.4-2c2.1,0,4,0.8,4.1,4.5l6.5-2.5
				c3-1.2,5.3-2,7.4-2c2.6,0,4.2,1.3,4.2,4.7v22.3c0,2.6,0.5,3.9,3.3,3.9h0.1v0.5H115.6z"/>
			<path class="st1" d="M167.4,184.5c-1.8,0-3-0.2-5.1-0.2s-3.3,0.2-5.2,0.2h-1.6V184h0.2c2.8,0,3.3-1.3,3.3-3.9v-22.3
				c0-2-0.8-2.8-2.1-2.8c-1.1,0-2.9,0.7-4.5,1.3l-4.9,2v21.8c0,2.6,0.5,3.9,3.3,3.9h0.1v0.5h-1.6c-1.8,0-3-0.2-5.1-0.2
				c-2.1,0-3.4,0.2-5.2,0.2h-1.6V184h0.1c2.8,0,3.3-1.3,3.3-3.9v-22.3c0-2-0.8-2.8-2.1-2.8c-1.1,0-2.9,0.7-4.5,1.3l-4.9,2v21.8
				c0,2.6,0.5,3.9,3.3,3.9h0.2v0.5h-1.6c-1.8,0-3.1-0.2-5.2-0.2c-2.1,0-3.3,0.2-5.1,0.2h-1.6V184h0.1c2.8,0,3.3-1.3,3.3-3.9V160
				c0-2.6-0.5-3.8-3.3-3.8h-0.1v-0.5h1.3c2.9,0,7.4-1.1,8.3-2.6h0.4v4.7l6.4-2.5c3-1.2,5.3-2,7.4-2c2.1,0,4,0.8,4.1,4.5l6.5-2.5
				c3-1.2,5.3-2,7.4-2c2.6,0,4.2,1.3,4.2,4.7v22.3c0,2.6,0.5,3.9,3.3,3.9h0.1v0.5H167.4z"/>
			<path class="st1" d="M183.2,184.5c-1.8,0-3.1-0.2-5.2-0.2c-2.1,0-3.3,0.2-5.1,0.2h-1.6V184h0.1c2.8,0,3.3-1.3,3.3-3.9V160
				c0-2.6-0.5-3.8-3.3-3.8h-0.1v-0.5h1.3c2.9,0,7.4-1.1,8.3-2.6h0.4v27.2c0,2.6,0.5,3.9,3.3,3.9h0.2v0.5H183.2z"/>
			<path class="st1" d="M188.9,178.3v-24h-4.3v-0.6h4.3v-4.8c4,0,5.9-2,5.9-4.8v-0.2h0.5v9.8h6.4v0.6h-6.4v24.8c0,2.8,1,3.7,2.5,3.7
				c1.4,0,3-1.4,3.7-3.3l0.4,0.1c-0.9,2.8-3.3,5.5-7.1,5.5C191.9,185,188.9,183.6,188.9,178.3z"/>
		</g>
		<g>
			<path class="st1" d="M38.7,82.3h-6c-2.4,0-4.6-0.1-6.9-0.1c-2,0-3.5,0.1-5.2,0.1h-1.9v-0.6h0.2c2.5,0,3.4-1.1,3.4-4V43.9
				c0-2.9-0.9-4-3.4-4h-0.2v-0.6h1.9c1.7,0,3.1,0.1,5.2,0.1c2.6,0,4.3-0.1,6.6-0.1h4.8c8.4,0,14.7,3.8,14.7,10.6
				c0,5.8-4.8,9.9-11.9,10.5c7.8,0.1,14.2,3.3,14.2,10.7C54.3,78.9,47.1,82.3,38.7,82.3z M36.6,40.1h-7.4v20.2H37
				c6.3,0,7.7-4.1,7.7-10.2C44.7,43.6,42.9,40.1,36.6,40.1z M38.1,61h-8.9v20.7h8.9c6.3,0,8.6-3,8.6-10.5C46.7,63.5,43.9,61,38.1,61
				z"/>
			<path class="st1" d="M69.4,82.3c-2,0-3.4-0.2-5.7-0.2c-2.1,0-3.3,0.2-5.2,0.2h-1.6v-0.5h0.2c2.8,0,3.3-1.3,3.3-3.9V57.7
				c0-2.6-0.6-3.8-3.3-3.8h-0.2v-0.5h1.3c3,0,7.4-1.1,8.3-2.6h0.4v7.7c1.3-2.1,2.6-4,4.2-5.4c1.1-1.1,2.6-2.1,4.7-2.1
				c2,0,3.1,1,3.1,2.5c0,1.6-1.1,2.6-3,2.6c-1.6,0-3-1.1-4.5-1.1c-1.6,0-3,2-4.5,4.5v18.5c0,2.6,1.2,3.9,4,3.9h1.1v0.5H69.4z"/>
			<path class="st1" d="M93.1,82.3c-1.8,0-3.1-0.2-5.2-0.2c-2.1,0-3.3,0.2-5.1,0.2h-1.6v-0.5h0.1c2.8,0,3.3-1.3,3.3-3.9V57.7
				c0-2.6-0.5-3.8-3.3-3.8h-0.1v-0.5h1.3c2.9,0,7.4-1.1,8.3-2.6h0.4v27.2c0,2.6,0.5,3.9,3.3,3.9h0.2v0.5H93.1z M83.9,42.7
				c0-2.3,1.8-3.8,3.9-3.8c2.1,0,3.9,1.5,3.9,3.8c0,2.3-1.8,3.8-3.9,3.8C85.7,46.5,83.9,44.9,83.9,42.7z"/>
			<path class="st1" d="M99.4,76.1v-24H95v-0.6h4.3v-4.8c4,0,5.9-2,5.9-4.8v-0.2h0.5v9.8h6.4v0.6h-6.4v24.8c0,2.8,1,3.7,2.5,3.7
				c1.4,0,3-1.4,3.7-3.3l0.4,0.1c-0.9,2.8-3.3,5.5-7.1,5.5C102.4,82.8,99.4,81.4,99.4,76.1z"/>
			<path class="st1" d="M126.6,82.3c-1.8,0-3.1-0.2-5.2-0.2c-2.1,0-3.3,0.2-5.1,0.2h-1.6v-0.5h0.1c2.8,0,3.3-1.3,3.3-3.9V57.7
				c0-2.6-0.5-3.8-3.3-3.8h-0.1v-0.5h1.3c2.9,0,7.4-1.1,8.3-2.6h0.4v27.2c0,2.6,0.5,3.9,3.3,3.9h0.2v0.5H126.6z M117.4,42.7
				c0-2.3,1.8-3.8,3.9-3.8c2.1,0,3.9,1.5,3.9,3.8c0,2.3-1.8,3.8-3.9,3.8C119.2,46.5,117.4,44.9,117.4,42.7z"/>
			<path class="st1" d="M135.3,81.5c-0.9,0-1.6,0.5-1.5,1.4l-0.4,0.1l-3-11.6l0.4-0.1c4.4,9.6,9.5,11,12.9,11c4.4,0,6.6-2.6,6.6-5.6
				c0-3.1-2.6-5-7.4-6.9l-3.5-1.3c-5-1.9-7.4-5-7.4-9.3c0-5,4-8.3,9.3-8.3c2.8,0,5,1.1,6.9,1.1c1,0,1.7-0.5,1.6-1.5l0.4-0.1l3,10.8
				l-0.4,0.1c-4.1-8.8-8.9-9.9-11.5-9.9c-3.8,0-5.5,2.2-5.5,4.5c0,2.7,2.1,4.4,6.9,6.4l3.3,1.3c5.4,2.2,8.3,4.7,8.3,9.4
				c0,6.3-5,9.8-10.6,9.8C140,82.8,137.4,81.5,135.3,81.5z"/>
			<path class="st1" d="M185.2,77.9c0,2.6,0.6,3.9,3.3,3.9h0.2v0.5h-1.6c-1.8,0-3.1-0.2-5.2-0.2c-2.1,0-3.3,0.2-5.2,0.2h-1.6v-0.5
				h0.2c2.8,0,3.3-1.3,3.3-3.9V55.6c0-2-0.8-2.8-2.2-2.8c-1.2,0-3,0.7-4.5,1.3l-5.4,2.1v21.7c0,2.6,0.6,3.9,3.3,3.9h0.2v0.5h-1.6
				c-1.8,0-3.1-0.2-5.2-0.2c-2.1,0-3.3,0.2-5.2,0.2h-1.6v-0.5h0.2c2.8,0,3.3-1.3,3.3-3.9V43.8c0-2.6-0.6-3.8-3.3-3.8h-0.2v-0.5h1.3
				c3,0,7.4-1.1,8.3-2.6h0.4v18.8l6.9-2.6c2.9-1.1,5.4-2,7.5-2c2.6,0,4.2,1.3,4.2,4.7V77.9z"/>
		</g>
		<g>
			<path class="st1" d="M36,130.3c-2,2.1-3.5,2.3-5.8,2.3h-8.4V95c0-2.9,0.9-4,3.4-4h0.2v-0.6h-1.9c-1.6,0-3.1,0.2-5.1,0.2
				c-2,0-3.5-0.2-5.2-0.2h-1.9V91h0.2c2.5,0,3.4,1.1,3.4,4v33.8c0,3-0.9,4-3.4,4h-0.2v0.6h1.9c1.7,0,3.2-0.1,5.2-0.1
				c2,0,3.5,0.1,5.1,0.1h12.7c1.8,0,2.4,0.7,2.3,1.9l0.4,0.1l6-17.2l-0.4-0.2C41.1,123.3,38,128.2,36,130.3z"/>
			<path class="st1" d="M73.4,128.9v-27.2H73c-0.9,1.6-5.4,2.6-8.3,2.6h-1.3v0.5h0.2c2.8,0,3.3,1.3,3.3,3.8v19.9l-5.1,2
				c-1.6,0.6-3.3,1.3-4.5,1.3c-1.4,0-2.2-0.8-2.2-2.8v-27.4h-0.4c-0.9,1.6-5.4,2.6-8.3,2.6h-1.3v0.5h0.2c2.8,0,3.3,1.3,3.3,3.8v20.4
				c0,3.3,1.6,4.7,4.2,4.7c2.1,0,4.4-0.8,7.5-2l6.6-2.6v4c1,0,1.8-0.1,3.2-0.1c2.1,0,3.3,0.1,5.2,0.1h1.6v-0.5h-0.2
				C73.9,132.8,73.4,131.6,73.4,128.9z"/>
			<path class="st1" d="M105.5,129l-8.6-13.5l3.8-5.8c2.3-3.6,5.6-6.7,8.8-6.7h0.1v-0.5h-1.2c-1.1,0-3.1,0.2-4.6,0.2
				c-1.8,0-3.3-0.2-4.8-0.2h-0.8v0.5h0.1c2.9,0,3.5,1,3.5,2.6c0,1-0.6,2.5-1.6,3.8l-3.7,5.5l-5.8-9.1c-0.3-0.4-0.4-0.9-0.4-1.4
				c0-1.1,0.9-1.4,2.6-1.4v-0.5H91c-1.4,0-2.8,0.2-4.9,0.2c-2.1,0-3.5-0.2-4.9-0.2h-2v0.5c2,0,3.4,1.7,4.7,3.8l8.2,13l-4.3,6.4
				c-2.4,3.5-5.6,6.7-8.8,6.7H79v0.5h1.3c1.1,0,3.1-0.2,4.5-0.2c1.8,0,3.3,0.2,4.8,0.2h0.8v-0.5h-0.1c-2.8,0-3.5-1-3.5-2.6
				c0-1,0.6-2.5,1.6-3.8l4.2-6.1l6.2,9.7c0.3,0.4,0.4,0.9,0.4,1.4c0,1.1-0.9,1.4-2.6,1.4v0.5h1.8c1.4,0,2.8-0.2,4.9-0.2
				c2.1,0,3.5,0.2,4.9,0.2h2v-0.5C108.2,132.8,106.8,131.1,105.5,129z"/>
			<path class="st1" d="M139.8,128.9v-27.2h-0.4c-0.9,1.6-5.4,2.6-8.3,2.6h-1.3v0.5h0.2c2.8,0,3.3,1.3,3.3,3.8v19.9l-5.1,2
				c-1.6,0.6-3.3,1.3-4.5,1.3c-1.4,0-2.2-0.8-2.2-2.8v-27.4h-0.4c-0.9,1.6-5.4,2.6-8.3,2.6h-1.3v0.5h0.2c2.8,0,3.3,1.3,3.3,3.8v20.4
				c0,3.3,1.6,4.7,4.2,4.7c2.1,0,4.4-0.8,7.5-2l6.6-2.6v4c1,0,1.8-0.1,3.2-0.1c2.1,0,3.3,0.1,5.2,0.1h1.6v-0.5h-0.2
				C140.3,132.8,139.8,131.6,139.8,128.9z"/>
			<path class="st1" d="M165.1,102c-2,0-3.5,0.9-4.7,2.1c-1.6,1.4-2.9,3.3-4.2,5.4v-7.7h-0.4c-0.8,1.6-5.3,2.6-8.3,2.6h-1.3v0.5h0.2
				c2.8,0,3.3,1.3,3.3,3.8v20.2c0,2.6-0.6,3.9-3.3,3.9h-0.2v0.5h1.6c1.8,0,3.1-0.2,5.2-0.2c2.3,0,3.7,0.2,5.7,0.2h2.5v-0.5h-1.1
				c-2.8,0-4-1.3-4-3.9v-18.5c1.5-2.6,3-4.5,4.5-4.5c1.4,0,2.8,1.1,4.5,1.1c2,0,3-1,3-2.6C168.3,103,167.1,102,165.1,102z"/>
			<path class="st1" d="M200.7,102.5c-1.5,0-3,0.2-4.9,0.2c-1.9,0-3.3-0.2-5-0.2h-0.6v0.5c2.8,0,4.4,1.3,4.4,3.7
				c0,1.1-0.3,2.4-0.6,3.2l-6.1,17.1l-7.5-20.9c-0.1-0.4-0.3-0.9-0.3-1.3c0-1.3,1.1-1.8,2.8-1.8v-0.5h-1.8c-1.4,0-2.8,0.2-4.9,0.2
				c-2.1,0-3.5-0.2-4.9-0.2h-1.8v0.5c2.1,0,3.1,0.9,4.1,3.5l9.8,26.8c0.5,0,1.7-0.1,2-0.1l-1.3,3.1c-1.9,4.7-3.3,7.6-4.7,8.9
				c0-0.2,0.1-0.5,0.1-0.8c0-2.3-1.8-3.8-3.9-3.8c-2.1,0-3.9,1.5-3.9,3.7c0,0,0,0,0,0.1c0,2.3,1.8,3.8,3.9,3.8
				c0.6,0,1.3-0.1,1.8-0.4c0.1-0.1,0.3-0.2,0.4-0.3c2.9-1.9,4.6-5.7,6.8-11l1.4-3.3h0.9c1.1,0,2.1,0.1,3.3,0.1l-2-5.5l6.3-17.7
				c1.4-4,3.7-7.1,7.2-7.1v-0.5H200.7z"/>
		</g>
	</g>
</g>
</svg>
