<?xml version="1.0" encoding="UTF-8"?>
<svg id="Layer_1" data-name="Layer 1" xmlns="http://www.w3.org/2000/svg" viewBox="0 0 226.17 240.25">
  <defs>
    <style>
      .cls-1 {
        fill: #ff595c;
      }

      .cls-2 {
        fill: #9e8959;
      }

      .cls-3 {
        fill: #0e1b2c;
      }
    </style>
  </defs>
  <path class="cls-2" d="M178.3,12.06c2.08,0,3.66,3.21,3.89,7.95h-7.54c.18-4.74,1.67-7.95,3.66-7.95M181.64,29.46c-3.07,0-6.96-2.26-7-8.45h13.46c-.36-6.19-4.2-9.89-8.81-9.89s-10.39,3.89-10.39,11.75,5.2,11.66,9.85,11.66,7.86-4.25,8.99-7.91l-.09-.04c-1.85,1.81-4.11,2.89-6.01,2.89M156.66,34.11h11.2v-.09c-2.3-1.22-2.39-3.03-2.39-5.42V2.48h-8.81v.09c2.3,1.22,2.39,3.03,2.39,5.42v20.6c0,2.39-.09,4.2-2.39,5.42v.09ZM145.77,33.66c-2.71,0-5.47-5.87-5.47-13.37,0-5.56,1.67-8.22,3.16-8.22,2.76,0,5.47,5.87,5.47,13.37,0,5.56-1.67,8.22-3.16,8.22M144.64,34.61c5.15,0,10.98-3.98,10.98-11.79s-6.42-11.7-11.07-11.7c-5.11,0-10.93,3.98-10.93,11.79s6.42,11.7,11.02,11.7M118.39,12.38c3.39,0,6.24,5.83,6.24,13.06,0,6.64-2.26,7.68-5.06,7.68h-1.26V12.38h.09ZM119.34,34.11c5.51,0,11.88-3.48,11.88-11.97,0-7.36-4.74-10.62-11.25-10.62h-10.48v.09c2.3,1.22,2.4,3.03,2.4,5.42v19.7c0,2.4-.09,4.2-2.4,5.42v.09h11.21v-.09c-2.3-1.22-2.4-3.03-2.4-5.42v-2.62h1.04ZM97.38,34.11h11.21v-.09c-2.3-1.22-2.39-3.03-2.39-5.42V2.48h-8.81v.09c2.3,1.22,2.4,3.03,2.4,5.42v20.6c0,2.39-.09,4.2-2.4,5.42v.09ZM84.91,31.81c-1.4,0-3.07-1.72-3.07-4.29,0-3.84,1.31-5.2,5.6-8.67v9.76c0,2.08-1.26,3.21-2.53,3.21M93.77,16.49c0-2.85-1.49-5.29-5.96-5.29-2.67,0-5.29.41-7.32.77l-3.75,5.02.09.09c1.63-1.36,5.74-4.88,8.18-4.88,1.72,0,2.62,1.45,2.62,3.21,0,2.67-1.58,3.89-5.92,6.46-3.93,2.3-5.92,3.75-5.92,7.09,0,2.4,1.72,5.38,5.74,5.38,2.03,0,4.47-1.72,5.92-2.94v2.71h8.72v-.09c-2.3-1.22-2.39-3.03-2.39-5.42v-12.11ZM63.5.95c1.13,0,2.39,1.04,2.39,3.34,0,1.99-.72,3.89-1.63,5.65v-.05c-2.85-7.14-2.26-8.94-.77-8.94M73.66,2.57c2.53.9,3.7,3.07,2.62,5.87l-6.19,16.04-5.33-13.37c1.13-2.26,2.17-4.52,2.17-6.87,0-2.62-1.54-4.25-3.43-4.25-4.25,0-8.13,5.74-3.52,17.35l-3.48,7.64-6.78-16.54c-1.13-2.76-.32-4.83,2.44-5.87v-.09h-14.1v.09c1.54.9,2.85,2.85,4.56,6.96l10.44,25.21h.09l7.37-16.13,6.51,16.13h.09l10.03-25.89c1.18-3.03,2.39-5.2,3.89-6.28v-.09h-7.36v.09Z"/>
  <g>
    <path class="cls-1" d="M77.06,240.25l-.38-.05c.05-2.98-.67-3.84-3.5-3.84h-16.75v-.29l6.1-6.86c7.06-7.97,9.5-12.96,9.5-19.06,0-4.85-1.39-6.43-3.65-6.43-2.69,0-3.84,1.92-4.95,6.53-.34,1.34-.96,2.64-2.59,2.64-1.39,0-2.59-.86-2.59-2.69,0-3.22,4.75-7.01,10.46-7.01s10.51,2.93,10.51,8.16c0,7.49-10.61,12.96-15.79,17.95l-1.49,1.44h17.09l-1.97,9.5Z"/>
    <path class="cls-1" d="M86.8,219.99c0-10.75,6.38-16.8,12.96-16.8s13.01,6.05,13.01,16.8-6.38,16.85-13.01,16.85-12.96-6.14-12.96-16.85ZM105.57,219.99c0-10.99-.96-16.27-5.81-16.27s-5.76,5.28-5.76,16.27.96,16.32,5.76,16.32,5.81-5.33,5.81-16.32Z"/>
    <path class="cls-1" d="M137.83,240.25l-.38-.05c.05-2.98-.67-3.84-3.5-3.84h-16.75v-.29l6.1-6.86c7.06-7.97,9.5-12.96,9.5-19.06,0-4.85-1.39-6.43-3.65-6.43-2.69,0-3.84,1.92-4.95,6.53-.34,1.34-.96,2.64-2.59,2.64-1.39,0-2.59-.86-2.59-2.69,0-3.22,4.75-7.01,10.46-7.01s10.51,2.93,10.51,8.16c0,7.49-10.61,12.96-15.79,17.95l-1.49,1.44h17.09l-1.97,9.5Z"/>
    <path class="cls-1" d="M147.33,229.88c0-1.73,1.06-2.69,2.45-2.69,1.54,0,2.5,1.06,2.83,2.59.53,2.35,1.73,6.53,4.99,6.53,3.84,0,4.9-3.36,4.9-10.46,0-7.63-.91-10.03-4.37-10.03-2.78,0-6.82,1.78-8.4,4.99l-.48-.14s2.3-16.99,2.35-16.99h12.19c2.83,0,3.65-.53,4.51-2.4l.38.1-1.68,7.92h-15.65l-1.34,10.03c1.63-2.3,5.18-4.08,8.35-4.08,6.24,0,11.38,3.5,11.38,10.56,0,6.48-5.81,11.04-11.76,11.04s-10.66-3.89-10.66-6.96Z"/>
  </g>
  <g>
    <path class="cls-3" d="M19.35,104.02c-2.79,0-5.76-.27-9-.27-2.97,0-5.13.27-7.65.27H0v-.81h.27c3.6,0,4.86-1.53,4.86-5.76v-48.24c0-4.14-1.26-5.67-4.86-5.67h-.27v-.81h2.7c2.43,0,4.5.09,7.38.09,3.69,0,6.12-.09,9.45-.09h7.74c13.05,0,21.69,5.58,21.69,16.47s-8.64,16.74-21.69,16.74h-12.33v21.51c0,4.05,1.26,5.76,6.03,5.76h2.52v.81h-4.14ZM38.25,59.2c0-10.62-2.52-15.48-11.52-15.48h-11.79v31.23h11.79c9,0,11.52-5.04,11.52-15.75Z"/>
    <path class="cls-3" d="M48.24,81.97c0-13.23,9.54-22.77,20.52-22.77s20.52,9.54,20.52,22.77-9.54,22.77-20.52,22.77-20.52-9.54-20.52-22.77ZM79.02,81.97c0-17.91-3.87-21.96-10.26-21.96s-10.26,4.05-10.26,21.96,3.87,21.96,10.26,21.96,10.26-4.05,10.26-21.96Z"/>
    <path class="cls-3" d="M137.52,103.93c-1.53,0-3.06.09-4.77.09l-10.98-31.23-7.92,23.22,2.79,8.01c-1.89,0-3.33-.09-4.86-.09-1.62,0-3.15.09-4.86.09l-14.04-38.34c-1.35-3.69-2.88-5.04-5.85-5.04v-.72h2.61c2.07,0,4.05.27,7.02.27s4.95-.27,6.93-.27h2.61v.72c-2.52,0-4.05.63-4.05,2.52,0,.54.18,1.17.36,1.8l10.8,29.79,7.92-23.31-1.98-5.76c-1.35-3.69-2.88-5.04-5.85-5.04v-.72h2.52c2.07,0,4.05.27,7.02.27s4.95-.27,7.02-.27h2.61v.72c-2.52,0-4.05.63-4.05,2.43,0,.54.09,1.35.36,1.89l10.26,29.79,8.46-24.3c.45-1.35.9-3.24.9-4.59,0-3.42-2.25-5.22-6.3-5.22v-.72h.9c2.52,0,4.59.27,7.2.27s4.86-.27,7.02-.27h1.35v.72c-5.04.09-8.28,4.68-10.26,10.35l-8.73,25.02,2.79,8.01c-1.89,0-3.33-.09-4.95-.09Z"/>
    <path class="cls-3" d="M154.71,82.51c0-15.03,10.53-23.31,20.43-23.31,9.09,0,17.19,6.21,16.92,16.65h-27.27c-.09.81-.09,1.89-.09,2.79,0,12.96,5.4,21.96,13.86,21.96,5.31,0,10.35-2.97,12.96-11.16l.72.18c-2.79,9.36-8.82,15.12-17.91,15.12-9.63,0-19.62-8.46-19.62-22.23ZM174.69,60.01c-5.4,0-9.27,4.86-9.9,14.94h18.45c-.09-11.25-3.87-14.94-8.55-14.94Z"/>
    <path class="cls-3" d="M212.58,104.02c-2.88,0-4.86-.27-8.19-.27-2.97,0-4.77.27-7.38.27h-2.25v-.72h.27c3.96,0,4.77-1.8,4.77-5.58v-28.8c0-3.69-.81-5.49-4.77-5.49h-.27v-.72h1.8c4.23,0,10.62-1.53,11.79-3.78h.63v10.98c1.89-2.97,3.78-5.67,6.03-7.74,1.62-1.62,3.78-2.97,6.66-2.97s4.5,1.44,4.5,3.51c0,2.25-1.53,3.69-4.32,3.69-2.34,0-4.32-1.53-6.39-1.53-2.25,0-4.32,2.79-6.48,6.48v26.37c0,3.78,1.71,5.58,5.67,5.58h1.53v.72h-3.6Z"/>
    <path class="cls-3" d="M87.52,179.9l-.63-.18c.09-1.71-.81-2.7-3.33-2.7h-18.09c-2.34,0-4.5-.09-7.29-.09s-4.95.09-7.38.09h-2.7v-.81h.27c3.6,0,4.86-1.53,4.86-5.76v-48.24c0-4.14-1.26-5.67-4.86-5.67h-.27v-.81h2.7c2.43,0,4.5.27,7.38.27s4.95-.27,7.29-.27h2.7v.81h-.27c-3.6,0-4.86,1.53-4.86,5.67v53.82h11.97c3.33,0,5.4-.36,8.28-3.33,2.88-3.06,7.29-9.99,12.24-17.64l.63.27-8.64,24.57Z"/>
    <path class="cls-3" d="M112.72,177.02c-2.61,0-4.41-.27-7.38-.27s-4.77.27-7.29.27h-2.25v-.72h.18c4.05,0,4.77-1.8,4.77-5.58v-28.8c0-3.69-.72-5.49-4.77-5.49h-.18v-.72h1.8c4.14,0,10.53-1.53,11.79-3.78h.63v38.79c0,3.78.72,5.58,4.68,5.58h.27v.72h-2.25ZM99.67,120.41c0-3.24,2.52-5.4,5.58-5.4s5.58,2.16,5.58,5.4-2.61,5.4-5.58,5.4-5.58-2.16-5.58-5.4Z"/>
    <path class="cls-3" d="M123.97,175.85c-1.26,0-2.25.72-2.16,2.07l-.63.09-4.32-16.56.63-.18c6.3,13.77,13.59,15.66,18.36,15.66,6.3,0,9.45-3.69,9.45-8.01s-3.69-7.2-10.62-9.81l-4.95-1.89c-7.11-2.7-10.62-7.2-10.62-13.23,0-7.2,5.67-11.79,13.32-11.79,3.96,0,7.11,1.53,9.9,1.53,1.44,0,2.43-.72,2.34-2.16l.63-.09,4.23,15.48-.63.18c-5.85-12.6-12.78-14.13-16.47-14.13-5.4,0-7.92,3.15-7.92,6.39,0,3.87,2.97,6.3,9.9,9.09l4.68,1.89c7.74,3.15,11.88,6.66,11.88,13.41,0,9-7.2,13.95-15.21,13.95-5.04,0-8.73-1.89-11.79-1.89Z"/>
    <path class="cls-3" d="M158.17,168.11v-34.29h-6.21v-.9h6.21v-6.84c5.67,0,8.46-2.79,8.46-6.84v-.27h.72v13.95h9.18v.9h-9.18v35.46c0,3.96,1.44,5.22,3.6,5.22s4.23-1.98,5.31-4.77l.63.18c-1.26,3.96-4.68,7.83-10.08,7.83-4.32,0-8.64-2.07-8.64-9.63Z"/>
  </g>
</svg>