<svg xmlns="http://www.w3.org/2000/svg" width="27.206" height="22.001" viewBox="0 0 27.206 22.001">
  <g id="WplHeaderIcon" transform="translate(0 0.001)">
    <path id="Path_341" data-name="Path 341" d="M22.543,1.573h4.663V1.63a8.875,8.875,0,0,0-2.46,3.977L18.4,22h-.059L14.217,11.787,9.554,22H9.5L2.889,6.036C1.8,3.436.972,2.2,0,1.63V1.573H8.926V1.63C7.181,2.288,6.666,3.6,7.381,5.349l4.291,10.47,2.2-4.834C10.954,3.632,13.414,0,16.1,0c1.2,0,2.174,1.03,2.174,2.689A10.041,10.041,0,0,1,16.9,7.037l3.376,8.468L24.2,5.349A2.625,2.625,0,0,0,22.54,1.63ZM16.592,6.265v.028a7.935,7.935,0,0,0,1.03-3.576c0-1.459-.8-2.117-1.516-2.117-.943,0-1.315,1.145.487,5.666Z" fill="#0e1b2c"/>
  </g>
</svg>
