<?xml version="1.0" encoding="utf-8"?>
<!-- Generator: Adobe Illustrator 27.4.0, SVG Export Plug-In . SVG Version: 6.00 Build 0)  -->
<svg version="1.1" id="Layer_1" xmlns="http://www.w3.org/2000/svg" xmlns:xlink="http://www.w3.org/1999/xlink" x="0px" y="0px"
	 viewBox="0 0 30 30" style="enable-background:new 0 0 30 30;" xml:space="preserve">
<style type="text/css">
	.st0{fill:#FF595C;}
</style>
<g>
	<polygon class="st0" points="13.5,17.3 17.4,15 13.5,12.7 	"/>
	<path class="st0" d="M15,0C6.7,0,0,6.7,0,15c0,8.3,6.7,15,15,15c8.3,0,15-6.7,15-15C30,6.7,23.3,0,15,0z M22.3,18.7
		c-0.2,0.7-0.7,1.2-1.4,1.4c-1.2,0.3-6,0.3-6,0.3s-4.8,0-6-0.3c-0.7-0.2-1.2-0.7-1.4-1.4C7.4,17.5,7.4,15,7.4,15s0-2.5,0.3-3.7
		C7.8,10.7,8.4,10.1,9,10c1.2-0.3,6-0.3,6-0.3s4.8,0,6,0.3c0.7,0.2,1.2,0.7,1.4,1.4c0.3,1.2,0.3,3.7,0.3,3.7S22.6,17.5,22.3,18.7z"
		/>
</g>
</svg>
